SplineFontDB: 3.2
FontName: TRJNDaVinci-Medium-Accent
FullName: TRJN DaVinci Medium Accent
FamilyName: TRJN DaVinci
Weight: Medium
Copyright: @virgileflores
Version: 001.000
ItalicAngle: 0
UnderlinePosition: -125
UnderlineWidth: 50
Ascent: 800
Descent: 200
InvalidEm: 0
sfntRevision: 0x00010000
LayerCount: 2
Layer: 0 0 "Back" 1
Layer: 1 0 "Fore" 0
XUID: [1021 911 -1180076844 13789093]
StyleMap: 0x0040
FSType: 8
OS2Version: 4
OS2_WeightWidthSlopeOnly: 0
OS2_UseTypoMetrics: 1
CreationTime: 1744042909
ModificationTime: 1768329509
PfmFamily: 81
TTFWeight: 500
TTFWidth: 5
LineGap: 170
VLineGap: 0
Panose: 0 0 0 0 0 0 0 0 0 0
OS2TypoAscent: 830
OS2TypoAOffset: 0
OS2TypoDescent: -200
OS2TypoDOffset: 0
OS2TypoLinegap: 170
OS2WinAscent: 1000
OS2WinAOffset: 0
OS2WinDescent: 260
OS2WinDOffset: 0
HheadAscent: 1000
HheadAOffset: 0
HheadDescent: -200
HheadDOffset: 0
OS2SubXSize: 650
OS2SubYSize: 600
OS2SubXOff: 0
OS2SubYOff: 75
OS2SupXSize: 650
OS2SupYSize: 600
OS2SupXOff: 0
OS2SupYOff: 350
OS2StrikeYSize: 50
OS2StrikeYPos: 255
OS2CapHeight: 750
OS2XHeight: 515
OS2Vendor: 'UKWN'
OS2CodePages: 00000001.00000000
OS2UnicodeRanges: 00000003.00000000.00000000.00000000
Lookup: 258 8 0 "'kern' Horizontal Kerning lookup 0" { "'kern' Horizontal Kerning lookup 0 subtable"  } ['kern' ('DFLT' <'dflt' > ) ]
Lookup: 260 0 0 "Mark" { "Mark"  } ['abvm' ('DFLT' <'dflt' > 'latn' <'dflt' > ) ]
Lookup: 258 8 0 "'kern' Horizontal Kerning lookup 1" { "'kern' Horizontal Kerning lookup 1 subtable"  } ['kern' ('DFLT' <'dflt' > ) ]
MarkAttachClasses: 1
DEI: 91125
LangName: 1033 "" "" "" "" "" "Version 1.000;Glyphs 3.3.1 (3343)" "" "" "Virgile Flores" "Virgile Flores" "" "http://virgileflores.com" "http://virgileflores.com" "" "" "" "TRJN DaVinci" "Medium-Accented"
Encoding: UnicodeBmp
UnicodeInterp: none
NameList: AGL For New Fonts
DisplaySize: -48
AntiAlias: 1
FitToEm: 0
WinInfo: 153 17 6
BeginPrivate: 5
BlueValues 31 [-15 0 515 530 750 765 830 845]
BlueScale 5 0.037
BlueFuzz 1 0
StdHW 4 [34]
StdVW 4 [77]

StartChar: .notdef
Encoding: 65536 -1 0
Width: 515
GlyphClass: 1
Flags: HMW
HStem: -200 71<172 343 172 422> -95 48<172 244 238 238 238 244 310 343> -13 24<172 343 172 343> 45 49<206 309 206 309> 128 61<172 343 172 343> 223 25<240 275 240 309> 306 22<172 206 172 343 240 343 240 240> 363 24<172 275 172 309 172 275> 421 38<172 240 172 240> 431 28<309 343 309 309> 493 28<172 343 172 343> 556 37<206 240 206 240 206 275 206 343> 628 27<172 275 172 343> 689 38<173 240 173 240 172 240 173 275 275 343> 761 69<173 343 173 173>
VStem: 96 76<-129 -95 -47 -13 11 128 189 306 328 363 387 421 459 493 521 628 655 689> 96 77<727 761 727 830 727 830> 96 144<248 306 248 421 421 459 556 593 689 727> 96 213<45 94 45 223 223 272 363 431> 206 34<248 306 248 306 248 306 556 593> 206 216<45 94 94 94 223 306 306 306 556 593 593 593> 275 34<248 272 387 431> 275 147<248 272 272 272 387 459 459 459 556 628 628 628 689 727 727 727> 343 79<-129 -95 -95 -95 -47 -13 -13 -13 11 128 128 128 189 306 306 306 328 431 431 431 459 493 493 493 521 556 556 556 655 689 689 689 727 761 761 761>
LayerCount: 2
Fore
SplineSet
422 830 m 1xffbe95
 422 -200 l 1
 96 -200 l 1
 96 830 l 1
 422 830 l 1xffbe95
343 128 m 1
 172 128 l 1
 172 11 l 1x2801
 343 11 l 1
 343 128 l 1
309 94 m 1x100020
 309 45 l 1x1a0021
 206 45 l 1
 206 94 l 1x100008
 309 94 l 1x100020
343 306 m 1
 240 306 l 1
 240 248 l 1
 275 248 l 1
 275 272 l 1x060042
 309 272 l 1
 309 223 l 1
 206 223 l 1
 206 306 l 1
 172 306 l 1
 172 189 l 1x0e0114
 343 189 l 1
 343 306 l 1
343 431 m 1x036105
 309 431 l 1
 309 363 l 1
 172 363 l 1
 172 328 l 1
 343 328 l 1
 343 431 l 1x036105
343 493 m 1
 172 493 l 1
 172 459 l 1
 240 459 l 1
 240 421 l 1
 172 421 l 1
 172 387 l 1
 275 387 l 1
 275 459 l 1
 343 459 l 1x01a105
 343 493 l 1
240 593 m 1x001040
 240 556 l 1x003841
 206 556 l 1
 206 593 l 1x001010
 240 593 l 1x001040
275 628 m 1
 172 628 l 1
 172 521 l 1x002f01
 343 521 l 1
 343 556 l 1
 275 556 l 1
 275 628 l 1
343 761 m 1
 173 761 l 1
 173 727 l 1
 240 727 l 1
 240 689 l 1xe00681
 172 689 l 1
 172 655 l 1
 343 655 l 1
 343 689 l 1
 275 689 l 1
 275 727 l 1
 343 727 l 1
 343 761 l 1
343 -13 m 1
 172 -13 l 1
 172 -47 l 1
 244 -47 l 1
 172 -95 l 1
 172 -129 l 1xe001
 343 -129 l 1
 343 -95 l 1
 238 -95 l 1
 310 -47 l 1
 343 -47 l 1
 343 -13 l 1
EndSplineSet
Validated: 1
EndChar

StartChar: A
Encoding: 65 65 2
Width: 627
GlyphClass: 1
Flags: HMW
HStem: 0 21G<189.5 236 328.5 372> 1 21G 1 23 269 30<195.5 339 216 339 339 347 216 353>
VStem: 1 150 423 206
AnchorPoint: "top" 270 795 basechar 0
LayerCount: 2
Fore
SplineSet
23 0 m 0x9c
 20.75 -0.25 18.6666666667 -0.368055555556 16.7534722222 -0.368055555556 c 0
 6.55172476846 -0.368055555556 1.1876280091 2.98868166096 1.1876280091 7.59637183409 c 0
 1.1876280091 12.4938649729 7.24769936486 18.8046182598 20 24 c 0x9c
 72 44 107 132 124 186 c 0
 148 261 206 478 247 632 c 0
 248.780455543 637.638109219 249.592293271 643.364274602 249.592293271 649.361406252 c 0
 249.592293271 663.574152938 245.032574095 679.308792533 238 699 c 0
 237.480740698 700.706137705 237.231111619 702.373756807 237.231111619 704.014694717 c 0
 237.231111619 724.494815274 276.11555581 740.818836209 315 776 c 0
 318.630145813 779.630145813 323.907536453 781.818952401 328.963503511 781.818952401 c 0
 335.049716009 781.818952401 340.815072906 778.647244828 343 771 c 2
 461 348 l 2
 475 297 516 166 535 109 c 0
 550 64 572 31 608 24 c 0x3c
 622.365996454 21.1268007092 629.164658257 15.0432170211 629.164658257 9.81223398827 c 0
 629.164658257 4.87385085443 623.105303546 0.695353996334 611.633358288 0.695353996334 c 0
 609.881084087 0.695353996334 608.002529711 0.792841754075 606 1 c 0
 581 3 564 7 507 7 c 0
 457 7 401 0 343 0 c 0
 328.741733834 0 321.493748842 4.83467667233 321.493748842 10.2253613177 c 0
 321.493748842 15.7988326847 329.241594868 21.9666574023 345 24 c 0x5c
 401.27802926 28.6898357717 422.731339209 44.376951326 422.731339209 77.7470513447 c 0
 422.731339209 87.0694057871 421.057049866 97.7718005357 418 110 c 0
 410 141 394 199 378 253 c 0
 374 265 366 269 353 269 c 2
 202 269 l 2
 189 269 183 265 178 251 c 0
 171 231 164 208 160 189 c 0
 155.173856477 168.661252297 151.060722994 144.044444354 151.060722994 119.983486609 c 0
 151.060722994 74.2468084494 165.922687525 30.5185810145 219 22 c 0
 233.747859843 19.8931628796 241.560153042 13.9024084386 241.560153042 8.70361163912 c 0
 241.560153042 4.03207389962 235.252140157 -1.7763568394e-15 222 0 c 0
 157 0 127 7 98 7 c 0
 74 7 41 2 23 0 c 0x9c
216 299 m 2
 339 299 l 2
 351.575022355 299 358.590745159 303.941599601 358.590745159 313.824798803 c 0
 358.590745159 316.516621956 358.070305514 319.575022355 357 323 c 0
 354 337 309 503 285 582 c 0
 282.937802231 589.21769219 279.546648326 593.51168088 275.922766437 593.51168088 c 0
 272.517483723 593.51168088 268.906703347 589.720110041 266 581 c 0
 247 514 221 409 197 323 c 0
 196.308422981 320.233691922 195.975555041 317.706523231 195.975555041 315.418493927 c 0
 195.975555041 304.472831309 203.593413823 299 216 299 c 2
EndSplineSet
Validated: 1
EndChar

StartChar: B
Encoding: 66 66 3
Width: 606
GlyphClass: 1
Flags: HMW
HStem: -1 29<317.5 370 300 409> 383 29 721 29<291 299>
VStem: 128 104<345 358 345 421> 128 106 422 107<525 618.5> 455 110<144.5 250.5>
LayerCount: 2
Fore
SplineSet
49 0 m 0xf2
 34.2585343873 0 26.4937534679 5.16791458766 26.4937534679 10.7751664068 c 0
 26.4937534679 16.1987243474 33.7581184136 22.0333056018 49 24 c 0
 106 30 122 55 125 111 c 0
 127 152 128 236 128 366 c 0
 128 476 127 611 125 639 c 0
 122 696 102 719 49 725 c 0
 34.1270912675 726.983054498 26.8734112451 732.898614136 26.8734112451 738.360094662 c 0
 26.8734112451 743.914913551 34.3771451081 749 49 749 c 0
 92 749 129 742 175 742 c 0
 218 742 265 750 317 750 c 0
 447 749 529 691 529 575 c 0xf4
 529 475 446 425 377 407 c 0
 361 402 361 395 375 393 c 0
 477 381 565 323 565 197 c 0
 565 63 475 -1 343 -1 c 0
 292 -1 230 7 175 7 c 0
 128 7 90 0 49 0 c 0xf2
329 28 m 0
 411 28 455 96 455 193 c 0
 455 308 404 380 271 383 c 0
 270.070241138 383.035759956 269.157106344 383.05361707 268.260595618 383.05361707 c 0
 244.086865206 383.05361707 232 370.070241138 232 345 c 0
 233 271 233 154 235 116 c 0
 238 51 271 28 329 28 c 0
277 412 m 0xec
 352 413 422 454 422 573 c 0
 422 664 368 720 299 721 c 0
 258 721 236 696 235 640 c 2
 233 458 l 2
 232 425 242 412 277 412 c 0xec
EndSplineSet
Validated: 33
EndChar

StartChar: C
Encoding: 67 67 4
Width: 601
GlyphClass: 1
Flags: HMW
HStem: -15 35<302 397.5> 730 35<288 377.5>
VStem: 43 120<270 490.5>
LayerCount: 2
Fore
SplineSet
359 -15 m 4
 164 -15 43 132 43 376 c 4
 43 605 163 765 355 765 c 4
 416 765 466 748 506 726 c 4
 521 718 531 705 535 693 c 4
 545 664 555 588 556 554 c 4
 556 543.425772641 552.902651406 535.639159016 547.569850751 535.639159016 c 0
 543.320560062 535.639159016 537.651925769 540.583071898 531 553 c 4
 465 678 413 730 342 730 c 4
 234 730 163 595 163 389 c 4
 163 151 238 20 366 20 c 4
 433 20 501 88 540 198 c 4
 545.174993385 212.113618323 551.013967511 217.816813932 555.538564108 217.816813932 c 0
 560.006251954 217.816813932 563.192417879 212.256181588 563.192417879 203.741271852 c 0
 563.192417879 202.234021782 559.583007406 124.178871596 546 54 c 4
 543 38 537 25 521 17 c 4
 475 -4 436 -15 359 -15 c 4
EndSplineSet
Validated: 1
EndChar

StartChar: D
Encoding: 68 68 5
Width: 715
GlyphClass: 1
Flags: HMW
HStem: -1 30<331 422.5 316 438> 718 32<329.5 385>
VStem: 128 104<304 409.5 304 421.5> 551 120<271 494>
LayerCount: 2
Fore
SplineSet
49 0 m 0
 34.1440870921 0 26.1111847152 4.98604615719 26.1111847152 10.5218683693 c 0
 26.1111847152 15.7924398905 33.3927314845 21.5613642945 49 24 c 0
 101 30 121 49 125 110 c 0
 127 150 128 236 128 366 c 0
 128 477 127 614 125 642 c 0
 122 699 102 720 49 726 c 0
 34.1270912675 727.983054498 26.8734112451 733.898614136 26.8734112451 739.360094662 c 0
 26.8734112451 744.914913551 34.3771451081 750 49 750 c 0
 85 750 121 743 161 743 c 0
 222 743 303 750 356 750 c 0
 545 750 671 621 671 383 c 0
 671 110 535 -1 341 -1 c 0
 321 -1 214 7 168 7 c 0
 128 7 85 0 49 0 c 0
352 29 m 0
 493 29 551 168 551 374 c 0
 551 614 455 718 315 718 c 0
 262 718 235 703 235 638 c 0
 235 582 232 453 232 366 c 0
 232 242 233 181 235 130 c 0
 238 53 280 29 352 29 c 0
EndSplineSet
Validated: 1
EndChar

StartChar: E
Encoding: 69 69 6
Width: 591
GlyphClass: 1
Flags: HMW
HStem: 0 26 367 27<275 275> 497 20G 723 27
VStem: 128 103<301 338.5 282.5 421> 128 105.5 417 22<263 263 494 494>
AnchorPoint: "top" 272 820 basechar 0
LayerCount: 2
Fore
SplineSet
48 0 m 0xf4
 33.6447553202 0 25.8607175861 5.25696555652 25.8607175861 10.9195735158 c 0
 25.8607175861 16.3019199544 32.8933066097 22.05074924 48 24 c 0
 105 30 122 53 125 108 c 0
 127 150 128 236 128 366 c 0
 128 476 127 612 125 643 c 0
 123 699 102 719 49 725 c 0
 34.1270912675 726.983054498 26.8734112451 732.898614136 26.8734112451 738.360094662 c 0
 26.8734112451 743.914913551 34.3771451081 749 49 749 c 0
 85 749 121 742 174 742 c 0
 280 742 333 750 381 750 c 0
 421 750 452 746 478 740 c 0
 497 736 505 723 508 698 c 0
 508.16152824 696.519324471 521.044775288 570.564350404 521.044775288 549.626323792 c 0
 521.044775288 536.216871772 516.590888911 529.153351273 511.271061047 529.153351273 c 0
 506.735669783 529.153351273 501.570884074 534.287347777 498 545 c 0
 467.167141477 631.530925533 420.506350971 723.008079811 322.596793902 723.008079811 c 0
 322.066037147 723.008079811 321.533774393 723.005391661 321 723 c 0
 255 722 236 691 235 642 c 2
 232 440 l 2
 231.035400978 407.203633265 241.236217227 393.946743253 272.475085002 393.946743253 c 0
 273.621557742 393.946743253 274.796366735 393.964599022 276 394 c 0
 309 395 315 395 332 397 c 0xf6
 380 403 407 433 417 494 c 0
 419.438635706 509.607268515 424.731804581 516.888815285 429.514942813 516.888815285 c 0
 434.538800807 516.888815285 439 508.855912908 439 494 c 0
 439 450 432 398 432 380 c 0
 432 345.033603986 439.140160706 266.659504446 439.140160706 259.459179247 c 0
 439.140160706 248.363512121 434.749840264 242.359681836 429.81983837 242.359681836 c 0
 424.676416312 242.359681836 418.945575718 248.894576042 417 263 c 0
 406 336 372 362 333 365 c 0
 304 367 296 367 275 367 c 0
 243 367 231 355 231 322 c 0
 231 243 232 167 235 109 c 0
 237 64 256 26 322 26 c 0xfa
 323.462980397 25.9723965963 324.920055697 25.9586987417 326.371228531 25.9586987417 c 0
 430.064540669 25.9586987417 503.621076584 95.8971106206 548 160 c 0
 558.323991007 173.9149444 566.633146658 180.374997985 571.842189975 180.374997985 c 0
 575.71460942 180.374997985 577.873757022 176.804860286 577.873757022 170.073304333 c 0
 577.873757022 165.686878511 576.956960428 159.958081521 575 153 c 0
 544 38 527 0 446 0 c 0
 265 0 283 7 178 7 c 0
 123 7 89 0 48 0 c 0xf4
EndSplineSet
Validated: 33
EndChar

StartChar: F
Encoding: 70 70 7
Width: 550
GlyphClass: 1
Flags: HMW
HStem: 0 24<49 49 352 352> 357 27<277 277> 507 20G 723 27<335 375> 726 24<49 49>
VStem: 128 103<307 323.5 416 421>
LayerCount: 2
Fore
SplineSet
49 0 m 0xf4
 34.3771451081 0 26.8734112451 5.08508644921 26.8734112451 10.6399053384 c 0
 26.8734112451 16.1013858639 34.1270912675 22.0169455023 49 24 c 0
 102 30 122 54 125 110 c 0
 127 151 128 236 128 366 c 0
 128 476 126 610 125 641 c 0xec
 123 695 105 717 49 726 c 0
 34.5160171325 728.413997145 27.7241787876 734.091328329 27.7241787876 739.318230571 c 0
 27.7241787876 744.917567816 35.5183840097 750 50 750 c 0
 92 750 135 743 176 743 c 0
 180.411764706 742.941176471 184.740484429 742.91349481 188.994097293 742.91349481 c 0
 257.051903114 742.91349481 305.882352941 750 368 750 c 0
 415 750 449 748 489 739 c 0
 503 736 511 722 513 702 c 0
 526.042287138 542.23198256 526.042287138 542.23198256 526.042287138 539.423796997 c 0
 526.042287138 524.307538744 521.512982663 516.344181337 516.236504325 516.344181337 c 0
 511.521350227 516.344181337 506.209538588 522.703340135 503 536 c 0
 479 629 424 723 326 723 c 0
 256 723 236 688 235 643 c 2
 231 432 l 2
 231 400 247 384 278 384 c 0
 357 384 385 416 399 505 c 0
 401 519.5 406.5 526.75 411.5 526.75 c 0
 416.5 526.75 421 519.5 421 505 c 0
 421 461 414 409 414 369 c 0
 414 323.057004811 421.140267353 239.647466526 421.140267353 238.338906062 c 0
 421.140267353 227.279635354 417.013635313 221.75 412.375 221.75 c 0
 407.25 221.75 401.5 228.5 400 242 c 0
 388 330 352 354 277 357 c 0
 276.181938115 357.026389093 275.375018377 357.039546886 274.57922241 357.039546886 c 0
 245.218772971 357.039546886 231 339.129159928 231 307 c 0
 232 214 233 150 235 108 c 0
 237 60 262 34 352 24 c 0
 366.241318655 22.0356801855 373.006692164 15.7304889955 373.006692164 10.0584278955 c 0
 373.006692164 4.68052319077 366.924835476 -0.128217598987 355.366775938 -0.128217598987 c 0
 354.291731305 -0.128217598987 353.169310206 -0.0866155708182 352 0 c 0
 316 3 240 7 189 7 c 0
 130 7 90 0 49 0 c 0xf4
EndSplineSet
Validated: 1
EndChar

StartChar: G
Encoding: 71 71 8
Width: 650
GlyphClass: 1
Flags: HMW
HStem: -15 35<298 390.5> 335 20<494.5 548.5> 730 35<292.5 384>
VStem: 43 121<264 493 264 498> 479 89
LayerCount: 2
Fore
SplineSet
354 -15 m 0
 171 -15 43 118 43 377 c 0
 43 619 173 765 356 765 c 0
 427 765 495 739 529 718 c 0
 540 711 545 702 548 692 c 0
 561.858560723 646.266749615 568.044748118 569.487197807 568.044748118 554.644250647 c 0
 568.044748118 542.217084313 564.107199471 536.717266959 559.087165433 536.717266959 c 0
 554.206750361 536.717266959 548.303225501 541.91541283 544 551 c 0
 484 670 423 730 345 730 c 0
 240 730 164 609 164 377 c 0
 164 151 234 20 362 20 c 0
 429 20 478 52 479 118 c 0
 479.267949192 135.6846467 479.392304845 151.358983849 479.392304845 165.330817628 c 0
 479.392304845 203.502577388 478.464101615 228.966679003 477 248 c 0
 474 303 448 329 364 335 c 0
 348.758118414 336.475020799 341.493753468 343.026643096 341.493753468 349.30622918 c 0
 341.493753468 355.798502495 349.258534387 362 364 362 c 0
 421 362 463 355 526 355 c 0
 571 355 599 359 617 361 c 0
 618.465085418 361.162787269 619.856560572 361.240186632 621.173466838 361.240186632 c 0
 632.207649268 361.240186632 638.006692164 355.806332464 638.006692164 349.637818803 c 0
 638.006692164 342.975149474 631.241318655 335.455399768 617 333 c 0
 578 327 568 296 568 251 c 2
 567 107 l 2
 567 84 581 66 581 48 c 0
 581 33 558 26 529 15 c 0
 485 -1 427 -15 354 -15 c 0
EndSplineSet
Validated: 1
EndChar

StartChar: H
Encoding: 72 72 9
Width: 747
GlyphClass: 1
Flags: HMW
HStem: 0 24<49 49 313 313 435 435 707 707> 385 30<260.5 468 277 468> 729 20G<34.5 68 420.5 453>
VStem: 128 104<312 347 287 432> 128 105 512 104<315 346 315 472>
LayerCount: 2
Fore
SplineSet
49 0 m 0xec
 34.3771451081 0 26.8734112451 5.08508644921 26.8734112451 10.6399053384 c 0
 26.8734112451 16.1013858639 34.1270912675 22.0169455023 49 24 c 0
 104 31 122 56 125 112 c 0
 127 153 128 247 128 377 c 0
 128 487 127 610 125 638 c 0
 122 695 104 718 49 725 c 0
 34.1270912675 726.983054498 26.8734112451 732.898614136 26.8734112451 738.360094662 c 0
 26.8734112451 743.914913551 34.3771451081 749 49 749 c 0
 87 749 121 742 179 742 c 0
 239 742 275 746 313 749 c 0
 314.169310206 749.086615571 315.291731305 749.128217599 316.366775938 749.128217599 c 0
 327.924835476 749.128217599 334.006692164 744.319476809 334.006692164 738.941572104 c 0
 334.006692164 733.269511005 327.241318655 726.964319815 313 725 c 0
 249 718 237 684 236 638 c 0
 234.266406397 588.592582303 232.938273757 468.265272371 232.938273757 466.550504053 c 0
 232.938273757 432.477584722 244.390598757 415 277 415 c 2xec
 468 415 l 2
 501 415 512 435 512 472 c 2
 509 637 l 2
 507 694 488 719 435 725 c 0
 420.127091267 726.983054498 412.873411245 732.898614136 412.873411245 738.360094662 c 0
 412.873411245 743.914913551 420.377145108 749 435 749 c 0
 471 749 505 742 573 742 c 0
 630 742 664 746 699 749 c 0
 700.169310206 749.086615571 701.291731305 749.128217599 702.366775938 749.128217599 c 0
 713.924835476 749.128217599 720.006692164 744.319476809 720.006692164 738.941572104 c 0
 720.006692164 733.269511005 713.241318655 726.964319815 699 725 c 0
 635 718 621 685 620 640 c 0
 618 551 616 463 616 377 c 0
 616 253 618 159 620 109 c 0
 622 64 643 31 707 24 c 0
 721.241318655 22.0356801855 728.006692164 15.7304889955 728.006692164 10.0584278955 c 0
 728.006692164 4.68052319077 721.924835476 -0.128217598987 710.366775938 -0.128217598987 c 0
 709.291731305 -0.128217598987 708.169310206 -0.0866155708182 707 0 c 0
 669 3 630 7 573 7 c 0
 505 7 473 0 435 0 c 0
 420.144087092 0 412.111184715 4.98604615719 412.111184715 10.5218683693 c 0
 412.111184715 15.7924398905 419.392731485 21.5613642945 435 24 c 0
 487 30 506 55 509 111 c 0
 511 148 512 227 512 327 c 0
 512 365 501 385 468 385 c 2
 277 385 l 2
 244 385 232 366 232 328 c 0
 232 246 234 166 236 114 c 0
 238 67 245 33 313 24 c 0
 327.241318655 21.5446002318 334.006692164 15.2306481299 334.006692164 9.67685934083 c 0
 334.006692164 4.43262039266 327.974460627 -0.133831719 316.508253751 -0.133831719 c 0
 315.390306959 -0.133831719 314.220704213 -0.0904225342772 313 0 c 0
 277 3 246 7 179 7 c 0xf4
 121 7 88 0 49 0 c 0xec
EndSplineSet
Validated: 1
EndChar

StartChar: I
Encoding: 73 73 10
Width: 361
GlyphClass: 1
Flags: HMW
HStem: 0 21G<34.5 69.5> 730 20G<34.5 69.5>
VStem: 128 104<304 413.5 304 421>
AnchorPoint: "top" 178 810 basechar 0
LayerCount: 2
Fore
SplineSet
49 0 m 0
 34.2585343873 0 26.4937534679 5.16791458766 26.4937534679 10.7751664068 c 0
 26.4937534679 16.1987243474 33.7581184136 22.0333056018 49 24 c 0
 107 31 122 54 125 110 c 0
 127 151 128 236 128 366 c 0
 128 476 127 612 125 640 c 0
 122 697 107 719 49 726 c 0
 33.7581184136 727.966694398 26.4937534679 733.801275653 26.4937534679 739.224833593 c 0
 26.4937534679 744.832085412 34.2585343873 750 49 750 c 0
 90 750 121 743 178 743 c 0
 246 743 277 747 314 750 c 0
 315.169310206 750.086615571 316.289855741 750.128217599 317.361392925 750.128217599 c 0
 328.773477415 750.128217599 334.626704264 745.409435017 334.626704264 740.093038763 c 0
 334.626704264 734.382219185 327.872758812 727.981822687 314 726 c 0
 252 718 237 686 236 641 c 0
 234 552 232 461 232 366 c 0
 232 242 234 159 236 109 c 0
 238 64 254 31 314 24 c 0
 327.872758812 22.0181773125 334.626704264 15.6177808149 334.626704264 9.90696123734 c 0
 334.626704264 4.59056498309 328.773477415 -0.128217598987 317.361392925 -0.128217598987 c 0
 316.289855741 -0.128217598987 315.169310206 -0.0866155708182 314 0 c 0
 277 3 246 7 183 7 c 0
 121 7 90 0 49 0 c 0
EndSplineSet
Validated: 1
EndChar

StartChar: J
Encoding: 74 74 11
Width: 353
GlyphClass: 1
Flags: HMW
HStem: -194 108 730 20G<30.5 65.5>
VStem: 124 105
LayerCount: 2
Fore
SplineSet
229 215 m 2
 228 148 205 54 143 -41 c 0
 66 -154 15 -194 -29 -194 c 0
 -71.6592865565 -194 -112.862721329 -142.317261682 -112.862721329 -111.615335198 c 0
 -112.862721329 -106.332217202 -111.64265684 -101.670356722 -109 -98 c 0
 -99.6794494718 -87.4367094013 -78.7758773236 -85.7537353779 -52.0471575971 -85.7537353779 c 0
 -39.5470603308 -85.7537353779 -25.7729396692 -86.1218201776 -11.3137312918 -86.1218201776 c 0
 -6.93324082669 -86.1218201776 -2.48987179598 -86.0880367019 2 -86 c 0
 73 -85 125 -38 125 63 c 2
 124 360 l 2
 124 490 124 612 122 640 c 0
 119 697 101 720 45 726 c 0
 29.7581184136 727.966694398 22.4937534679 733.801275653 22.4937534679 739.224833593 c 0
 22.4937534679 744.832085412 30.2585343873 750 45 750 c 0
 86 750 123 743 174 743 c 0
 231 743 273 747 311 750 c 0
 312.169310206 750.086615571 313.291731305 750.128217599 314.366775938 750.128217599 c 0
 325.924835476 750.128217599 332.006692164 745.319476809 332.006692164 739.941572104 c 0
 332.006692164 734.269511005 325.241318655 727.964319815 311 726 c 0
 247 719 234 686 233 641 c 0
 231 552 229 458 229 261 c 2
 229 215 l 2
EndSplineSet
Validated: 1
EndChar

StartChar: K
Encoding: 75 75 12
Width: 640
GlyphClass: 1
Flags: HMW
HStem: -16 21G<544.5 627> 1 24<50 50 328 328> 354 53 726 24<323 323> 729 21<397 397>
VStem: 129 104<302.5 341 277 422> 129 106.5 431 188
LayerCount: 2
Fore
SplineSet
600 -16 m 0xb3
 489 -16 445 45 272 338 c 0
 265.705983732 348.490027113 257.827381834 353.698102122 250.802138418 353.698102122 c 0
 241.084709627 353.698102122 233 343.733563127 233 324 c 0
 233 230 235 158 237 113 c 0
 239 68 260 34 328 25 c 0
 342.241318655 23.0356801855 349.006692164 16.7304889955 349.006692164 11.0584278955 c 0
 349.006692164 5.68052319077 342.924835476 0.871782401013 331.366775938 0.871782401013 c 0
 330.291731305 0.871782401013 329.169310206 0.913384429182 328 1 c 0
 290 4 233 9 189 9 c 0x74
 138 9 91 1 50 1 c 0
 35.2585343873 1 27.4937534679 6.42631031705 27.4937534679 12.1563054819 c 0
 27.4937534679 17.6985856895 34.7581184136 23.5249792013 50 25 c 0
 107 31 123 55 126 111 c 0
 128 152 129 238 129 367 c 0
 129 477 127 612 126 640 c 0
 124 697 103 720 45 727 c 0
 30.1270912675 728.487290873 22.8734112451 734.152868459 22.8734112451 739.48829894 c 0
 22.8734112451 744.914913551 30.3771451081 750 45 750 c 0
 86 750 131 743 184 743 c 0
 233 743 289 747 323 750 c 0
 324.126002421 750.086615571 325.208866863 750.128217599 326.247862288 750.128217599 c 0
 337.530770475 750.128217599 343.640318164 745.222197292 343.640318164 739.779030234 c 0
 343.640318164 734.149574422 337.105423958 727.945575718 323 726 c 0
 260 718 238 686 237 641 c 2x72
 234 435 l 2
 233.433353341 415.167366944 240.893917579 406.251740707 250.559494655 406.251740707 c 0
 257.951420569 406.251740707 266.632993199 411.466226492 274 421 c 0
 320 480 337 509 371 562 c 0x6b
 410.427964332 624.620884528 431.701413947 667.74247547 431.701413947 694.678641154 c 0
 431.701413947 714.198317092 420.529911726 725.218407044 397 729 c 0
 382.51838401 730.551601713 374.724178788 736.115649887 374.724178788 741.1266174 c 0
 374.724178788 745.804284806 381.516017133 750 396 750 c 0
 441 750 473 743 505 743 c 0
 545 743 559 749 597 750 c 0
 611.354663937 750 619.208235055 744.912188229 619.208235055 739.545376416 c 0
 619.208235055 734.817635018 613.113681843 729.87338312 600 728 c 0
 530 716 467 658 421 588 c 0
 398 553 377 518 348 472 c 0
 340.271845259 460.204395395 336.8451691 449.23599821 336.8451691 438.35459101 c 0
 336.8451691 422.483591751 344.134899727 406.797650409 356 389 c 0
 431 279 521 143 638 13 c 0
 645.344603056 4.60616793625 649.508881746 -1.46358093727 649.508881746 -5.80817533989 c 0
 649.508881746 -13.885829187 635.113877857 -16 600 -16 c 0xb3
EndSplineSet
Validated: 33
EndChar

StartChar: L
Encoding: 76 76 13
Width: 587
GlyphClass: 1
Flags: HMW
HStem: 0 26<370.5 372.5 292.5 490.5> 725 24<49 49 317 317>
VStem: 128 104<304 409.5 304 421>
LayerCount: 2
Fore
SplineSet
49 0 m 0
 34.3771451081 0 26.8734112451 5.08508644921 26.8734112451 10.6399053384 c 0
 26.8734112451 16.1013858639 34.1270912675 22.0169455023 49 24 c 0
 102 30 122 51 125 106 c 0
 127 150 128 236 128 366 c 0
 128 476 127 610 125 639 c 0
 122 700 100 719 49 725 c 0
 34.6271636347 726.982460188 27.6233555162 732.895068775 27.6233555162 738.355184222 c 0
 27.6233555162 743.911916385 34.8772213182 749 49 749 c 0
 85 749 137 742 176 742 c 0
 237 742 275 746 316 749 c 0
 316.626522462 749.023204536 317.239583663 749.034563161 317.839121129 749.034563161 c 0
 330.510012292 749.034563161 337.140328254 743.961065853 337.140328254 738.414049191 c 0
 337.140328254 732.912665823 330.618653977 726.945521997 317 725 c 0
 252 717 237 685 236 640 c 0
 234 551 232 453 232 366 c 0
 232 242 234 151 236 101 c 0
 238 56 257 26 328 26 c 0
 417 26 490 90 545 180 c 0
 554.04232826 192.659259564 562.062610266 198.573013848 567.397344025 198.573013848 c 0
 571.647330281 198.573013848 574.192873426 194.819717755 574.192873426 187.733675586 c 0
 574.192873426 184.041003124 573.501592502 179.44327282 572 174 c 0
 543 42 528 0 453 0 c 0
 288 0 241 7 173 7 c 0
 132 7 85 0 49 0 c 0
EndSplineSet
Validated: 1
EndChar

StartChar: M
Encoding: 77 77 14
Width: 842
GlyphClass: 1
Flags: HMW
HStem: -15 21G 0 24<47 47 258 258 512 512> 626 124 634 116
VStem: 129 35 378 24<-2 -2> 606 104<305 410.5>
LayerCount: 2
Fore
SplineSet
186 607 m 2x5a
 180.460134458 625.130469046 174.920268916 633.876358934 170.785519772 633.876358934 c 0
 166.710278936 633.876358934 164 625.380403374 164 609 c 0
 164 465 161.44 383.08 161.44 306.408 c 0
 161.44 287.24 161.6 268.4 162 249 c 0
 165 106 188 34 258 24 c 0
 272.606079858 21.5656533569 279.389782193 15.3386388236 279.389782193 9.81988221916 c 0
 279.389782193 4.51592661788 273.123873505 -0.133831719 261.514108683 -0.133831719 c 0
 260.392351017 -0.133831719 259.220704213 -0.0904225342772 258 0 c 0
 220 3 181 8 149 8 c 0
 121 8 88 0 47 0 c 0
 32.2585343873 0 24.4937534679 4.90951885828 24.4937534679 10.3940273316 c 0
 24.4937534679 15.6988630053 31.7581184136 21.5416320022 47 24 c 0
 105 33 126 95 129 250 c 0
 129.898979486 296.746933249 130.393876913 364.304092472 130.393876913 431.693127176 c 0
 130.393876913 514.227501817 129.651530772 596.50968968 128 640 c 0
 126 697 104 720 47 727 c 0
 31.7581184136 728.475020799 24.4937534679 734.059671382 24.4937534679 739.356182964 c 0
 24.4937534679 744.832085412 32.2585343873 750 47 750 c 2
 241 750 l 2
 251 750 260 744 263 735 c 2
 420 243 l 2
 422.5 234.5 426.5 230.25 430.5 230.25 c 0
 434.5 230.25 438.5 234.5 441 243 c 2
 589 735 l 2
 591 744 599 750 609 750 c 2
 797 750 l 2
 811.622854892 750 819.126588755 745.169167873 819.126588755 739.866449073 c 0
 819.126588755 734.652832565 811.872908733 728.983054498 797 727 c 0
 737 718 715 695 713 640 c 0
 712 612 710 477 710 367 c 0
 710 238 711 151 713 110 c 0
 716 55 737 32 797 25 c 0
 811.872908733 22.5211818779 819.126588755 16.3556401864 819.126588755 10.7681096165 c 0
 819.126588755 5.08508644921 811.622854892 8.881784197e-16 797 0 c 0
 753 0 717 8 644 8 c 0
 592 8 550 3 512 0 c 0
 510.830689794 -0.0866155708182 509.708268695 -0.128217598987 508.633224062 -0.128217598987 c 0
 497.075164524 -0.128217598987 490.993307836 4.68052319077 490.993307836 10.0584278955 c 0
 490.993307836 15.7304889955 497.758681345 22.0356801855 512 24 c 0
 577 31 600 64 602 109 c 0x5a
 604 159 606 243 606 367 c 0
 606 454 604 539 602 597 c 0
 601.521553322 616.616313795 599.211816855 625.931622527 595.618399672 625.931622527 c 0
 591.701226127 625.931622527 586.258639865 614.862132883 580 594 c 2
 402 -2 l 2
 399.5 -10.5 394.75 -14.75 390 -14.75 c 0
 385.25 -14.75 380.5 -10.5 378 -2 c 2xae
 186 607 l 2x5a
EndSplineSet
Validated: 1
EndChar

StartChar: N
Encoding: 78 78 15
Width: 681
GlyphClass: 1
Flags: HMW
HStem: -14 21G 0 21G<37.5 70> 605 145
VStem: 131 33<258 258> 529 29
LayerCount: 2
Fore
SplineSet
52 0 m 0x78
 37.1440870921 0 29.1111847152 4.98604615719 29.1111847152 10.6563007966 c 0
 29.1111847152 16.0548633724 36.3927314845 22.0736371534 52 25 c 0x78
 104 34 128 79 131 258 c 0
 131.464816242 286.353790732 131.65956481 317.786352936 131.65956481 350.188751688 c 0
 131.65956481 457.206604891 129.535183758 574.803752211 128 627 c 0
 126 683 103 716 47 726 c 0
 32.1270912675 728.974581747 24.8734112451 734.898542349 24.8734112451 740.116394928 c 0
 24.8734112451 745.423422196 32.3771451081 750 47 750 c 2
 192 750 l 2
 213 750 224 743 236 723 c 0
 344 533 422 403 508 261 c 0
 515.576474913 249.382738467 520.601706621 243.123087663 523.84887233 243.123087663 c 0
 527.030485993 243.123087663 528.505098328 249.132556516 529 262 c 0
 531.211145618 347.681892698 531.894427191 400.056349214 531.894427191 440.069014855 c 0
 531.894427191 472.439941349 531.447213595 496.719970675 531 524 c 0
 530 641 510 710 433 727 c 0
 418.127091267 729.974581747 410.873411245 735.652760777 410.873411245 740.622749339 c 0
 410.873411245 745.677676518 418.377145108 750 433 750 c 0
 484 750 511 742 551 742 c 0
 574 742 609 747 638 750 c 0
 639.175492946 750.090422534 640.301928483 750.133831719 641.378752125 750.133831719 c 0
 652.431032761 750.133831719 658.256939689 745.560883617 658.256939689 740.311953348 c 0
 658.256939689 734.760875353 651.741006921 728.453751236 638 726 c 0
 580 716 564 632 563 525 c 2
 562 367 l 2
 562 275 558 153 558 7 c 0
 558 -6.54785609783 554.813465194 -14.0412960635 549.879419414 -14.0412960635 c 0
 546.072812957 -14.0412960635 541.226071951 -9.58113191032 536 0 c 0xb8
 449 160 212 549 185 590 c 0
 178.70221687 599.446674695 173.230726914 605.037314578 169.452832667 605.037314578 c 0
 166.032204827 605.037314578 164 600.454064261 164 590 c 0
 164 486.666666667 163.555555556 422 163.555555556 357.777777778 c 0
 163.555555556 325.666666667 163.666666667 293.666666667 164 257 c 0
 164 96 188 38 268 24 c 0
 281.5 21.5 288.25 15 288.25 9.375 c 0
 288.25 4.25862675531 282.665514628 -0.133831719 271.496543885 -0.133831719 c 0
 270.386218841 -0.133831719 269.220704213 -0.0904225342772 268 0 c 0
 220 3 174 7 149 7 c 0
 124 7 88 0 52 0 c 0x78
EndSplineSet
Validated: 1
EndChar

StartChar: O
Encoding: 79 79 16
Width: 676
GlyphClass: 1
Flags: HMW
HStem: -15 34<291.5 398.5 291.5 427.5> 731 34<276.5 383.5>
VStem: 43 120<264.5 492.5 264.5 497.5> 512 120<263 490>
AnchorPoint: "top" 336 824 basechar 0
LayerCount: 2
Fore
SplineSet
338 -15 m 0
 159 -15 43 136 43 376 c 0
 43 619 159 765 338 765 c 0
 517 765 632 619 632 378 c 0
 632 136 517 -15 338 -15 c 0
345 19 m 0
 452 19 512 150 512 376 c 0
 512 604 437 731 330 731 c 0
 223 731 163 606 163 379 c 0
 163 150 238 19 345 19 c 0
EndSplineSet
Validated: 1
EndChar

StartChar: P
Encoding: 80 80 17
Width: 560
GlyphClass: 1
Flags: HMW
HStem: 0 24<49 49 326 326> 337 29<260.5 311.5 258.5 350.5> 721 29<290.5 330.5>
VStem: 128 104<301 305.5 400 418> 424 112<476.5 606>
LayerCount: 2
Fore
SplineSet
49 0 m 0
 34.3771451081 0 26.8734112451 5.08508644921 26.8734112451 10.6399053384 c 0
 26.8734112451 16.1013858639 34.1270912675 22.0169455023 49 24 c 0
 102 30 122 50 125 106 c 0
 127 147 128 236 128 366 c 0
 128 476 127 611 125 640 c 0
 122 699 104 720 49 726 c 0
 33.7581184136 727.966694398 26.4937534679 733.801275653 26.4937534679 739.224833593 c 0
 26.4937534679 744.832085412 34.2585343873 750 49 750 c 0
 88 750 124 743 175 743 c 0
 214 743 260 750 321 750 c 0
 456 750 536 681 536 551 c 0
 536 400 426 337 275 337 c 0
 246 337 232 325 232 286 c 0
 233 213 234 150 236 109 c 0
 238 64 261 31 326 24 c 0
 340.105423958 22.0544242817 346.640318164 15.8504255784 346.640318164 10.2209697655 c 0
 346.640318164 4.77780270799 340.530770475 -0.128217598987 329.247862288 -0.128217598987 c 0
 328.208866863 -0.128217598987 327.126002421 -0.0866155708182 326 0 c 0
 291 3 246 7 192 7 c 0
 121 7 85 0 49 0 c 0
272 366 m 0
 351 366 424 408 424 545 c 0
 424 667 367 721 294 721 c 0
 248 721 238 701 236 641 c 2
 232 418 l 2
 232 382 245 366 272 366 c 0
EndSplineSet
Validated: 1
EndChar

StartChar: Q
Encoding: 81 81 18
Width: 676
GlyphClass: 1
Flags: HMW
HStem: 731 34<276 385.5>
VStem: 44 120<271.5 493 271.5 500> 514 120<298 491.5>
LayerCount: 2
Fore
SplineSet
754 -139 m 0
 768 -143 769 -149 769 -156 c 0
 767 -177 719 -209 663 -209 c 0
 587 -209 511 -119 357 -25 c 0
 338 -13 321 -12 307 -10 c 0
 155 10 44 155 44 382 c 0
 44 618 166 765 340 765 c 0
 508 765 634 618 634 382 c 0
 634 214 578 100 490 35 c 0
 460 13 442 -4 441 -16 c 0
 440 -25 446 -29 456 -34 c 0
 534 -73 659 -110 754 -139 c 0
164 382 m 0
 164 161 235 23 349 23 c 0
 456 23 514 161 514 381 c 0
 514 602 439 731 332 731 c 0
 220 731 164 604 164 382 c 0
EndSplineSet
Validated: 1
EndChar

StartChar: R
Encoding: 82 82 19
Width: 628
GlyphClass: 1
Flags: HMW
HStem: -15 21G<532 620> 0 24<49 49 330 330> 341 28<258.5 282.5> 721 29<308 335.5>
VStem: 128 104<401 415 401 422> 128 105<302.5 305.5 246.5 422> 424 110<499 601>
LayerCount: 2
Fore
SplineSet
596 -15 m 0xba
 468 -15 462 34 320 310 c 0
 308 335 295 341 270 341 c 0
 239 341 233 323 233 288 c 0
 233 205 234 151 236 110 c 0
 238 65 261 31 330 24 c 0
 344.241318655 22.0356801855 351.006692164 15.7304889955 351.006692164 10.0584278955 c 0
 351.006692164 4.68052319077 344.924835476 -0.128217598987 333.366775938 -0.128217598987 c 0
 332.291731305 -0.128217598987 331.169310206 -0.0866155708182 330 0 c 0
 292 3 257 8 186 8 c 0x76
 127 8 90 0 49 0 c 0
 34.2585343873 0 26.4937534679 5.16791458766 26.4937534679 10.7751664068 c 0
 26.4937534679 16.1987243474 33.7581184136 22.0333056018 49 24 c 0x7a
 106 31 122 55 125 111 c 0
 127 152 128 238 128 367 c 0
 128 477 127 612 125 640 c 0
 122 697 106 718 49 726 c 0
 34.1270912675 727.487290873 26.8734112451 733.39865003 26.8734112451 738.981944528 c 0
 26.8734112451 744.660659228 34.3771451081 750 49 750 c 0
 90 750 112 743 171 743 c 0
 238 743 289 750 327 750 c 0
 456 750 534 683 534 550 c 0
 534 448 477 390 396 366 c 0
 384.869306419 362.071519912 378.882931437 356.856960175 378.882931437 349.794949866 c 0
 378.882931437 346.071093654 380.547466813 341.833546462 384 337 c 0
 458 232 540 125 628 14 c 0
 634.550504425 5.62991101222 638.452298466 -0.488774148944 638.452298466 -4.88620626135 c 0
 638.452298466 -12.5723898349 626.531988199 -15 596 -15 c 0xba
272 369 m 0x7a
 358 369 424 415 424 550 c 0
 424 652 373 721 298 721 c 0
 244 721 237 700 236 641 c 0
 235.109611797 599.151754449 231.840850136 517.663951279 231.840850136 442.419563319 c 0
 231.840850136 433.156555865 231.890388203 423.988167337 232 415 c 0
 232 387 245 369 272 369 c 0x7a
EndSplineSet
Validated: 1
EndChar

StartChar: S
Encoding: 83 83 20
Width: 507
GlyphClass: 1
Flags: HMW
HStem: -15 35<222.5 303.5 222.5 311> 730 33<226.5 285>
VStem: 64 89<552.5 642.5> 380 87<112 223.5>
LayerCount: 2
Fore
SplineSet
256 -15 m 0
 179 -15 114 5 64 30 c 0
 55 34 50 42 49 55 c 0
 46.75 103 45.625 142 45.625 177.0625 c 0
 45.625 188.75 45.75 200 46 211 c 0
 46.5262794416 231.524898224 50.3761994914 242.078874623 55.6548327823 242.078874623 c 0
 60.4062954317 242.078874623 66.3153532995 233.52766066 72 216 c 0
 112 97 177 20 268 20 c 0
 339 20 380 66 380 136 c 0
 380 311 64 381 64 593 c 0
 64 692 143 763 266 763 c 0
 318 763 375 750 406 734 c 0
 419 727 424 718 425 708 c 0
 429 670 432 600 433 556 c 0
 433 541.432409366 427.977166938 532.829432993 421.976989383 532.829432993 c 0
 417.268147146 532.829432993 411.957372473 538.127882582 408 550 c 0
 367 674 318 730 252 730 c 0
 201 730 153 697 153 638 c 0
 153 467 467 394 467 181 c 0
 467 43 366 -15 256 -15 c 0
EndSplineSet
Validated: 1
EndChar

StartChar: T
Encoding: 84 84 21
Width: 585
GlyphClass: 1
Flags: HMW
HStem: 0 23<438 438> 0 24<146 146> 725 23<203 204 384.5 420 203 442.5>
VStem: 241 103<339.5 445>
LayerCount: 2
Fore
SplineSet
146 0 m 0x70
 144.830689794 -0.0866155708182 143.708268695 -0.128217598987 142.633224062 -0.128217598987 c 0
 131.075164524 -0.128217598987 124.993307836 4.68052319077 124.993307836 10.0584278955 c 0
 124.993307836 15.7304889955 131.758681345 22.0356801855 146 24 c 0
 212 31 235 63 238 109 c 0x70
 241 165 241 296 241 383 c 0
 241 507 239 610 237 660 c 0
 235 705 219 725 189 725 c 0
 125 725 78 639 47 561 c 0
 40.2858328982 545.653332339 33.3416655931 538.586672001 28.3735835119 538.586672001 c 0
 24.1411469883 538.586672001 21.342908267 543.715493675 21.342908267 553.222914516 c 0
 21.342908267 555.825603672 21.5526109228 558.756429191 22 562 c 0
 28 618 36 679 47 724 c 0
 57 759 71 779 83 779 c 0
 101 779 119 751 203 748 c 0
 230.135462652 747.422649731 282.93759197 746.845299462 331.576624048 746.845299462 c 0
 367.182866759 746.845299462 400.558112383 747.154700538 420 748 c 0
 488 752 510 779 529 779 c 0
 544 779 549 751 553 687 c 0
 556 650 559 601 559 553 c 0
 559 539.236787714 553.956112095 530.797679327 548.170009147 530.797679327 c 0
 543.025620469 530.797679327 537.294519769 537.468692517 534 553 c 0
 513 641 481 725 404 725 c 0
 365 725 350 705 347 653 c 0
 345 610 344 512 344 383 c 0
 344 348.333333333 343.888888889 312.111111111 343.888888889 277.333333333 c 0
 343.888888889 207.777777778 344.333333333 144 347 110 c 0xb0
 350 58 373 30 438 23 c 0
 452.241318655 21.5267601391 459.006692164 15.9538084236 459.006692164 10.6630032874 c 0
 459.006692164 5.17999227191 451.740841252 1.7763568394e-15 438 0 c 0
 389 1 352 7 286 7 c 0
 227 7 184 3 146 0 c 0x70
EndSplineSet
Validated: 1
EndChar

StartChar: U
Encoding: 85 85 22
Width: 694
GlyphClass: 1
Flags: HMW
HStem: -15 48<333 421> 727 23<45 45 320 320 444 444>
VStem: 124 104 540 30<166.5 253 253 297.5>
AnchorPoint: "top" 400 854 basechar 0
LayerCount: 2
Fore
SplineSet
356 -15 m 0
 217 -15 124 47 124 233 c 0
 124 390 122 612 121 640 c 0
 119 701 97 720 45 727 c 0
 29.7581184136 728.475020799 22.4937534679 734.059671382 22.4937534679 739.356182964 c 0
 22.4937534679 744.832085412 30.2585343873 750 45 750 c 0
 88 750 129 743 178 743 c 0
 245 743 281 748 320 750 c 0
 320.632607235 750.024331048 321.251006473 750.036230098 321.855111291 750.036230098 c 0
 333.894943355 750.036230098 340.256939689 745.309850962 340.256939689 740.076083068 c 0
 340.256939689 734.779374859 333.741006921 728.963000989 320 727 c 0
 254 717 233 685 232 640 c 0
 231.109611797 589.247872417 227.840850136 401.342875469 227.840850136 278.8759815 c 0
 227.840850136 263.799617901 227.890388203 249.714968429 228 237 c 0
 229 100 283 33 383 33 c 0
 466 33 540 86 540 247 c 0
 540 348 540 359 538 520 c 0
 536 668 499 719 444 727 c 0
 428.89330661 728.94925076 421.860717586 734.460606388 421.860717586 739.599453365 c 0
 421.860717586 745.005882721 429.64475532 750 444 750 c 0
 485 750 530 743 554 743 c 0
 580 743 626 747 660 750 c 0
 661.175492946 750.090422534 662.299884424 750.133831719 663.372897193 750.133831719 c 0
 674.278456333 750.133831719 679.876768553 745.649809829 679.876768553 740.46561496 c 0
 679.876768553 734.877747027 673.372675496 728.476421388 660 726 c 0
 599 716 570 659 570 521 c 2
 570 253 l 2
 570 65 486 -15 356 -15 c 0
EndSplineSet
Validated: 1
EndChar

StartChar: V
Encoding: 86 86 23
Width: 628
GlyphClass: 1
Flags: HMW
HStem: 726 24
VStem: -1 206 307 24<4.29497e+09 4.29497e+09>
LayerCount: 2
Fore
SplineSet
307 -7 m 0
 256 155 152 487 99 641 c 0
 83 687 71 719 20 726 c 0
 5.05735008989 728.801746858 -1.59941517102 734.656188061 -1.59941517102 739.897804984 c 0
 -1.59941517102 745.350459028 5.60416798942 750.139948533 18.1774121024 750.139948533 c 0
 19.4012937658 750.139948533 20.6760535457 750.094567604 22 750 c 0
 51 747 73 743 116 743 c 0
 166 743 216 750 274 750 c 0
 286.11756801 750 292.626837412 745.411392048 292.626837412 740.352899767 c 0
 292.626837412 735.392565281 286.367735989 729.980405332 273 728 c 0
 223.07883485 722.039263863 205.357072314 709.416582357 205.357072314 681.859018294 c 0
 205.357072314 672.431131664 207.43128824 661.255215107 211 648 c 0
 231 577 297 355 340 231 c 0
 345.652475842 214.607820057 349.707427527 204.605736744 353.790249062 204.605736744 c 0
 356.930495168 204.605736744 360.087228258 210.522675112 364 224 c 0
 405 362 459 546 469 618 c 0
 470.522651346 627.897233751 471.303393213 637.168481379 471.303393213 645.799622016 c 0
 471.303393213 693.853425424 447.102766249 722.065855942 392 728 c 0
 377.144087092 729.536818577 369.111184715 735.272412865 369.111184715 740.501647907 c 0
 369.111184715 745.480322481 376.392731485 750 392 750 c 0
 465 750 503 743 516 743 c 0
 556 743 582 747 602 749 c 0
 603.918236535 749.198438262 605.727090447 749.291869207 607.423957054 749.291869207 c 0
 619.311240938 749.291869207 625.702626894 744.706644706 625.702626894 739.516142495 c 0
 625.702626894 734.246222076 619.114159559 728.352359927 605 726 c 0
 571 720 541 687 524 637 c 0
 466 473 398 234 331 -6 c 0
 328.619764731 -14.5688469681 323.973321488 -18.152036393 319.326195692 -18.152036393 c 0
 314.211417158 -18.152036393 309.095811785 -13.8113883008 307 -7 c 0
EndSplineSet
Validated: 1
EndChar

StartChar: W
Encoding: 87 87 24
Width: 902
GlyphClass: 1
Flags: HMW
HStem: -11 21G -10 21G 497 20G 721 28<506 506> 723 25<245.5 279 227 295.5> 726 24
VStem: 432 95 558 132 758 137
LayerCount: 2
Fore
SplineSet
598 5 m 0x7380
 595.038417388 -5.36553914292 590.85864428 -10.1274020055 586.663271273 -10.1274020055 c 0
 582.359054251 -10.1274020055 578.038417388 -5.11525216321 575 4 c 0x7380
 547 90 503 223 462 339 c 0
 457 352 451 351 447 340 c 0
 412 242 380 161 337 10 c 0
 332.665538965 -4.92981023145 327.635242654 -11.2776520537 322.802761701 -11.2776520537 c 0
 317.601162701 -11.2776520537 312.628752528 -3.92304402183 309 8 c 0
 266 155 160 485 101 640 c 0xa780
 84 685 79 719 11 726 c 0
 -3.22756697003 727.422756697 -9.80801782434 733.343816991 -9.80801782434 738.963187207 c 0
 -9.80801782434 744.700352956 -2.94879117598 750.123047755 9.63450126531 750.123047755 c 0
 10.7144140526 750.123047755 11.8364861411 750.083108133 13 750 c 0
 50 746 56 742 116 742 c 0
 166 742 198 748 256 748 c 0
 302 748 348 741 369 741 c 0
 402.157894737 741 460.44598338 749.077562327 500.500510278 749.077562327 c 0
 502.725761773 749.077562327 504.894736842 749.052631579 507 749 c 0
 547 747 588 743 611 743 c 0
 632 743 638 745 667 748 c 0
 669.224639529 748.317805647 671.297778414 748.46517307 673.214902802 748.46517307 c 0
 684.099799918 748.46517307 689.955333526 743.714561077 689.955333526 738.435984275 c 0
 689.955333526 732.942770377 683.613923883 726.877782604 670 725 c 0
 612 716 598 684 582 640 c 2
 526 478 l 2
 524.607695155 473.358983849 523.861561237 468.07179677 523.861561237 462.638253715 c 0
 523.861561237 456.364138625 524.856406461 449.894882233 527 444 c 2
 606 207 l 2
 609.266499161 196.656085989 612.532998323 190.758012299 615.799497484 190.758012299 c 0
 624 204 l 0
 665 340 696 431 735 573 c 0
 748.379421613 621.371755064 757.521945648 657.032817391 757.521945648 681.754663202 c 0
 757.521945648 705.074355332 749.387088163 718.660524529 729 724 c 0
 714.127091267 727.966108995 706.873411245 734.390033704 706.873411245 739.859986372 c 0
 706.873411245 745.423422196 714.377145108 750 729 750 c 0
 740 750 780 742 804 742 c 0
 825 742 840 746 871 749 c 0
 873.416666667 749.25 875.666666667 749.368055556 877.743055556 749.368055556 c 0
 888.950091138 749.368055556 895.099559942 745.928910146 895.099559942 741.234423379 c 0
 895.099559942 736.361404002 888.473465207 730.135745718 874 725 c 0
 840 713 802 663 762 542 c 0
 708 369 685 307 642 159 c 0
 623 98 613 63 598 5 c 0x7380
353 212 m 0
 356.091287885 202.284523789 358.597510824 198.029653744 361.035412869 198.029653744 c 0
 364.117965387 198.029653744 367.091287885 204.832251101 371 216 c 0
 391 276 420 356 432 404 c 0
 433.045836543 408.183346174 433.484020823 412.002100989 433.484020823 415.62573243 c 0
 433.484020823 422.396549713 431.954163457 428.486121811 430 435 c 0
 402 524 379 590 358 646 c 0
 339 696 319 723 272 723 c 0
 231.709940603 723 212.223868356 703.929678446 212.223868356 668.864170111 c 0
 212.223868356 657.802371374 214.163036799 645.148801803 218 631 c 0x6b80
 236 564 307 350 353 212 c 0
501 525 m 0
 504 515 509 514 513 525 c 2
 551 641 l 2
 555.618359577 656.556579627 557.755200324 669.277137733 557.755200324 679.621245098 c 0
 557.755200324 711.832949307 537.034066177 721 506 721 c 0
 470.569285682 721 456.374543203 708.93410691 456.374543203 682.455244277 c 0
 456.374543203 670.819662416 459.115518217 656.400966351 464 639 c 0
 471 614 485 574 501 525 c 0
EndSplineSet
Validated: 1
EndChar

StartChar: X
Encoding: 88 88 25
Width: 686
GlyphClass: 1
Flags: HMW
HStem: 0 24<392 392> 322 138 724 25 725 24
VStem: -1 201 292 104 469 187
LayerCount: 2
Fore
SplineSet
24 0 m 0xde
 22.7873820085 -0.0866155708182 21.6103997384 -0.128217598987 20.4706777201 -0.128217598987 c 0
 6.67827539836 -0.128217598987 -1.6574562396 5.96429534729 -1.6574562396 12.1032932362 c 0
 -1.6574562396 17.170608881 4.02197271648 22.2695963622 17 24 c 0
 88 31 171 144 216 225 c 0
 246 279 270 319 286 351 c 0
 289.616280349 358.232560698 291.63123618 364.397571717 291.63123618 370.735926998 c 0
 291.63123618 376.666666667 289.867108173 382.749172176 286 390 c 0
 233 488 171 598 148 640 c 0xee
 115 698 91 717 38 724 c 0
 23.271797466 725.90041323 16.4439052815 731.638120059 16.4439052815 737.137931458 c 0
 16.4439052815 743.214152707 24.7779959189 749 40 749 c 0
 73 749 118 742 158 742 c 0
 218 742 290 746 326 749 c 0
 327.126002421 749.086615571 328.193862349 749.128217599 329.204229596 749.128217599 c 0
 338.57321197 749.128217599 342.998644919 745.551037316 342.998644919 741.116788245 c 0
 342.998644919 734.987407225 334.542959138 727.220422734 319 725 c 0
 276.695674245 720.444149534 260.230168521 704.4514443 260.230168521 681.708541452 c 0
 260.230168521 669.507294766 264.96922296 655.363225643 273 640 c 2
 361 475 l 2
 366.335705707 465.395729727 370.817318753 460.061922763 375.356276555 460.061922763 c 0
 379.324080652 460.061922763 383.335705707 464.137840844 388 473 c 0
 417 528 433 563 441 577 c 0
 457 606.5 468.75 641.25 468.75 669.75 c 0
 468.75 698.25 457 720.5 426 725 c 0
 410.457040862 727.775528418 402.001355081 735.481333953 402.001355081 741.446406036 c 0
 402.001355081 745.741332696 406.384935197 749.133831719 415.662879304 749.133831719 c 0
 416.712379928 749.133831719 417.824507054 749.090422534 419 749 c 0
 455 746 485 742 525 742 c 0
 565 742 597 749 630 749 c 0
 646.470031888 749 656.811672507 742.549061822 656.811672507 736.241836621 c 0
 656.811672507 731.44346518 650.82617171 726.728271464 637 725 c 0
 585 719 522 649 480 577 c 2
 401 432 l 2
 397.5 425 395.75 418.75 395.75 412.75 c 0
 395.75 406.75 397.5 401 401 395 c 2
 417 367 l 2
 487 242 534 160 565 109 c 0
 593 63 612 37 678 24 c 0
 690.276521241 21.3693168769 695.824784724 16.0473306503 695.824784724 11.0683123147 c 0
 695.824784724 5.22825926073 688.191645022 -0.139948533389 674.829506602 -0.139948533389 c 0
 673.600941992 -0.139948533389 672.323946454 -0.0945676038786 671 0 c 0
 638 3 587 7 527 7 c 0
 487 7 433 0 392 0 c 0
 377.131752211 0 369.360709407 5.25718887824 369.360709407 10.9199343433 c 0
 369.360709407 16.3021768829 376.380945989 22.0507927986 391 24 c 0
 428.006424393 27.4265207772 447.636102725 39.3065936924 447.636102725 65.111625687 c 0
 447.636102725 76.9614536406 443.496787803 91.747641015 435 110 c 0
 419 143 385 211 333 306 c 0
 327.607693231 316.245382862 322.796925907 321.838450157 317.783738257 321.838450157 c 0
 313.5 321.838450157 309.068462554 317.754617138 304 309 c 0
 271 251 244 207 228 173 c 0
 212.309885275 139.168190124 199.985508637 104.615150658 199.985508637 77.1207519228 c 0
 199.985508637 48.5403051293 213.302758131 27.5871552336 250 23 c 0
 266.13893771 20.8481416387 274.753322008 14.3551947707 274.753322008 8.81462370291 c 0
 274.753322008 4.05605767608 268.399026881 1.7763568394e-15 255 0 c 0
 197 0 146 7 106 7 c 0
 66 7 62 3 24 0 c 0xde
EndSplineSet
Validated: 1
EndChar

StartChar: Y
Encoding: 89 89 26
Width: 646
GlyphClass: 1
Flags: HMW
HStem: 0 23<476 476> 0 24<176 176> 724 25<29 29>
VStem: 270 102<239 250> 480 153
AnchorPoint: "top" 350 803 basechar 0
LayerCount: 2
Fore
SplineSet
176 0 m 0x70
 161.258534387 0 153.493753468 5.16791458766 153.493753468 10.7751664068 c 0
 153.493753468 16.1987243474 160.758118414 22.0333056018 176 24 c 0
 244 30 264 52 267 108 c 0x70
 269 139 270 193 270 239 c 0
 270 261 268 274 257 308 c 0
 225 401 142 601 122 640 c 0
 101 684 71 716 29 724 c 0
 14.6271636347 726.973690282 7.62335551618 733.631894688 7.62335551618 739.348491594 c 0
 7.62335551618 744.645315016 13.6363400933 749.133739452 25.3717809225 749.133739452 c 0
 26.5259306338 749.133739452 27.7354291133 749.090326492 29 749 c 0
 63 746 102 742 150 742 c 0
 223 742 252 749 293 749 c 0
 307.622854892 749 315.126588755 743.914913551 315.126588755 738.360094662 c 0
 315.126588755 732.898614136 307.872908733 726.983054498 293 725 c 0
 252.468059786 720.578333795 230.4010776 708.010362577 230.4010776 678.0909135 c 0
 230.4010776 667.411030531 233.212776086 654.520282315 239 639 c 0
 264 571 307 461 342 371 c 0
 347.689430196 356.000593121 352.041272955 348.224158396 356.577550348 348.224158396 c 0
 360.811756046 348.224158396 365.206651122 354.999406879 371 369 c 0
 407 455 451 547 472 609 c 0
 477.548830677 625.394272455 480.234999196 640.389021188 480.234999196 653.80775256 c 0
 480.234999196 693.591597973 456.623484155 719.522195762 414 727 c 0
 399.634003546 729.394332742 392.835341743 734.769736711 392.835341743 739.722089294 c 0
 392.835341743 745.111558662 400.887129905 750 416 750 c 0
 480 750 509 742 541 742 c 0
 581 742 594 749 613 749 c 0
 626.386672001 749 632.916086836 745.342796178 632.916086836 740.651127178 c 0
 632.916086836 735.529548195 625.13523257 729.175236571 610 725 c 0
 569 714 543 684 524 640 c 0
 486 551 416 389 383 307 c 0
 375 287 372 271 372 239 c 2
 375 110 l 2xb8
 376 67 399 33 477 23 c 0
 490.843878029 21.0904995822 497.167485377 15.3069203284 497.167485377 10.0007652716 c 0
 497.167485377 4.69471810393 490.84413518 -0.133924281359 479.394025129 -0.133924281359 c 0
 478.308428583 -0.133924281359 477.176746935 -0.0905189949791 476 0 c 0
 427 3 385 7 318 7 c 0
 263 7 229 0 176 0 c 0x70
EndSplineSet
Validated: 1
EndChar

StartChar: Z
Encoding: 90 90 27
Width: 545
GlyphClass: 1
Flags: HMW
HStem: 0 27 723 26<229 456>
VStem: 22 148 348 143
LayerCount: 2
Fore
SplineSet
59 0 m 0
 32.6683041662 0 22.0793605565 5.75541479163 22.0793605565 19.0073959338 c 0
 22.0793605565 37.964764256 43.7487718754 72.2632455085 72 127 c 0
 135 249 253 470 329 617 c 0
 340.689032445 639.623933764 347.686176416 660.257369387 347.686176416 677.184767896 c 0
 347.686176416 705.149823596 328.588886107 723 280 723 c 0
 178 723 109 607 84 560 c 0
 76.9923072371 546.86057607 69.9846144742 540.626930588 64.8252873719 540.626930588 c 0
 59.9387655242 540.626930588 56.7103083065 546.218782519 56.7103083065 556.831434531 c 0
 56.7103083065 560.597270749 57.1168171925 564.995297424 58 570 c 0
 70 636 90 704 113 771 c 0
 120.776168833 791.337672332 128.194534105 799.152220048 135.041069594 799.152220048 c 0
 139.640396878 799.152220048 143.981668333 795.625664334 148 790 c 0
 173.52 751.28 240.8576 748.9568 310.487424 748.9568 c 0
 319.9824 748.9568 329.52 749 339 749 c 2
 456 749 l 2
 481.563315416 749 491.215348339 742.501025461 491.215348339 729.927432285 c 0
 491.215348339 715.940541407 479.271552832 694.436684584 464 666 c 2
 186 126 l 2
 175.139632324 105.159835 169.620937647 88.024378693 169.620937647 74.2142989115 c 0
 169.620937647 40.9750552118 201.591204366 27 268 27 c 0
 378 27 450 126 491 202 c 0
 499.45167538 217.124050679 507.309742864 223.541852229 512.813858161 223.541852229 c 0
 517.656033247 223.541852229 520.676396286 218.57487446 520.676396286 210.199035209 c 0
 520.676396286 206.692149466 520.146920977 202.587683907 519 198 c 0
 508 138 494 89 483 57 c 0
 468 15 452 0 407 0 c 2
 224 2 l 2
 160 2 122 0 59 0 c 0
EndSplineSet
Validated: 1
EndChar

StartChar: a
Encoding: 97 97 28
Width: 488
GlyphClass: 1
Flags: HMW
HStem: -15 55<122 234> -14 42 499 31<234 256.5>
VStem: 47 101<86 118> 296 95<126 220 220 228 326 408>
AnchorPoint: "top" 246 572 basechar 0
LayerCount: 2
Fore
SplineSet
153 -15 m 0xb8
 91 -15 47 20 47 76 c 0xb8
 47 160 158 208 230 248 c 0
 288 280 296 294 296 326 c 2
 296 422 l 2
 296 476 275 499 238 499 c 0
 193 499 168 461 158 408 c 0
 145 336 111 319 76 319 c 0
 57.2250155806 319 39.578031289 329.152001151 39.578031289 350.303130845 c 0
 39.578031289 357.315978842 41.517988782 365.537976318 46 375 c 0
 83 453 189 530 279 530 c 0
 354 530 391 485 391 408 c 2
 391 93 l 2
 391 54 406 29 432 28 c 0
 433.282202113 27.8931498239 434.495902465 27.8433844485 435.656959811 27.8433844485 c 0
 445.362120834 27.8433844485 451.389052289 31.3205505282 463 34 c 0
 464.813345818 34.5440037453 466.725338327 34.8249496463 468.527283535 34.8249496463 c 0
 472.956570157 34.8249496463 476.720945339 33.1274601044 476.720945339 29.4668127001 c 0
 476.720945339 26.4040205276 474.085753968 21.9669507102 467 16 c 0
 445 -2 422 -14 390 -14 c 0
 358 -14 337 -4 315 30 c 0
 306 44 303 52 295 52 c 0x78
 289 52 284 47 280 43 c 0
 244 10 212 -15 153 -15 c 0xb8
208 40 m 0
 260 40 296 79 296 126 c 2
 296 220 l 2
 296 236 292 244 281 244 c 0
 272 244 251 232 236 222 c 0
 186 191 148 147 148 105 c 0
 148 67 169 40 208 40 c 0
EndSplineSet
Validated: 1
EndChar

StartChar: b
Encoding: 98 98 29
Width: 563
GlyphClass: 1
Flags: HMW
HStem: -15 33<262.5 330.5 262.5 366> -10 21G 467 63<304.5 337.5> 809 20G
VStem: 68 101 68 103.5 421 102<188.5 312>
LayerCount: 2
Fore
SplineSet
21 770 m 0xba
 8.54049180558 771.03829235 1.47123862668 776.119275961 1.47123862668 781.465204966 c 0
 1.47123862668 786.416816933 7.53609289349 791.595730874 21 794 c 0
 61 801 125 812 151 826 c 0
 154.935517403 828.295718485 158.978592426 829.408303154 162.600106464 829.408303154 c 0
 169.618921921 829.408303154 175.054275134 825.229226155 175.054275134 817.384657619 c 0
 175.054275134 813.360355606 169 546.436145759 169 415 c 0
 169 403 181 398 187 413 c 0
 214 481 264 530 345 530 c 0
 437 530 523 447 523 281 c 0
 523 96 428 -15 304 -15 c 0
 208 -15 184 55 151 55 c 0xba
 132 55 118 38 96 7 c 0
 88.1296296296 -4.57407407407 81.1165980796 -10.3611111111 76.0524246812 -10.3611111111 c 0
 70.9259790792 -10.3611111111 67.7966150363 -4.430877072 67.7966150363 7.42959100623 c 0
 67.7966150363 9.16014233067 67.8632376089 11.0169453286 68 13 c 0x7a
 75.8395213703 146.271863295 78.2241822096 302.817798189 78.2241822096 447.769108184 c 0
 78.2241822096 543.185410053 77.1908796838 633.577620027 76 709 c 0
 75 753 54 767 21 770 c 0xba
172 164 m 0xb6
 176 73 230 18 295 18 c 0
 366 18 421 103 421 242 c 0
 421 382 376 467 299 467 c 0
 225 466 174 379 171 266 c 0
 170.585786438 251.502525317 170.343145751 237.51976926 170.343145751 223.625324957 c 0
 170.343145751 203.975613382 170.828427125 184.502525317 172 164 c 0xb6
EndSplineSet
Validated: 1
EndChar

StartChar: c
Encoding: 99 99 30
Width: 465
GlyphClass: 1
Flags: HMW
HStem: -15 70 501 29<216 281.5>
VStem: 39 96<204 335.5>
LayerCount: 2
Fore
SplineSet
250 -15 m 0
 136 -15 39 65 39 254 c 0
 39 417 147 530 274 530 c 0
 336 530 386 503 413 463 c 0
 418.157798255 456.048184961 420.449123312 448.392323872 420.449123312 440.697784193 c 0
 420.449123312 414.080316332 393.029916078 387 362 387 c 0
 305 387 313 501 250 501 c 0
 182 501 135 417 135 285 c 0
 135 124.155788163 202.033169972 54.9892940815 281.289574013 54.9892940815 c 0
 281.859091639 54.9892940815 282.429240413 54.9928655052 283 55 c 0
 333 56 379 80 420 131 c 0
 427.071428571 139.642857143 433.371173469 143.964285714 437.32279519 143.964285714 c 0
 440.026766862 143.964285714 441.63129122 141.940889718 441.63129122 137.894097727 c 0
 441.63129122 132.801012861 439.089813092 124.502980285 433 113 c 0
 391 36 329 -15 250 -15 c 0
EndSplineSet
Validated: 1
EndChar

StartChar: d
Encoding: 100 100 31
Width: 575
GlyphClass: 1
Flags: HMW
HStem: -15 67<226 260.5> 18 25<542 542> 492 38<235.5 282 198.5 301> 770 24<335 335> 809 20G
VStem: 39 104<203.5 339.5> 388 93 389.5 91.5 401 80
LayerCount: 2
Fore
SplineSet
542 43 m 0x7e
 554.852927532 41.4576486962 561.890894399 36.214867879 561.890894399 30.8047865818 c 0
 561.890894399 25.6918152827 555.604721165 20.4294144937 542 18 c 0
 503 11 444 1 413 -15 c 0x7e
 408.736522813 -17.2957184852 404.580603246 -18.4083031542 400.955536182 -18.4083031542 c 0
 393.960171732 -18.4083031542 388.94160609 -14.2652388721 388.94160609 -6.48607144692 c 0
 388.94160609 2.35914976851 401 86.0102889693 401 115 c 0x7c80
 401 126 390 129 384 115 c 0
 351 33 297 -15 224 -15 c 0xbc80
 129 -15 39 67 39 249 c 0
 39 430 142 530 255 530 c 0
 309 530 345 506 362 491 c 0
 370.624767659 483.093962979 376.666666667 479.837089531 380.868251756 479.837089531 c 0
 388.358348823 479.837089531 390 490.187306383 390 503 c 2
 388 722 l 2
 388 752 364 768 335 770 c 0
 322.147072468 771.028234203 315.109105601 776.021214312 315.109105601 781.309921718 c 0
 315.109105601 786.308184717 321.395278835 791.570585506 335 794 c 0
 375 801 427 811 465 826 c 0
 469.320919527 828.520536391 473.771494231 829.874176184 477.651437128 829.874176184 c 0
 484.154327904 829.874176184 489.054275134 826.071709966 489.054275134 817.587576547 c 0
 489.054275134 813.710864011 481 665.145528756 481 430 c 2
 481 259 l 2
 481 205 484 121 488 90 c 0
 492 59 514 46 542 43 c 0x7e
265 52 m 0xbd
 327 52 391 135 390 248 c 2
 389 339 l 2
 386 436 332 492 270 492 c 0
 201 492 143 408 143 272 c 0
 143 135 187 52 265 52 c 0xbd
EndSplineSet
Validated: 33
EndChar

StartChar: e
Encoding: 101 101 32
Width: 480
GlyphClass: 1
Flags: HMW
HStem: -15 70 310 26<165 173 173 243 165 384> 503 27<222.5 276>
VStem: 39 98<200.5 286.5 200.5 335.5> 39 108 341 101
AnchorPoint: "top" 251 570 basechar 0
LayerCount: 2
Fore
SplineSet
240 -15 m 0xf4
 125 -15 39 74 39 244 c 0
 39 427 143 530 262 530 c 0
 377.120454284 530 442.011370167 440.374745207 442.011370167 369.618428992 c 0
 442.011370167 335.710089117 427.626446406 310 384 310 c 2
 173 310 l 2
 149 310 137 301 137 272 c 0
 137 129.941115458 197.199732374 54.9901292997 286.22684603 54.9901292997 c 0
 286.816635208 54.9901292997 287.407689572 54.993418773 288 55 c 0
 347 56 392 82 423 120 c 0
 431.47547768 130.786971592 438.318370771 135.637271953 442.442308403 135.637271953 c 0
 445.20107786 135.637271953 446.743076643 133.466694564 446.743076643 129.450767895 c 0
 446.743076643 123.887252746 443.783626468 114.782088075 437 103 c 0
 388 18 312 -15 240 -15 c 0xf4
179 336 m 0xec
 184.565217391 336 189.952741021 335.998109641 195.16750226 335.998109641 c 0
 309.892249527 335.998109641 341 336.913043478 341 379 c 0
 341 450 303 503 249 503 c 0
 196 503 157 456 147 376 c 0
 146.366750419 371.40894054 146.034254612 367.26901174 146.034254612 363.552439321 c 0
 146.034254612 343.792818265 155.432747065 336 179 336 c 0xec
EndSplineSet
Validated: 1
EndChar

StartChar: f
Encoding: 102 102 33
Width: 349
GlyphClass: 1
Flags: HMW
HStem: 0 22<33 33 300 300> 480 35<283.5 316> 748 101
VStem: 27 162 114 92<417 430 417 432.5>
LayerCount: 2
Fore
SplineSet
33 0 m 0xc8
 18.1440870921 0 10.1111847152 4.72362267523 10.1111847152 9.86903035073 c 0
 10.1111847152 14.7678941727 17.3927314845 20.0490914356 33 22 c 0
 84 28 110 50 113 103 c 0
 115.25 142 116.375 177.0625 116.375 215.359375 c 0
 116.375 228.125 116.25 241.25 116 255 c 2
 114 412 l 2xc8
 114 453 103 479 53 485 c 0
 34.8983482088 487.194139611 26.4251936832 493.600746776 26.4251936832 499.598450534 c 0
 26.4251936832 504.534788946 32.1648376663 509.194139611 43 511 c 0
 100 521 116 539 149 608 c 0
 207 719 299 849 443 849 c 0
 492.605180837 849 526.305728468 803.558190843 526.305728468 782.540014355 c 0
 526.305728468 779.406760697 525.556804034 776.816271373 524 775 c 0
 516 763 487 759 459 757 c 0
 426 755 395 753 359 748 c 0
 253 734 189 654 189 581 c 0
 189 532 215 515 265 515 c 2xf0
 334 515 l 2
 341.253414764 515 344.550405192 512.053726559 344.550405192 507.870823139 c 0
 344.550405192 497.636712103 324.814263197 480 295 480 c 0
 287.333333333 480 280.222222222 480.111111111 273.62962963 480.111111111 c 0
 260.444444444 480.111111111 249.333333333 479.666666667 240 477 c 0
 209 469 206 443 206 417 c 2
 210 105 l 2
 211 53 233 30 300 22 c 0
 313.872758812 20.5136329844 320.626704264 14.6086921586 320.626704264 9.27170561651 c 0
 320.626704264 4.32486865605 314.824132407 -0.134017140754 303.509544885 -0.134017140754 c 0
 302.39325565 -0.134017140754 301.223314346 -0.09061587747 300 0 c 0
 265 3 221 7 158 7 c 0
 103 7 69 0 33 0 c 0xc8
EndSplineSet
Validated: 1
EndChar

StartChar: g
Encoding: 103 103 34
Width: 567
GlyphClass: 1
Flags: HMW
HStem: -204 67<180 268.5> 38 78<345.5 389.5> 162 31<226.5 281.5 226.5 284> 459 86<502 547> 463 10 505 25<214.5 269>
VStem: 28 67<-138 -34> 35 58<83 94.5> 52 106<310.5 393.5> 85 10 333 87 333 105<298 362.5 298 393> 465 67<-57 -10.5>
LayerCount: 2
Fore
SplineSet
174 -204 m 0xee28
 74 -204 28 -168 28 -108 c 0xee28
 28 -76 48 -45 75 -24 c 0
 81 -19 85 -14 85 -10 c 0xec68
 85 -5 79 2 71 10 c 0
 46 32 35 47 35 69 c 0
 35 120 76 148 126 172 c 0xed28
 138.6 178 145.44 184.36 145.44 190.432 c 0
 145.44 194.48 142.4 198.4 136 202 c 0
 80 227 52 281 52 340 c 0
 52 447 136 530 253 530 c 0
 301 530 345 512 376 482 c 0xeca8
 382.710526316 476.078947368 388.953601108 473.118421053 395.897853186 473.118421053 c 0
 406.545706371 473.118421053 418.842105263 480.078947368 437 494 c 0
 470 519 490 545 514 545 c 0
 538 545 567 511 567 482 c 0
 567 467 554 459 540 459 c 0
 518 459 488 463 471 463 c 0
 457 463 443 463 432 458 c 0xf0a8
 423.190080019 453.30137601 419.899426888 443.773393528 419.899426888 433.468077493 c 0
 419.899426888 426.227293125 421.523967992 418.602752021 424 412 c 0
 434 393 438 374 438 351 c 0
 438 245 352 162 216 162 c 0
 144 162 93 135 93 95 c 0
 93 71 106 65 130 65 c 0xf118
 188 65 294 116 397 116 c 0
 480 116 532 78 532 9 c 0
 532 -123 363 -204 174 -204 c 0xee28
229 -137 m 0
 400 -137 465 -88 465 -33 c 0
 465 12 427 38 352 38 c 0
 215 38 95 1 95 -69 c 0
 95 -113 131 -137 229 -137 c 0
254 193 m 0xec98
 309 193 333 235 333 339 c 0
 333 447 296 505 242 505 c 0
 187 505 158 448 158 355 c 0
 158 244 199 193 254 193 c 0xec98
EndSplineSet
Validated: 1
EndChar

StartChar: h
Encoding: 104 104 35
Width: 601
GlyphClass: 1
Flags: HMW
HStem: 0 20<270.5 326> 1 21<586 586> 465 65 770 24<48 48> 810 20G
VStem: 104 86 104 95.5 408 94
LayerCount: 2
Fore
SplineSet
29 0 m 0xbd
 13.7582530374 0 5.74395475615 4.64621700944 5.74395475615 9.74211982884 c 0
 5.74395475615 14.6763720144 13.2578634268 20.0322329283 29 22 c 0xbd
 82 28 101 49 104 103 c 0
 105.540659229 129.576371692 106.339558814 219.053961134 106.339558814 322.349558158 c 0
 106.339558814 487.23941087 104.30384635 687.339558814 100 723 c 0
 97 751 78 767 48 770 c 0
 35.1470724684 771.542351304 28.1091056006 776.256499333 28.1091056006 781.288762946 c 0
 28.1091056006 786.044665494 34.3952788354 791.084702608 48 794 c 0
 90 802 141 812 173 827 c 0
 176.875060976 829.260452236 180.854400407 830.373841463 184.399237796 830.373841463 c 0
 191.071909099 830.373841463 196.205013203 826.428779368 196.205013203 818.763251234 c 0
 196.205013203 814.665148939 190 613.763648337 190 409 c 0
 190 402.11046688 194.212928989 398.591276952 199.215312006 398.591276952 c 0
 203.652027123 398.591276952 208.709748603 401.359569034 212 407 c 0
 251 483 301 530 374 530 c 0
 458 530 502 476 502 374 c 2
 503 102 l 2x7d
 503 55 527 29 586 22 c 0
 599.740841252 20.4732398609 607.006692164 14.2844866771 607.006692164 8.96976445366 c 0
 607.006692164 4.53427498873 601.946017196 0.707549267553 591.364958406 0.707549267553 c 0
 589.711951895 0.707549267553 587.924216675 0.800943102543 586 1 c 0
 559.328232089 2.72075922006 524.513680371 7.40253073352 481.556344847 7.40253073352 c 0
 474.585328951 7.40253073352 467.399880669 7.27924077994 460 7 c 0
 407 6 353 0 299 0 c 0
 242 0 199 7 149 7 c 0
 100 7 67 0 29 0 c 0xbd
297 20 m 0xbb
 371 20 403 49 407 101 c 0
 408.74341649 136.449468635 409.811388301 199.929891476 409.811388301 259.057780222 c 0
 409.811388301 301.674751198 409.25658351 342.030607465 408 368 c 0
 405.090742743 433.943164503 381.492250887 465.090798091 335.380575769 465.090798091 c 0
 333.942304935 465.090798091 332.482131461 465.060495162 331 465 c 0
 256 464 198 378 199 264 c 2
 200 108 l 2
 201 38 226 20 297 20 c 0xbb
EndSplineSet
Validated: 33
EndChar

StartChar: i
Encoding: 105 105 36
Width: 312
GlyphClass: 1
Flags: HMW
HStem: 1 21<283 283> 465 24<44 44> 510 20G 611 132<142.5 177.5>
VStem: 94 132<659.5 694.5> 106 92<231 284.5>
LayerCount: 2
Fore
SplineSet
160 611 m 0xf8
 125 611 94 642 94 677 c 0
 94 712 125 743 160 743 c 0
 195 743 226 712 226 677 c 0
 226 642 195 611 160 611 c 0xf8
26 0 m 4
 11.1440870921 0 3.11118471516 4.72362267523 3.11118471516 9.86903035073 c 0
 3.11118471516 14.7678941727 10.3927314845 20.0490914356 26 22 c 4
 82 28 100 50 103 103 c 4
 106 155 106 201 106 255 c 4
 106 314 103 369 99 411 c 4
 96 442 76 461 44 465 c 4
 31.4376909373 466.570288633 24.0809731432 471.702297607 24.0809731432 476.954224483 c 0
 24.0809731432 481.735982051 30.1794567841 486.617147721 44 489 c 4
 83 496 137 508 178 527 c 4
 181.543601071 529.067100625 185.087202143 530.087775537 188.296042807 530.087775537 c 0
 195.527274803 530.087775537 201.058454148 524.904363597 201.058454148 514.83224177 c 0
 201.058454148 512.233739355 198 549.712027993 198 255 c 4
 198 207 201 155 202 102 c 4
 203 60 223 29 283 22 c 4
 297 20.5 304 14.5 304 9.25 c 0
 304 4.6966991411 298.734590803 0.707549267553 288.20377241 0.707549267553 c 0
 286.59245518 0.707549267553 284.857864376 0.800943102543 283 1 c 4
 254 3 212 7 157 7 c 4xf4
 102 7 67 0 26 0 c 4
EndSplineSet
Validated: 33
EndChar

StartChar: j
Encoding: 106 106 37
Width: 256
GlyphClass: 1
Flags: HMW
HStem: 465 24<33 33> 510 20G 611 132<115.5 150.5>
VStem: 67 132<659.5 694.5> 96 89<114.5 187 187 213>
LayerCount: 2
Fore
SplineSet
-52 -206 m 0xe8
 -90.3499544928 -206 -135.063214598 -165.433926723 -135.063214598 -136.087742632 c 0
 -135.063214598 -132.529430939 -134.405827711 -129.136077203 -133 -126 c 1
 -120 -108 -61 -112 -19 -108 c 0
 56 -103 95 -57 96 49 c 2
 96 187 l 2
 96 239 94 382 90 412 c 0
 85 443 66 461 33 465 c 0
 21.0421870542 466.559714732 14.2200953154 471.633343974 14.2200953154 476.848146663 c 0
 14.2200953154 481.663644864 20.0374325886 486.599524553 33 489 c 0
 78 497 132 509 165 527 c 0
 168.689011157 529.151923175 172.378022314 530.169779407 175.68934866 530.169779407 c 0
 182.72687509 530.169779407 188.058454148 525.572270822 188.058454148 517.492832633 c 0
 188.058454148 513.857775639 185 558.084276723 185 154 c 0
 185 75 174 36 105 -66 c 0
 31 -180 -12 -206 -52 -206 c 0xe8
133 611 m 0xf0
 98 611 67 642 67 677 c 0
 67 712 98 743 133 743 c 0
 168 743 199 712 199 677 c 0
 199 642 168 611 133 611 c 0xf0
EndSplineSet
Validated: 33
EndChar

StartChar: k
Encoding: 107 107 38
Width: 581
GlyphClass: 1
Flags: HMW
HStem: 1 22<282 282> 261 11 497 19 773 24<45 45>
VStem: 107 92<280.5 364.5> 107 95 372 183 393 197
LayerCount: 2
Fore
SplineSet
27 0 m 0xf8
 12.3771451081 0 4.87341124511 4.83083212675 4.87341124511 10.0053466491 c 0
 4.87341124511 15.0929131128 12.1270912675 20.5127091267 27 22 c 0
 81 28 101 50 104 103 c 0
 107 155 107 281 107 335 c 0
 107 394 104 697 100 726 c 0
 96 756 77 769 45 773 c 0
 31.9352969764 774.567764363 24.3325608359 779.6858072 24.3325608359 784.928897698 c 0
 24.3325608359 789.718738085 30.6776436283 794.612940605 45 797 c 0
 87 804 137 814 179 830 c 0
 189 836 202 831 201 819 c 0
 199.062746067 793.169947557 197.959481645 598.457019039 197.959481645 452.70461682 c 0
 197.959481645 372.747214472 198.291502622 307.524196246 199 293 c 0
 199 278.498756211 201.355204 271.736039851 206.846260854 271.736039851 c 0
 210.821731379 271.736039851 216.440895528 275.280796025 224 282 c 0
 260 314 298 349 340 398 c 0
 359.837121919 421.223947612 372.417341049 440.702397011 372.417341049 456.661872297 c 0
 372.417341049 473.687952546 358.09940755 486.708980355 323 496 c 0
 309.935296976 499.135528726 302.332560836 504.728942549 302.332560836 509.069574756 c 0
 302.332560836 512.522171691 307.142678526 515.182155691 317.840243367 515.182155691 c 0
 319.429108872 515.182155691 321.147851137 515.123476591 323 515 c 0
 353.5 513.5 391.5 512.5 429.75 512.5 c 0
 468 512.5 506.5 513.5 538 516 c 0
 538.641730086 516.032086504 539.265957928 516.047700308 539.87248532 516.047700308 c 0
 549.422313693 516.047700308 554.584061234 512.176915539 554.584061234 507.787901733 c 0
 554.584061234 503.768078433 550.254171946 499.313542987 541 497 c 0xfa
 470 480 423 451 340 356 c 0
 334 349.5 330.75 343 330.75 335.375 c 0
 330.75 327.75 334 319 341 308 c 0
 387 237 418 189 445 150 c 0
 478 102 514 48 571 24 c 0
 583.872585749 18.5539060293 590.126837882 12.1273181895 590.126837882 7.39016735495 c 0
 590.126837882 3.40193508819 585.693795896 0.61118335419 577.04497618 0.61118335419 c 0
 575.217517968 0.61118335419 573.201842722 0.735778873301 571 1 c 0
 548 3 517 7 474 7 c 0
 434 7 404 0 352 0 c 0
 337.5 0 330.25 4.25 330.25 9 c 0
 330.25 13.75 337.5 19 352 21 c 0
 381.679603898 24.5820211601 392.767530918 33.6629890021 392.767530918 47.5729258602 c 0
 392.767530918 60.8458429429 382.67191536 78.5155615776 369 100 c 0
 346 137 313 187 269 248 c 0
 262.714285714 257.142857143 256.755102041 261.06122449 250.376093294 261.06122449 c 0
 245.591836735 261.06122449 240.571428571 258.857142857 235 255 c 0
 225 247 221 245 212 236 c 0
 202.692307692 227.538461538 201.976331361 212.633136095 201.976331361 196.736458807 c 0
 201.976331361 193.846153846 202 190.923076923 202 188 c 2
 202 98 l 2
 202 60 221 31 282 23 c 0
 296.741609537 20.5430650772 303.756461678 14.4642126256 303.756461678 9.27217591489 c 0
 303.756461678 4.62898116043 298.146281458 0.695023896403 287.435087298 0.695023896403 c 0
 285.74911117 0.695023896403 283.936753525 0.792490693747 282 1 c 0
 252 3 203 7 149 7 c 0xf5
 100 7 66 0 27 0 c 0xf8
EndSplineSet
Validated: 1
EndChar

StartChar: l
Encoding: 108 108 39
Width: 306
GlyphClass: 1
Flags: HMW
HStem: 0 22<26 26 288 288> 770 24<41 41> 809 20G
VStem: 107 91<321.5 364.5>
LayerCount: 2
Fore
SplineSet
198 366 m 0
 198 277 201 155 202 102 c 0
 203 60 223 29 288 22 c 0
 301.741006921 20.5277492585 308.256939689 14.7204540251 308.256939689 9.42391376602 c 0
 308.256939689 4.41670997895 302.433459891 -0.134017140754 291.385658899 -0.134017140754 c 0
 290.306745391 -0.134017140754 289.178006407 -0.09061587747 288 0 c 0
 253 3 204 7 155 7 c 0
 100 7 64 0 26 0 c 0
 11.3771451081 0 3.87341124511 4.83083212675 3.87341124511 10.0053466491 c 0
 3.87341124511 15.0929131128 11.1270912675 20.5127091267 26 22 c 0
 80 28 101 50 104 103 c 0
 107 155 107 281 107 335 c 0
 107 394 104 693 100 722 c 0
 96 753 76 767 41 770 c 0
 28.4376909373 771.046859089 21.0809731432 776.203395494 21.0809731432 781.597581472 c 0
 21.0809731432 786.508862652 27.1794567841 791.617147721 41 794 c 0
 86 801 147 812 176 826 c 0
 179.875060976 828.260452236 183.958678862 829.373841463 187.678399381 829.373841463 c 0
 195.086126677 829.373841463 201.050648174 824.958173934 201.050648174 816.392798623 c 0
 201.050648174 811.888767324 198 951.00337097 198 366 c 0
EndSplineSet
Validated: 41
EndChar

StartChar: m
Encoding: 109 109 40
Width: 876
GlyphClass: 1
Flags: HMW
HStem: -2 19<565.5 618.5> 0 20<274.5 334.5 270.5 336> 465 65<336.5 345.5 620.5 636> 470 24<52 52>
VStem: 112 82 112 93 400 92 684 92
LayerCount: 2
Fore
SplineSet
596 -2 m 0x67
 535 -2 491 7 450 7 c 0
 409 7 368 0 304 0 c 0
 245 0 203 7 158 7 c 0
 105 7 73 0 34 0 c 0
 18.7582530374 0 10.7439547561 4.64621700944 10.7439547561 9.74211982884 c 0
 10.7439547561 14.6763720144 18.2578634268 20.0322329283 34 22 c 0
 87 28 106 50 109 103 c 0
 112 155 112 201 112 255 c 2
 112 257 l 2
 112 311 109 392 105 422 c 0
 102 450 83 467 52 470 c 0
 38.8773912182 471.514147167 32.1232314468 476.33988782 32.1232314468 481.391535869 c 0
 32.1232314468 486.348785551 38.6273245041 491.523578612 52 494 c 0x57
 98 502 143 511 180 526 c 0x67
 184.263477187 528.295718485 188.419396754 529.408303154 192.044463818 529.408303154 c 0
 199.039828268 529.408303154 204.05839391 525.265238872 204.05839391 517.486071447 c 0
 204.05839391 509.988982791 194 438.627715614 194 409 c 0
 194 402.880143655 197.901316841 399.621252995 202.653192367 399.621252995 c 0
 207.218938546 399.621252995 212.569916201 402.629844373 216 409 c 0x6b
 259 492 304 530 369 530 c 0
 436 530 476 490 484 417 c 0
 485 407 496 404 501 415 c 0
 536 491 587 530 654 530 c 0
 738 530 776 475 776 374 c 2
 777 101 l 2
 777 50 803 28 861 22 c 0
 874.5 20.5 881.25 14.5 881.25 9.125 c 0
 881.25 4.2370603414 875.667888494 -0.134017140754 864.503665483 -0.134017140754 c 0
 863.39120284 -0.134017140754 862.223314346 -0.09061587747 861 0 c 0
 827 3 776 7 736 7 c 0
 701 7 641 -2 596 -2 c 0x67
302 20 m 0
 367 20 394 43 397 103 c 0
 400 156 400 201 400 255 c 2
 398 368 l 2
 395 439 368 465 323 465 c 0
 260 465 203 379 204 268 c 2
 205 102 l 2
 205 39 239 20 302 20 c 0
588 17 m 0xa7
 651 17 678 39 681 104 c 0
 684 156 684 201 684 255 c 2
 682 368 l 2
 680 434 660 465 612 465 c 0
 546 465 490 386 491 279 c 2
 492 102 l 2
 492 40 527 17 588 17 c 0xa7
EndSplineSet
Validated: 33
EndChar

StartChar: n
Encoding: 110 110 41
Width: 606
GlyphClass: 1
Flags: HMW
HStem: 0 20<275.5 331> 1 21<590 590> 465 65 470 24<53 53>
VStem: 109 95 109 96 413 94
LayerCount: 2
Fore
SplineSet
34 0 m 0xa6
 18.7582530374 0 10.7439547561 4.64621700944 10.7439547561 9.74211982884 c 0
 10.7439547561 14.6763720144 18.2578634268 20.0322329283 34 22 c 0
 87 28 106 49 109 103 c 0
 110.540659229 129.576371692 111.339558814 174.548382538 111.339558814 223.116787561 c 0
 111.339558814 300.646105185 109.30384635 387.339558814 105 423 c 0
 102 451 83 467 53 470 c 0
 40.2598814934 471.528814221 33.4927937867 476.433689328 33.4927937867 481.538397696 c 0
 33.4927937867 486.450684784 39.7593279872 491.548023701 53 494 c 0x96
 93 501 145 511 181 527 c 0
 184.875060976 529.260452236 188.854400407 530.373841463 192.399237796 530.373841463 c 0
 199.071909099 530.373841463 204.205013203 526.428779368 204.205013203 518.763251234 c 0
 204.205013203 517.661765711 195 446.039457329 195 409 c 0
 195 401.730369778 199.044453334 398.235562667 203.913175982 398.235562667 c 0
 208.420737269 398.235562667 213.634815111 401.231111619 217 407 c 0
 256 483 307 530 381 530 c 0
 463 530 507 476 507 374 c 2
 508 102 l 2x6a
 508 55 531 29 590 22 c 0
 603.62269686 20.4863670156 610.626704264 14.3905644083 610.626704264 9.10704346358 c 0
 610.626704264 4.61353014714 605.560627153 0.707549267553 595.191440901 0.707549267553 c 0
 593.588052552 0.707549267553 591.857864376 0.800943102543 590 1 c 0
 563.328232089 2.72075922006 529.253933445 7.40253073352 486.503306766 7.40253073352 c 0
 479.565835097 7.40253073352 472.399880669 7.27924077994 465 7 c 0
 412 6 358 0 304 0 c 0
 247 0 204 7 154 7 c 0
 105 7 72 0 34 0 c 0xa6
302 20 m 0
 376 20 408 49 412 101 c 0
 413.74341649 136.449468635 414.811388301 199.929891476 414.811388301 259.057780222 c 0
 414.811388301 301.674751198 414.25658351 342.030607465 413 368 c 0
 410.048299302 434.905215813 383.863166582 465.024164257 339.206972501 465.024164257 c 0
 338.476253758 465.024164257 337.740589303 465.016099767 337 465 c 0
 259 463 203 378 204 264 c 2
 205 108 l 2
 205 39 231 20 302 20 c 0
EndSplineSet
Validated: 33
EndChar

StartChar: o
Encoding: 111 111 42
Width: 535
GlyphClass: 1
Flags: HMW
HStem: -16 39<245 320.5 245 327.5> 495 35<213.5 298.5>
VStem: 38 100<207.5 338.5> 396 102<182.5 297>
AnchorPoint: "top" 275 579 basechar 0
LayerCount: 2
Fore
SplineSet
261 -16 m 0
 159 -16 38 63 38 255 c 0
 38 422 146 530 280 530 c 0
 416 530 498 408 498 264 c 0
 498 101 394 -16 261 -16 c 0
286 23 m 0
 355 23 396 85 396 215 c 0
 396 379 343 495 254 495 c 0
 173 495 138 417 138 287 c 0
 138 128 204 23 286 23 c 0
EndSplineSet
Validated: 1
EndChar

StartChar: p
Encoding: 112 112 43
Width: 575
GlyphClass: 1
Flags: HMW
HStem: -250 22<16 16 279 279> -15 41<296.5 339 276.5 382.5> 465 65<312.5 351.5> 473 24<31 31>
VStem: 95 92.5 95 93 434 101<185 315>
LayerCount: 2
Fore
SplineSet
16 -250 m 0xea
 2.53747742145 -250 -5.02671777261 -245.174095776 -5.02671777261 -239.964601488 c 0
 -5.02671777261 -235.113065185 1.53367989833 -229.92884268 16 -228 c 0
 70 -222 89 -199 92 -149 c 0
 95 -95 95 30 95 84 c 2
 95 256 l 2
 95 310 92 393 88 424 c 0
 84 455 61 469 31 473 c 0
 18.4376909373 474.570288633 11.0809731432 479.702297607 11.0809731432 484.954224483 c 0
 11.0809731432 489.735982051 17.1794567841 494.617147721 31 497 c 0
 72 504 129 514 163 529 c 0
 167.263477187 531.295718485 171.419396754 532.408303154 175.044463818 532.408303154 c 0
 182.039828268 532.408303154 187.05839391 528.265238872 187.05839391 520.486071447 c 0
 187.05839391 519.390042835 182 451.452357689 182 411 c 0xda
 182 400 194 396 199 411 c 0
 223 477 273 530 352 530 c 0
 464 530 535 438 535 280 c 0
 535 90 440 -15 325 -15 c 0
 268 -15 236 10 216 28 c 0
 207.699830508 35.5096771594 201.430514932 38.8014269559 196.883327415 38.8014269559 c 0
 189.925817595 38.8014269559 187 31.0950766743 187 19 c 2
 188 -147 l 2
 188 -192 212 -222 280 -228 c 0
 293.19848487 -229.414123379 299.06457166 -234.82773662 299.06457166 -239.946642374 c 0
 299.06457166 -245.195245053 292.89746283 -250.134017141 282.143859338 -250.134017141 c 0
 281.135777682 -250.134017141 280.08739053 -250.090615877 279 -250 c 0
 243 -247 189 -243 140 -243 c 0xe6
 84 -243 51 -250 16 -250 c 0xea
306 26 m 0
 372 26 434 101 434 247 c 0
 434 383 389 465 314 465 c 0
 238 465 190 389 187 262 c 0
 186.585786438 248.330952442 186.343145751 235.348196384 186.343145751 222.483189333 c 0
 186.343145751 204.289321881 186.828427125 186.330952442 188 167 c 0
 193 73 247 26 306 26 c 0
EndSplineSet
Validated: 1
EndChar

StartChar: q
Encoding: 113 113 44
Width: 565
GlyphClass: 1
Flags: HMW
HStem: -260 22<297 297> -15 66<173.5 298.5> 500 30<236 289.5 202 302.5> 506 20G
VStem: 39 104<203.5 330.5> 392.5 95.5 396 92<101 270.5>
LayerCount: 2
Fore
SplineSet
297 -260 m 0xea
 295.720349123 -260.094788954 294.494607921 -260.140160706 293.323734526 -260.140160706 c 0
 281.817792177 -260.140160706 275.610217807 -255.758789377 275.610217807 -250.834918149 c 0
 275.610217807 -245.687622519 282.393920142 -239.947477314 297 -238 c 0
 363 -228 394 -201 395 -148 c 0
 395.22654092 -128.517480909 395.299119474 -109.599490489 395.299119474 -90.9669985349 c 0
 395.299119474 -57.7338692843 395.068227464 -25.4089878586 395.068227464 7.59090524048 c 0
 395.068227464 37.7598550685 395.261203875 68.4929704984 396 101 c 0
 396 112 384 114 378 101 c 0
 349 39 307 -15 217 -15 c 0
 130 -15 39 68 39 234 c 0
 39 427 145 530 259 530 c 0
 320 530 351 508 373 493 c 0
 390 481 402 469 419 469 c 0xea
 434 469 446 483 466 510 c 0
 474.171613059 520.575028665 482.574282381 526.528932071 488.764581362 526.528932071 c 0
 494.495283003 526.528932071 498.329932951 521.426301453 498.329932951 510.16362299 c 0
 498.329932951 508.282557854 498.2229659 506.229659003 498 504 c 0xda
 491 439 488 325 488 216 c 0
 488 174.8 487.84 117.6 487.84 59.504 c 0
 487.84 -27.64 488.2 -116.8 490 -157 c 0
 492 -210 511 -231 561 -237 c 0
 575.372836365 -238.982460188 582.376644484 -244.6494345 582.376644484 -249.861761483 c 0
 582.376644484 -255.166320566 575.122778682 -260 561 -260 c 0
 528 -260 494 -253 427 -253 c 0
 371 -253 332 -257 297 -260 c 0xea
143 275 m 0
 143 132.86213464 189.434990472 50.9909590402 264.62857391 50.9909590402 c 0
 265.084659224 50.9909590402 265.541802569 50.9939710864 266 51 c 0
 331 51 394 129 393 252 c 2
 392 349 l 2xec
 390 436 334 500 271 500 c 0
 201 500 143 415 143 275 c 0
EndSplineSet
Validated: 33
EndChar

StartChar: r
Encoding: 114 114 45
Width: 410
GlyphClass: 1
Flags: HMW
HStem: 0 22<35 35 294 294> 423 107 469 25<52 52>
VStem: 111 93<260 282>
LayerCount: 2
Fore
SplineSet
52 494 m 0xb0
 87 500 139 511 180 527 c 0
 183.996428754 529.151923175 187.898351929 530.169779407 191.357137391 530.169779407 c 0
 198.70874812 530.169779407 204.05839391 525.571406413 204.05839391 517.490554041 c 0
 204.05839391 516.264604483 199 434.638808503 199 395 c 0
 199 388 203 386 208 386 c 0
 213 386 214 388 217 395 c 0
 265 508 324 530 361 530 c 0
 381.829987956 530 398.558951354 516.056516503 398.558951354 491.140829235 c 0
 398.558951354 488.54518004 398.377393399 485.830450492 398 483 c 0
 394 441 375 424 337 423 c 0xd0
 257 421 204 384 204 260 c 2
 205 102 l 2
 205 60 229 29 294 22 c 0
 308 20.5 315 14.5 315 9.125 c 0
 315 4.2370603414 309.211143624 -0.134017140754 297.633430871 -0.134017140754 c 0
 296.479765908 -0.134017140754 295.268622285 -0.09061587747 294 0 c 0
 253 2 210 7 158 7 c 0
 112 7 78 0 35 0 c 0
 20.1440870921 0 12.1111847152 4.72362267523 12.1111847152 9.86903035073 c 0
 12.1111847152 14.7678941727 19.3927314845 20.0490914356 35 22 c 0
 87 29 105 50 108 101 c 0
 111 155 111 201 111 255 c 0
 111 309 108 392 104 423 c 0
 100 454 80 466 52 469 c 0
 39.8430341753 470.585691195 32.4355218612 476.082697045 32.4355218612 481.651599279 c 0
 32.4355218612 486.618611452 38.3283482137 491.642818658 52 494 c 0xb0
EndSplineSet
Validated: 1
EndChar

StartChar: s
Encoding: 115 115 46
Width: 418
GlyphClass: 1
Flags: HMW
HStem: -16 34<183 243.5 183 256.5> 499 31<185.5 233.5>
VStem: 50 85<379 437.5> 296 85<93 154>
LayerCount: 2
Fore
SplineSet
204 -16 m 0
 129 -16 96 -4 66 9 c 0
 54 14 47 22 46 39 c 0
 46 106.461158924 40.8073064668 157.407756977 40.8073064668 158.60493299 c 0
 40.8073064668 169.007144064 44.0598309719 174.468523466 48.4826890622 174.468523466 c 0
 52.8489765315 174.468523466 58.355850717 169.145958279 63 158 c 0
 94 89 147 18 219 18 c 0
 268 18 296 39 296 94 c 0
 296 214 50 254 50 398 c 0
 50 477 127 530 217 530 c 0
 300 530 342 520 348 489 c 0
 352.016305376 466.049683567 362.304646004 371.081586864 362.304646004 369.881847006 c 0
 362.304646004 360.704508002 357.402788724 355.528851089 351.942781001 355.528851089 c 0
 347.021958931 355.528851089 341.647780113 359.732769604 339 369 c 0
 316 440 264 499 203 499 c 0
 168 499 135 481 135 436 c 0
 135 322 381 287 381 136 c 0
 381 50 309 -16 204 -16 c 0
EndSplineSet
Validated: 1
EndChar

StartChar: t
Encoding: 116 116 47
Width: 347
GlyphClass: 1
Flags: HMW
HStem: -15 50<226.5 229> 480 35<225 288> 489 23
VStem: 93 94<84 91>
LayerCount: 2
Fore
SplineSet
196 -15 m 0xd0
 121 -15 93 22 93 91 c 2
 94 431 l 2
 93 464 87 487 34 489 c 0
 20.5468476862 489.538126093 12.8852892021 494.419947557 12.8852892021 499.749704698 c 0
 12.8852892021 504.324238047 18.529404499 509.228756555 31 512 c 0xb0
 92 525 141 571 160 646 c 0
 163.468200204 660.368257989 169.636656311 667.126703889 174.978279825 667.126703889 c 0
 180.417857625 667.126703889 185 660.118113528 185 647 c 2
 186 558 l 2
 186 526 197 515 225 515 c 2
 319 515 l 2
 326.570181238 515 329.738129193 512.248604199 329.738129193 508.288669254 c 0
 329.738129193 498.125 308.869064597 480 288 480 c 0
 273.333333333 480 261.777777778 480.444444444 248 480.444444444 c 0
 241.111111111 480.444444444 233.666666667 480.333333333 225 480 c 0
 196 479 187 468 187 442 c 0
 186.422649731 427.56624327 185.845299462 348.465819874 185.845299462 268.014809332 c 0
 185.845299462 209.120582095 186.154700538 149.502577388 187 114 c 0
 187 54 211 35 242 35 c 0
 267 35 286 43 316 66 c 0
 319.95132785 68.9634958872 323.719690952 70.219320799 326.92855092 70.219320799 c 0
 332.671593527 70.219320799 336.622441927 66.1966764275 336.622441927 60.7417727162 c 0
 336.622441927 56.9029060577 334.66575095 52.354700887 330 48 c 0
 298 18 262 -15 196 -15 c 0xd0
EndSplineSet
Validated: 1
EndChar

StartChar: u
Encoding: 117 117 48
Width: 579
GlyphClass: 1
Flags: HMW
HStem: -15 70<232.5 253.5> -11 21G 25 24<545 545> 470 24<334 334> 510 20G
VStem: 88 93<264 291 264 404> 391 93<236 433.5> 397 87
AnchorPoint: "top" 278 634 basechar 0
LayerCount: 2
Fore
SplineSet
217 -15 m 0x9e
 156 -15 88 14 88 138 c 2
 88 404 l 2
 88 453 66 466 39 469 c 0
 24.4290919439 470.56116872 16.0867059749 476.184417063 16.0867059749 481.923865781 c 0
 16.0867059749 487.213555638 23.1728559233 492.601947867 39 495 c 0
 79 501 128 509 161 525 c 0
 167.58526367 528.465928247 173.329641237 530.490337461 177.900052598 530.490337461 c 0
 185.160485104 530.490337461 189.458338207 525.381610303 189.458338207 512.82742701 c 0
 189.458338207 510.483005684 189.30845742 507.878935924 189 505 c 0
 181.8 427.6 180.36 375.76 180.36 335.008 c 0
 180.36 307.84 181 285.6 181 264 c 2
 183 151 l 2
 185 92 205 55 260 55 c 0x9e
 322 55 382 118 389 234 c 0
 390.8 267.6 391.16 301.2 391.16 337.392 c 0
 391.16 361.52 391 386.8 391 414 c 0
 391 453 365 467 334 470 c 0
 321.437690937 471.046859089 314.080973143 476.203395494 314.080973143 481.597581472 c 0
 314.080973143 486.508862652 320.179456784 491.617147721 334 494 c 0
 375 501 433 511 466 527 c 0
 469.689011157 529.151923175 473.472527893 530.169779407 476.91476004 530.169779407 c 0
 484.261918809 530.169779407 490.054275134 525.532695255 490.054275134 517.388541319 c 0
 490.054275134 514.853932727 484 470.170706164 484 264 c 0
 484 208 487 128 491 97 c 0
 495 66 515 50 546 49 c 0
 557.836976817 47.9706976681 564.641503004 42.968407997 564.641503004 37.6735956063 c 0
 564.641503004 32.6802502291 558.589767353 27.4267441703 545 25 c 0
 505 18 449 6 416 -8 c 0x7e
 412.071451363 -9.96427431853 408.035725681 -10.9639552375 404.419135745 -10.9639552375 c 0
 397.391014649 -10.9639552375 391.945724866 -7.18874331817 391.945724866 0.619177751746 c 0
 391.945724866 1.77409246028 397 79.2782233142 397 116 c 0
 397 123 395 129 390 129 c 0
 385 129 381 123 378 116 c 0x9d
 338 22 290 -15 217 -15 c 0x9e
EndSplineSet
Validated: 1
EndChar

StartChar: v
Encoding: 118 118 49
Width: 498
GlyphClass: 1
Flags: HMW
HStem: -14 21G 494 21<10 10> 496 19<254 286>
VStem: -9 196 382 118
LayerCount: 2
Fore
SplineSet
235 -4 m 0xb8
 224 18 112 370 82 447 c 0xd8
 72 473 47 489 10 494 c 0
 -2.7500923873 495.961552675 -9.00720976145 501.289833135 -9.00720976145 506.093190335 c 0
 -9.00720976145 510.820903681 -2.94561629782 515.040096695 8.95268137585 515.040096695 c 0
 9.6169421778 515.040096695 10.2993947631 515.026946355 11 515 c 0
 36 514 75 511 119 511 c 0
 166 512 224 515 270 515 c 0
 319 515 353 512 398 512 c 0
 404.055612829 511.816496581 409.97653164 511.734013676 415.744218821 511.734013676 c 0
 441.407483773 511.734013676 464.03707522 513.367006838 482 515 c 0
 483.377438623 515.131184631 484.681737265 515.193531632 485.910356114 515.193531632 c 0
 494.803236006 515.193531632 499.731232349 511.927156384 499.731232349 507.85569414 c 0
 499.731232349 503.913908106 495.112150622 499.217502471 485 496 c 0
 447 485 433 465 410 412 c 0
 393 374 310 139 259 0 c 0
 255.340134638 -9.93392026729 250.86019084 -14.4006509569 246.417704795 -14.4006509569 c 0
 242.363320261 -14.4006509569 238.340134638 -10.6802692767 235 -4 c 0xb8
293 173 m 0
 332 278 362 371 377 422 c 0
 379.899957591 431.592167417 381.705154302 440.487668819 381.705154302 448.542196928 c 0
 381.705154302 476.594702159 359.808002219 494.446147322 286 496 c 0
 230.115382357 496 187.192810201 486.850320833 187.192810201 449.908857015 c 0
 187.192810201 444.544337826 188.09795726 438.593748165 190 432 c 0
 206 375 235 288 270 176 c 0
 273.54493837 164.858765122 277.859259683 159.872593778 282.033825566 159.872593778 c 0
 286.102551422 159.872593778 290.038518603 164.609136042 293 173 c 0
EndSplineSet
Validated: 1
EndChar

StartChar: w
Encoding: 119 119 50
Width: 728
GlyphClass: 1
Flags: HMW
HStem: -15 21G 491 24 493 22<7 7> 497 18<490 490>
VStem: 343 16 610 118
LayerCount: 2
Fore
SplineSet
479 -4 m 0xcc
 473 11 417 179 377 309 c 0
 373 323 363 322 359 310 c 0
 326 217 285 90 256 1 c 0
 252.890487662 -9.3650411279 247.900878966 -14.8955487646 242.979901519 -14.8955487646 c 0
 238.405542891 -14.8955487646 233.890487662 -10.1167068157 231 0 c 0
 217 48 118 333 74 445 c 0xac
 65 467 45 487 7 493 c 0
 -5.25009992008 495.450019984 -11.2574980012 500.781286971 -11.2574980012 505.581896471 c 0
 -11.2574980012 510.578369304 -4.74990007992 515 8 515 c 0
 126 515 187 510 261 510 c 0
 361 510 417 515 491 515 c 0xcc
 502.250118036 515 507.758149607 511.41119596 507.758149607 507.393328936 c 0
 507.758149607 503.196976229 501.749881964 498.5325933 490 497 c 0
 456.189252202 491.661460874 422.378504404 484.739588415 422.378504404 460.033399302 c 0
 422.378504404 456.972228997 422.89756521 453.638034807 424 450 c 0x9c
 451 360 473 288 509 181 c 0
 511.957169064 172.128492808 515.885988003 167.872322521 519.828679167 167.872322521 c 0
 523.885580339 167.872322521 527.957169064 172.378645682 531 181 c 0
 563 275 590 354 606 417 c 0
 608.431761149 426.505975399 609.739475747 435.230005372 609.739475747 443.150481913 c 0
 609.739475747 471.058047943 593.504401843 488.989622758 553 496 c 0
 542.083307292 497.55952753 535.22015811 503.172598586 535.22015811 507.922403274 c 0
 535.22015811 511.830800933 539.867123358 515.154690124 550.726414265 515.154690124 c 0
 552.056749664 515.154690124 553.480318903 515.104805593 555 515 c 0
 585.505474234 513.394448725 615.724526812 512.36174076 643.817699119 512.36174076 c 0
 668.217099431 512.36174076 691.012901615 513.140735034 711 515 c 0
 712.234765909 515.123476591 713.404734327 515.182155691 714.508493317 515.182155691 c 0
 723.010445204 515.182155691 727.584061234 511.700609028 727.584061234 507.533729787 c 0
 727.584061234 503.479396382 723.254171946 498.776251584 714 496 c 0
 677 485 655 463 638 412 c 0
 625 374 549 157 502 0 c 0
 498.822914524 -10.0607706734 494.524287702 -14.7942199498 490.143395743 -14.7942199498 c 0
 486.250871091 -14.7942199498 482.293400278 -11.0572863105 479 -4 c 0xcc
287 174 m 0
 310 241 334 320 344 357 c 0
 346.089631 363.791300749 347.633442285 371.40133107 347.633442285 380.115231411 c 0
 347.633442285 388.081597284 346.343145751 396.970562748 343 407 c 0
 340 415 329 447 324 458 c 0
 315 478 287 491 240 491 c 0
 204.417883795 491 174.861166727 486.480950647 174.861166727 459.794363494 c 0
 174.861166727 455.730950647 175.546421421 451.153596781 177 446 c 0
 201 360 228 283 269 176 c 0
 272.94298485 166.142537875 275.914274105 161.872325424 278.632251703 161.872325424 c 0
 281.428832648 161.872325424 283.957238638 166.393096594 287 174 c 0
EndSplineSet
Validated: 1
EndChar

StartChar: x
Encoding: 120 120 51
Width: 562
GlyphClass: 1
Flags: HMW
HStem: 0 21<219 299> 0 22<22 22> 0 23<542 542> 215 110 492 23<30 30 518 518> 495 20<280.5 348>
VStem: 5 155 225 104 387 155
LayerCount: 2
Fore
SplineSet
22 0 m 0x8780
 11 0 5.25 4.75 5.25 9.875 c 0
 5.25 15 11 20.5 23 22 c 0
 68 27 97 49 135 103 c 0
 169 151 187 182 216 230 c 0
 221.495097568 239.891175622 224.574507353 251.292156109 224.574507353 262.377705951 c 0
 224.574507353 271.465682976 222.504902432 280.341665866 218 288 c 2
 139 413 l 2x4b80
 104 466 74 488 30 492 c 0
 16.0348450126 492.963114137 9.72229796353 498.332275269 9.72229796353 503.640613765 c 0
 9.72229796353 509.355555463 17.0389267133 515 30 515 c 0
 54 515 103 508 148 508 c 0
 194 508 230 515 319 515 c 0
 377 515 411 508 440 508 c 0
 462 508 492 515 519 515 c 0x8780
 534.250065003 515 541.756047339 510.401950917 541.756047339 505.253558373 c 0
 541.756047339 499.936410682 533.749934997 494.032249677 518 492 c 0
 482 487 447 466 409 412 c 0
 382 374 366 348 339 310 c 0
 332.503424818 300.796518492 328.937786379 291.886130659 328.937786379 282.475459379 c 0
 328.937786379 274.503424818 331.496575182 266.172374697 337 257 c 0
 370 199 400 155 435 103 c 0x2b80
 471 48 503 26 542 23 c 0
 557 22 564.5 16.25 564.5 10.75 c 0
 564.5 5.25 557 0 542 0 c 0
 517 0 489 7 425 7 c 0
 371 7 331 0 267 0 c 0
 166 0 139 7 104 7 c 0
 83 7 54 0 22 0 c 0x8780
269 21 m 0
 313.677640108 21 337.887544845 35.1324839458 337.887544845 61.3562685457 c 0
 337.887544845 72.6976330976 333.359268073 86.3005825874 324 102 c 2
 269 198 l 2
 262.343965773 208.934913372 256.3660355 214.671029768 250.099034226 214.671029768 c 0
 243.184309737 214.671029768 235.917672725 207.687931547 227 193 c 2x9780
 174 110 l 2
 164.366831647 94.2123074214 159.531087274 80.5011117896 159.531087274 68.8855733007 c 0
 159.531087274 37.0928197014 195.758800981 21 269 21 c 0
291 341 m 2x9780
 297.696225336 329.999058377 303.934905429 324.717432283 310.153729715 324.717432283 c 0
 316.936788675 324.717432283 323.696225336 331.000941623 331 343 c 0
 351 374 363 394 371 408 c 0
 381.595065397 426.541364445 387.037782839 442.342118275 387.037782839 455.184484375 c 0
 387.037782839 481.129582045 364.823294444 495 318 495 c 0
 264.428571429 495 236.367346939 482.755102041 236.367346939 454.256559767 c 0
 236.367346939 442.857142857 240.857142857 428.857142857 250 412 c 2
 291 341 l 2x9780
EndSplineSet
Validated: 1
EndChar

StartChar: y
Encoding: 121 121 52
Width: 501
GlyphClass: 1
Flags: HMW
HStem: -208 97 495 20<276 319.5> 496 19
VStem: -3 192 381 126
AnchorPoint: "top" 294 588 basechar 0
LayerCount: 2
Fore
SplineSet
50 -208 m 0xd8
 2.71276172262 -208 -40.7403151969 -161.223231434 -40.7403151969 -132.805877514 c 0
 -40.7403151969 -128.771830854 -39.8646560341 -125.107760057 -38 -122 c 0
 -31.512195122 -113.195121951 -15.5752528257 -110.832837597 3.83964248923 -110.832837597 c 0
 26.3200475907 -110.832837597 53.4634146341 -114 76 -114 c 0
 142 -114 177 -93 216 -1 c 0
 218.481905884 4.70838353421 219.5470447 11.3407455913 219.5470447 18.6524752131 c 0
 219.5470447 40.8008861535 209.77352235 69.1830517724 200 97 c 0
 163 207 108 374 81 449 c 0
 72 473 52 487 15 493 c 0
 2.88205727445 495.423588545 -2.89220150024 500.666592179 -2.89220150024 505.312459846 c 0
 -2.89220150024 509.97857218 2.93249032647 514.04233309 14.0049723987 514.04233309 c 0
 14.6520949703 514.04233309 15.3171425596 514.028452393 16 514 c 0
 40.1176470588 512.529411765 65.1868512111 512.010380623 90.7242010991 512.010380623 c 0
 152.01384083 512.010380623 216 515 276 515 c 0
 342 515 377.333333333 511.444444444 418.740740741 511.444444444 c 0
 439.444444444 511.444444444 461.666666667 512.333333333 490 515 c 0xd8
 491.224150516 515.116585763 492.380339831 515.172006446 493.468567944 515.172006446 c 0
 502.181189315 515.172006446 506.5375 511.619542589 506.5375 507.462640625 c 0
 506.5375 503.231875 502.025 498.375 493 496 c 0xb8
 450 484 426 455 400 384 c 0
 304 114 197 -208 50 -208 c 0xd8
294 169 m 0
 330 262 360 365 376 413 c 0
 379.556735301 422.547026334 381.361342347 431.393201367 381.361342347 439.46636676 c 0
 381.361342347 474.519869359 347.339503064 495 275 495 c 0
 222.161015911 495 188.93256056 480.473682416 188.93256056 448.326063928 c 0
 188.93256056 442.752435866 189.931383504 436.649124452 192 430 c 0
 210 365 238 275 273 171 c 0
 276.04550684 161.863479479 280.121581671 157.622156913 284.051248793 157.622156913 c 0
 287.863479479 157.622156913 291.537922367 161.613767101 294 169 c 0
EndSplineSet
Validated: 1
EndChar

StartChar: z
Encoding: 122 122 53
Width: 472
GlyphClass: 1
Flags: HMW
HStem: 0 22<197 261.5 197 360> 494 21
VStem: 31 145 286 130
LayerCount: 2
Fore
SplineSet
47 0 m 2
 35.3701812568 0 30.5875296411 3.888514665 30.5875296411 10.9527945921 c 0
 30.5875296411 28.1856428769 59.048327806 64.3169645206 86 109 c 0
 148 211 227 343 267 412 c 0
 277.974731351 430.813825173 285.569636144 448.244994027 285.569636144 462.185967444 c 0
 285.569636144 481.744056868 270.62143301 494.432784294 229.086295887 494.432784294 c 0
 224.692918851 494.432784294 220.002078159 494.290818498 215 494 c 0
 161 492 95 417 71 367 c 0
 64.0336051417 352.602783959 57.2829020936 345.75478128 52.7513499472 345.75478128 c 0
 49.3066165772 345.75478128 47.1442258828 349.711919153 47.1442258828 357.318178092 c 0
 47.1442258828 361.250831409 47.7222730505 366.158962517 49 372 c 0
 59 415 81 496 99 532 c 0
 106.752166704 546.987522294 113.435958499 552.893857866 119.051375386 552.893857866 c 0
 124.30146959 552.893857866 128.617677795 547.731022183 132 540 c 0
 142 516 189 515 241 515 c 2
 397 515 l 2
 411.029496708 515 416.447821883 509.587263609 416.447821883 500.703386583 c 0
 416.447821883 484.25812398 397.88082714 455.918291039 381 428 c 0
 320 327 252 210 190 100 c 0
 180.539560264 83.2622989282 175.712992125 68.3781464954 175.712992125 56.2146771348 c 0
 175.712992125 34.9494463298 190.465427205 22 221 22 c 0
 302 22 375 52 421 158 c 0
 426.38508731 170.116446447 432.374323897 175.587250838 436.979522946 175.587250838 c 0
 441.480884081 175.587250838 444.659918505 170.360376152 444.659918505 161.003772246 c 0
 444.659918505 158.601815557 444.450416065 155.927704423 444 153 c 0
 435 101 422 53 406 22 c 0
 396 2 379 0 360 0 c 2
 47 0 l 2
EndSplineSet
Validated: 1
EndChar

StartChar: zero
Encoding: 48 48 54
Width: 515
GlyphClass: 1
Flags: HMW
HStem: -16 33<225 290.5 225 315.5> 733 32<225 290.5>
VStem: 48 107<259 486.5 259 491> 360 108<259 486.5>
LayerCount: 2
Fore
SplineSet
258 -16 m 0
 143 -16 48 138 48 371 c 0
 48 611 143 765 258 765 c 0
 373 765 468 611 468 371 c 0
 468 138 373 -16 258 -16 c 0
258 17 m 0
 323 17 360 147 360 371 c 0
 360 602 323 733 258 733 c 0
 192 733 155 602 155 371 c 0
 155 147 192 17 258 17 c 0
EndSplineSet
Validated: 1
EndChar

StartChar: one
Encoding: 49 49 55
Width: 372
GlyphClass: 1
Flags: HMW
HStem: 0 21G<52.5 87.5> 664 101
VStem: 151 95<284 390.5 284 401.5>
LayerCount: 2
Fore
SplineSet
67 0 m 0
 52.3771451081 0 44.8734112451 4.83083212675 44.8734112451 10.0053466491 c 0
 44.8734112451 15.0929131128 52.1270912675 20.5127091267 67 22 c 0
 125 29 145 51 148 104 c 0
 150 142 151 221 151 342 c 0
 151 461 150 610 148 636 c 0
 146.850063774 656.315539986 139.382217228 663.99525933 127.680275678 663.99525933 c 0
 108.853720199 663.99525933 79.0677720891 644.117325668 47 625 c 0
 41.699456768 621.781813038 37.0798056438 620.427120265 33.2631589676 620.427120265 c 0
 25.4188366462 620.427120265 20.966585038 626.149646075 20.966585038 633.1772773 c 0
 20.966585038 640.792663312 26.1947058618 649.940588226 38 655 c 0
 92 678 166 731 203 751 c 0
 219.74031077 759.584774754 230.953244722 765.221615205 238.220511355 765.221615205 c 0
 247.075867112 765.221615205 250.07267069 756.851998298 250.07267069 735.247791864 c 0
 250.07267069 733.276603166 250.047722558 731.195237645 250 729 c 0
 248 646 246 439 246 342 c 0
 246 226 248 150 250 103 c 0
 252 61 266 30 326 22 c 0
 339.872758812 20.5136329844 346.626704264 14.6086921586 346.626704264 9.27170561651 c 0
 346.626704264 4.32486865605 340.824132407 -0.134017140754 329.509544885 -0.134017140754 c 0
 328.39325565 -0.134017140754 327.223314346 -0.09061587747 326 0 c 0
 289 3 252 7 192 7 c 0
 138 7 108 0 67 0 c 0
EndSplineSet
Validated: 1
EndChar

StartChar: two
Encoding: 50 50 56
Width: 479
GlyphClass: 1
Flags: HMW
HStem: 0 89<145 173 173 237 145 311> 680 85<199.5 222>
VStem: 25 98 300 108<515.5 594>
LayerCount: 2
Fore
SplineSet
48 0 m 2
 32.3284565611 0 25.0793162003 4.71654572375 25.0793162003 12.9763744539 c 0
 25.0793162003 18.9471399587 28.8672680912 26.769405765 36 36 c 0
 162 200 300 413 300 552 c 0
 300 636 257 680 187 680 c 0
 140 680 104 666 60 600 c 0
 55.2084464842 593.466063388 49.4681745761 590.157769309 45.2587306111 590.157769309 c 0
 41.7883310778 590.157769309 39.3584166513 592.406376498 39.3584166513 596.949905186 c 0
 39.3584166513 599.547147894 40.1524331044 602.894295788 42 607 c 0
 88 710 159 765 240 765 c 0
 338 765 408 699 408 586 c 0
 408 445 244 228 145 127 c 0
 128.915667822 110.468880818 122.612648406 101.124032235 122.612648406 95.8439089433 c 0
 122.612648406 89.3060446179 132.276101113 89 145 89 c 2
 173 89 l 2
 301 89 370 92 420 164 c 0
 430.330834881 178.635349414 437.882342956 185.673872227 442.016462752 185.673872227 c 0
 444.389847475 185.673872227 445.636905195 183.354066089 445.636905195 178.82009319 c 0
 445.636905195 172.904448341 443.513988751 163.219538485 439 150 c 0
 413 75 378 0 311 0 c 2
 48 0 l 2
EndSplineSet
Validated: 1
EndChar

StartChar: three
Encoding: 51 51 57
Width: 458
GlyphClass: 1
Flags: HMW
HStem: -15 44<152.5 205.5> 684 81<187.5 198.5>
VStem: 260 105<601.5 618.5> 318 101<196 266.5>
LayerCount: 2
Fore
SplineSet
130 -15 m 0xd0
 63.2813705307 -15 36.6374514058 28.157380371 36.6374514058 63.9563293614 c 0
 36.6374514058 89.3259058244 50.0183101919 111 72 111 c 0
 125 111 118 29 187 29 c 0
 258 29 318 119 318 210 c 0xd0
 318 305.991301988 263.878709821 370.23144707 175.252122325 370.23144707 c 0
 159.548378013 370.23144707 142.76129527 368.21454464 125 364 c 0
 120.898482785 363.108365823 117.273972474 362.693738549 114.200190447 362.693738549 c 0
 106.81118021 362.693738549 102.604636058 365.089724509 102.604636058 369.015168834 c 0
 102.604636058 372.613884496 106.140071207 377.498049845 114 383 c 0
 225 462 260 524 260 592 c 0
 260 645 224 684 173 684 c 0
 135 684 89 665 61 605 c 0
 57.1375451808 599.420898594 52.1700120482 596.236133535 48.3106010022 596.236133535 c 0
 44.7924352981 596.236133535 42.1950967562 598.882609233 42.1950967562 604.774314693 c 0
 42.1950967562 607.479432804 42.7426406871 610.868676543 44 615 c 0
 74 717 151 765 224 765 c 0
 305 765 365 712 365 637 c 0xe0
 365 566 305 512 247 463 c 0
 240.873882514 457.639647199 238.119539463 453.452085507 238.119539463 450.156664293 c 0
 238.119539463 444.845208551 245.274764515 441.851352971 257 440 c 0
 360 423 419 350 419 258 c 0
 419 134 281 -15 130 -15 c 0xd0
EndSplineSet
Validated: 1
EndChar

StartChar: four
Encoding: 52 52 58
Width: 485
GlyphClass: 1
Flags: HMW
HStem: 0 257<172.5 206.5> 211 46<39.5 236 90 236 90 236 393 394 394 424> 501 20G
VStem: 26 51 268 93<178 289 289 342 278.5 342> 268 95<178 178>
LayerCount: 2
Fore
SplineSet
187 0 m 0xb4
 172.144087092 0 164.111184715 4.72362267523 164.111184715 9.86903035073 c 0
 164.111184715 14.7678941727 171.392731485 20.0490914356 187 22 c 0xb8
 243 29 262 50 265 103 c 2
 268 178 l 2
 268 199 263 211 236 211 c 2
 54 211 l 2
 34.583289937 211 25.9254468325 222.207153082 25.9254468325 236.517510094 c 0
 25.9254468325 243.580514069 28.0345007157 251.399459705 32 259 c 0
 56 305 329 744 347 771 c 0
 350.007180364 775.510770546 355.094281488 777.399032307 360.43928298 777.399032307 c 0
 370.381778762 777.399032307 381.216649002 770.865359718 381.216649002 762.52391912 c 0
 381.216649002 760.437712579 380.538919802 758.238428803 379 756 c 0
 355 722 98 314 85 291 c 0
 79.521143543 281.868572572 76.5437760924 273.987889647 76.5437760924 268.119356735 c 0
 76.5437760924 261.134405441 80.7617133141 257 90 257 c 2
 236 257 l 2
 262 257 268 268 268 289 c 2
 268 342 l 1
 267 475 l 2
 267 492 272 507 312 517 c 0
 323.712288488 519.848935038 333.019708576 521.495435875 340.271169766 521.495435875 c 0
 355.927619726 521.495435875 362 513.820098212 362 494 c 2
 361 342 l 1
 361 289 l 2
 361 268 370 257 393 257 c 2
 432 257 l 2
 446.814991328 257 453.169149421 254.511519637 453.169149421 247.076771243 c 0
 453.169149421 243.972889352 452.061669557 240.006911782 450 235 c 0
 443 217 439 211 424 211 c 2x78
 394 211 l 2
 372.138724406 211 362.925492647 201.062251273 362.925492647 181.18675382 c 0
 362.925492647 147.639161775 362.925492647 147.639161775 365 102 c 0
 367 60 379 28 436 22 c 0
 450.241318655 20.5267601391 457.006692164 14.4714893819 457.006692164 9.0450464065 c 0
 457.006692164 4.12374818528 451.44226249 -0.280347554142 440.843434041 -0.280347554142 c 0
 439.330962124 -0.280347554142 437.715970695 -0.190663410602 436 0 c 0
 408 3 375 7 316 7 c 0
 261 7 226 0 187 0 c 0xb4
EndSplineSet
Validated: 1
EndChar

StartChar: five
Encoding: 53 53 59
Width: 432
GlyphClass: 1
Flags: HMW
HStem: -16 61<157 193>
VStem: 312 76<224 288>
LayerCount: 2
Fore
SplineSet
131 -16 m 0
 58.7882903524 -16 32.3597288825 28.426610454 32.3597288825 65.5359362857 c 0
 32.3597288825 92.1497438015 45.9529198636 115 66 115 c 0
 109 115 129 45 185 45 c 0
 253 45 312 117 312 225 c 0
 312 351 244 426 81 448 c 0
 60.7476204188 450.43028555 49.0265455146 455.485587923 49.0265455146 472.203589431 c 0
 49.0265455146 476.12267089 49.6706662827 480.682665131 51 486 c 0
 72 565 95 643 117 725 c 0
 121 739 130 747 144 750 c 2
 354 793 l 2
 357.754901207 793.722096386 361.134377717 794.131338858 364.105295963 794.131338858 c 0
 373.660871807 794.131338858 378.989894595 789.897707643 378.989894595 778.223260537 c 0
 378.989894595 768.394364626 375.212569138 753.291259089 367 731 c 0
 355 699 342 684 317 680 c 2
 153 651 l 2
 131 647 119 638 113 619 c 0
 109 606 105 592 100 570 c 0
 99.0233466567 566.093386627 98.5501150719 562.610707366 98.5501150719 559.495894752 c 0
 98.5501150719 543.475078731 111.06938893 537.186122214 132 533 c 0
 328 497 388 408 388 295 c 0
 388 153 255 -16 131 -16 c 0
EndSplineSet
Validated: 1
EndChar

StartChar: six
Encoding: 54 54 60
Width: 475
GlyphClass: 1
Flags: HMW
HStem: -15 29<203 269.5 203 296.5> 382 37<251 270.5>
VStem: 42 100<165 252 165 331.5> 340 101<149 246>
LayerCount: 2
Fore
SplineSet
234 -15 m 0
 115 -15 42 79 42 225 c 0
 42 438 147 638 347 756 c 0
 361.547841088 764.579496026 372.477909863 768.428059028 378.752123944 768.428059028 c 0
 382.702410477 768.428059028 384.807095453 766.902471495 384.807095453 764.071517335 c 0
 384.807095453 759.344900543 378.940012706 750.979404721 366 740 c 0
 271 659 197 546 163 411 c 0
 162.056247498 407.036239492 161.611269516 403.535626751 161.611269516 400.525060048 c 0
 161.611269516 391.948071082 165.222969915 387.348581086 171.202388662 387.348581086 c 0
 174.243637967 387.348581086 177.897401452 388.538440871 182 391 c 0
 204 403 231 419 271 419 c 0
 389 419 441 323 441 216 c 0
 441 82 359 -15 234 -15 c 0
246 14 m 0
 293 14 340 65 340 186 c 0
 340 306 300 382 241 382 c 0
 174 382 142 305 142 199 c 0
 142 131 160 14 246 14 c 0
EndSplineSet
Validated: 1
EndChar

StartChar: seven
Encoding: 55 55 61
Width: 433
GlyphClass: 1
Flags: HMW
HStem: -15 21G<96.5 124> 649 101<123.5 155 155 317>
VStem: 21 405
LayerCount: 2
Fore
SplineSet
168 31 m 0
 159 -1 136 -15 112 -15 c 0
 88.3236283197 -15 62.8972964648 2.49960174641 62.8972964648 31.2616234619 c 0
 62.8972964648 40.1583564417 65.3300942041 50.1326805578 71 61 c 0
 138 197 200 300 256 419 c 0
 292 496 320 565 338 621 c 0
 338.983877257 624.148407221 339.464386996 627.14193213 339.464386996 629.919620651 c 0
 339.464386996 641.257963893 331.458041876 649 317 649 c 2
 155 649 l 2
 92 649 69 623 43 583 c 0
 39.7526044493 577.896949849 33.4921866521 574.946058445 28.412093053 574.946058445 c 0
 24.0705864282 574.946058445 20.5911424327 577.101274111 20.5911424327 581.910254274 c 0
 20.5911424327 583.6037961 21.0226572702 585.62645337 22 588 c 2
 80 732 l 2
 86 747 93 750 114 750 c 2
 408 750 l 2
 418.46565654 750 425.578354912 743.294083665 425.578354912 732.806493375 c 0
 425.578354912 729.264742697 424.76717173 725.291702773 423 721 c 0
 376 613 335 515 293 405 c 0
 254 301 211 180 168 31 c 0
EndSplineSet
Validated: 1
EndChar

StartChar: eight
Encoding: 56 56 62
Width: 534
GlyphClass: 1
Flags: HMW
HStem: -15 26<268 308 249.5 327> 349 80 742 23<247.5 310>
VStem: 59 92<114 199> 68 102<571.5 634> 206 124 377 91 389 100<132 199>
LayerCount: 2
Fore
SplineSet
268 -15 m 0xb5
 123 -14 59 68 59 155 c 0xb5
 59 243 109 302 194 355 c 0
 202 360 206 365.25 206 370.625 c 0
 206 376 202 381.5 194 387 c 0
 124 436 68 494 68 579 c 0
 68 689 149 765 287 765 c 0
 399 765 468 698 468 605 c 0xae
 468 521 415 480 340 427 c 0
 333.612236034 422.577701869 330.121764031 416.948198754 330.121764031 411.179214723 c 0
 330.121764031 405.207503137 333.861863343 399.08633541 342 394 c 0
 416 348 489 288 489 187 c 0
 489 77 386 -15 268 -15 c 0xb5
276 11 m 0
 340 11 389 60 389 146 c 0
 389 252 328 295 259 343 c 0
 253.833885216 346.616280349 248.133995592 348.63123618 242.589716652 348.63123618 c 0
 237.401986777 348.63123618 232.350496694 346.867108173 228 343 c 0xf5
 181 305 151 241 151 168 c 0
 151 60 223 11 276 11 c 0
278 435 m 0xee
 289 428 297 427 306 435 c 0
 346 467 374 522 377 596 c 0
 377.124640388 599.365290484 377.187139871 602.702962787 377.187139871 606.009502854 c 0
 377.187139871 682.288884635 343.925537089 742 273 742 c 0
 222 742 170 705 170 617 c 0
 170 526 224 470 278 435 c 0xee
EndSplineSet
Validated: 1
EndChar

StartChar: nine
Encoding: 57 57 63
Width: 484
GlyphClass: 1
Flags: HMW
HStem: -16 21G 333 37<209.5 229> 738 29<210.5 277>
VStem: 39 101<506 603> 338 100<500 587>
LayerCount: 2
Fore
SplineSet
246 767 m 0
 365 767 438 673 438 527 c 0
 438 314 333 114 133 -4 c 0
 118.452158912 -12.5794960263 107.522090137 -16.4280590276 101.247876056 -16.4280590276 c 0
 97.2975895225 -16.4280590276 95.1929045474 -14.9024714953 95.1929045474 -12.0715173347 c 0
 95.1929045474 -7.34490054291 101.059987294 1.02059527935 114 12 c 0
 209 93 283 206 317 341 c 0
 317.943752502 344.963760508 318.388730484 348.464373249 318.388730484 351.474939952 c 0
 318.388730484 360.051928918 314.777030085 364.651418914 308.797611338 364.651418914 c 0
 305.756362033 364.651418914 302.102598548 363.461559129 298 361 c 0
 276 349 249 333 209 333 c 0
 91 333 39 429 39 536 c 0
 39 670 121 767 246 767 c 0
234 738 m 0
 187 738 140 687 140 566 c 0
 140 446 180 370 239 370 c 0
 306 370 338 447 338 553 c 0
 338 621 320 738 234 738 c 0
EndSplineSet
Validated: 1
EndChar

StartChar: period
Encoding: 46 46 64
Width: 253
GlyphClass: 1
Flags: HMW
HStem: -15 21G<105 147.5> -15 157<126 126>
VStem: 47 159<43 85.5>
LayerCount: 2
Fore
SplineSet
126 -15 m 0xa0
 84 -15 47 22 47 64 c 0
 47 107 84 141 126 142 c 0x60
 126.570711502 142.013588369 127.140684429 142.020344919 127.709833475 142.020344919 c 0
 169.025699588 142.020344919 206 106.415700129 206 64 c 0
 206 22 169 -15 126 -15 c 0xa0
EndSplineSet
Validated: 1
EndChar

StartChar: comma
Encoding: 44 44 65
Width: 255
GlyphClass: 1
Flags: HMW
HStem: -181 321
VStem: 49 158<28 82.5 18 83> 105 102
LayerCount: 2
Fore
SplineSet
42 -157 m 0xc0
 27.1092925961 -174.226504644 14.2645659718 -180.711610195 4.61078798046 -180.711610195 c 0
 -7.33866301234 -180.711610195 -14.3991019984 -170.775455606 -14.3991019984 -158.975190199 c 0
 -14.3991019984 -147.657747256 -7.90461605871 -134.625617518 7 -127 c 0
 66.7346368997 -96.0659916055 105.191467222 -72.7952059381 105.191467222 -37.6280755933 c 0
 105.191467222 4.37252861602 49 -3.8064516129 49 62 c 0
 49 104 81 139 128 140 c 0
 128.70127537 140.013231611 129.3978237 140.019810352 130.089647308 140.019810352 c 0
 181.683491795 140.019810352 207 103.431040738 207 61 c 0
 207 -25 115 -72 42 -157 c 0xc0
EndSplineSet
Validated: 1
EndChar

StartChar: exclam
Encoding: 33 33 66
Width: 279
GlyphClass: 1
Flags: HMW
HStem: -15 154<139 139> 745 20G<121 152>
VStem: 62 156<42.5 84> 122 28
LayerCount: 2
Fore
SplineSet
150 223 m 0xd0
 149.508066615 208.241998455 142.966171853 200.743950564 136.32667167 200.743950564 c 0
 129.469425367 200.743950564 122.508066615 208.741868315 122 225 c 0
 116 417 80 634 77 694 c 0
 76.7651237904 697.112109777 76.6509250298 700.103542105 76.6509250298 702.977738787 c 0
 76.6509250298 749.051823198 105.996447781 765 138 765 c 0
 165.186494042 765 197.086670854 746.145268921 197.086670854 701.113034847 c 0
 197.086670854 651.560518428 155.176335651 423.84182327 150 223 c 0xd0
139 -15 m 0xe0
 98 -15 62 22 62 63 c 0
 62 105 98 138 139 139 c 0
 139.586633608 139.013967467 140.172291765 139.020911689 140.756887275 139.020911689 c 0
 182.026374213 139.020911689 218 104.413366392 218 63 c 0
 218 22 182 -15 139 -15 c 0xe0
EndSplineSet
Validated: 1
EndChar

StartChar: question
Encoding: 63 63 67
Width: 416
GlyphClass: 1
Flags: HMW
HStem: -15 154<161 161> 727 39
VStem: 84 156<42.5 84> 278 103<540.5 655.5>
LayerCount: 2
Fore
SplineSet
149 218 m 0
 149 379 278 464 278 617 c 0
 278 692.901790078 243.991253028 727.021405305 207.581817535 727.021405305 c 0
 207.055015687 727.021405305 206.527711261 727.014262467 206 727 c 0
 173 726 145 704 136 634 c 0
 128 572 102 551 62 551 c 0
 41.3326931387 551 19.9819661608 561.25130175 19.9819661608 584.013817771 c 0
 19.9819661608 588.78575045 20.9203072934 594.107537331 23 600 c 0
 58 699 156 766 240 766 c 0
 327 766 381 713 381 618 c 0
 381 442 185 360 177 218 c 0
 176 203 171 199 163 199 c 0
 155 199 149 204 149 218 c 0
161 -15 m 0
 120 -15 84 22 84 63 c 0
 84 105 120 138 161 139 c 0
 161.586633608 139.013967467 162.172291765 139.020911689 162.756887275 139.020911689 c 0
 204.026374213 139.020911689 240 104.413366392 240 63 c 0
 240 22 204 -15 161 -15 c 0
EndSplineSet
Validated: 1
EndChar

StartChar: gravecomb
Encoding: 768 768 68
Width: 1026
VWidth: 2048
GlyphClass: 4
Flags: HW
HStem: -24 139.424
VStem: 174.819 145.014
AnchorPoint: "top" 399.914 2.41992 mark 0
LayerCount: 2
Fore
SplineSet
386.091796875 -11.138671875 m 1028
157.400390625 150.634765625 m 4
 103.188476562 195.01953125 88.318359375 215.215820312 84.1865234375 235.83984375 c 4
 80.6005859375 253.734375 85.3701171875 270.580078125 98.6298828125 284.109375 c 4
 110.783203125 296.509765625 126.666015625 302.650390625 145.2265625 302.5625 c 4
 165.872070312 302.46484375 186.81640625 294.669921875 211.604492188 277.43359375 c 4
 231.385742188 263.678710938 250.001953125 246.421875 273.907226562 214.231445312 c 4
 284.412109375 200.087890625 310.200195312 163.853515625 319.463867188 150.833984375 c 4
 374.4453125 73.56640625 395.240234375 44.759765625 398.783203125 39.88671875 c 4
 407.775390625 27.5341796875 409.692382812 23.380859375 410.465820312 19.822265625 c 4
 411.239257812 16.267578125 410.9375 13.0146484375 408.719726562 7.64453125 c 4
 403.865234375 -4.123046875 395.955078125 -11.189453125 386.091796875 -11.138671875 c 4
 380.404296875 -11.111328125 374.143554688 -8.71875 338.78125 15.505859375 c 4
 283.651367188 53.275390625 204.283203125 112.25390625 157.400390625 150.634765625 c 4
EndSplineSet
Validated: 524321
EndChar

StartChar: acutecomb
Encoding: 769 769 69
Width: 1026
VWidth: 2048
GlyphClass: 4
Flags: HW
HStem: 52.502 54.998<174.43 258.529>
AnchorPoint: "top" 47.7568 4.89551 mark 0
LayerCount: 2
Fore
SplineSet
80.2060546875 2.5927734375 m 1028
356.756835938 106.88671875 m 4
 299.126953125 81.201171875 202.642578125 42.669921875 136.1953125 18.541015625 c 4
 93.57421875 3.06640625 86.3671875 1.892578125 80.2060546875 2.5927734375 c 4
 69.517578125 3.80859375 62.2197265625 10.6435546875 59.0771484375 20.96484375 c 4
 57.6357421875 25.677734375 57.8935546875 28.400390625 59.3662109375 31.23046875 c 4
 60.8427734375 34.06640625 63.6611328125 37.248046875 75.609375 46.291015625 c 4
 80.3193359375 49.85546875 107.98828125 70.966796875 181.350585938 127.6875 c 4
 193.712890625 137.24609375 228.122070312 163.845703125 242.029296875 174.171875 c 4
 273.67578125 197.674804688 296.920898438 209.53515625 320.796875 218.359375 c 4
 344.770507812 227.220703125 364.985351562 231.395507812 383.578125 231.395507812 c 4
 388.192382812 231.395507812 392.70703125 231.138671875 397.15625 230.6328125 c 4
 417.266601562 228.33984375 433.358398438 221.251953125 444.2890625 209.4765625 c 4
 456.224609375 196.631835938 458.369140625 182.129882812 451.279296875 167.830078125 c 4
 443.111328125 151.34765625 423.397460938 136.5859375 356.756835938 106.88671875 c 4
EndSplineSet
Validated: 524321
EndChar

StartChar: uni0302
Encoding: 770 770 70
Width: 1581
VWidth: 2048
GlyphClass: 4
Flags: HW
HStem: 544 90
VStem: 149.781 185.344<551.688 553>
AnchorPoint: "top" 261.434 608.75 mark 0
LayerCount: 2
Fore
SplineSet
446.28515625 527.75 m 5
 421.60546875 541.0390625 l 6
 407.68359375 549.0546875 382.58203125 563.1875 346.30078125 583.4375 c 4
 310.01953125 603.6875 281.96484375 618.875 262.138671875 629 c 5
 243.99609375 619.71875 217.62890625 605.1640625 183.03515625 585.3359375 c 4
 148.44140625 565.5078125 122.07421875 550.7421875 103.93359375 541.0390625 c 6
 79.25390625 527.75 l 5
 68.70703125 527.75 60.48046875 533.0234375 54.57421875 543.5703125 c 4
 54.15234375 544.4140625 53.94140625 545.046875 53.94140625 545.46875 c 4
 53.94140625 548 55.83984375 551.1640625 59.63671875 554.9609375 c 4
 127.55859375 625.4140625 178.60546875 676.0390625 212.77734375 706.8359375 c 4
 225.01171875 717.3828125 233.66015625 723.921875 238.72265625 726.453125 c 4
 243.78515625 728.984375 252.85546875 730.25 265.93359375 730.25 c 4
 275.63671875 730.25 283.01953125 728.984375 288.08203125 726.453125 c 4
 293.14453125 723.921875 301.37109375 717.3828125 312.76171875 706.8359375 c 4
 343.55859375 678.9921875 394.39453125 628.3671875 465.26953125 554.9609375 c 4
 469.06640625 551.1640625 470.96484375 548 470.96484375 545.46875 c 4
 470.96484375 544.625 470.75390625 543.9921875 470.33203125 543.5703125 c 4
 464.42578125 533.0234375 456.41015625 527.75 446.28515625 527.75 c 5
EndSplineSet
Validated: 524289
EndChar

StartChar: uni0308
Encoding: 776 776 71
Width: 1581
VWidth: 2048
GlyphClass: 4
Flags: HW
HStem: 71.4004 88.1992<208.024 271.077 373.623 437.577>
VStem: 194.101 90.8994<84.3953 146.605> 359.7 91.3496<84.3953 146.605>
AnchorPoint: "top" 331.25 50.7002 mark 0
LayerCount: 2
Fore
SplineSet
239.100585938 159.599609375 m 0
 251.700195312 159.599609375 262.5 155.400390625 271.5 147 c 0
 280.5 138.599609375 285 128.099609375 285 115.5 c 0
 285 102.900390625 280.5 92.400390625 271.5 84 c 0
 262.5 75.599609375 251.700195312 71.400390625 239.100585938 71.400390625 c 0
 227.099609375 71.400390625 216.600585938 75.599609375 207.600585938 84 c 0
 198.600585938 92.400390625 194.100585938 102.900390625 194.100585938 115.5 c 0
 194.100585938 128.099609375 198.600585938 138.599609375 207.600585938 147 c 0
 216.600585938 155.400390625 227.099609375 159.599609375 239.100585938 159.599609375 c 0
406.049804688 159.599609375 m 0
 418.349609375 159.599609375 429 155.400390625 438 147 c 0
 447 138.599609375 451.350585938 128.099609375 451.049804688 115.5 c 0
 451.350585938 102.900390625 447 92.400390625 438 84 c 0
 429 75.599609375 418.349609375 71.400390625 406.049804688 71.400390625 c 0
 393.149414062 71.400390625 382.200195312 75.599609375 373.200195312 84 c 0
 364.200195312 92.400390625 359.700195312 102.900390625 359.700195312 115.5 c 0
 359.700195312 128.099609375 364.200195312 138.599609375 373.200195312 147 c 0
 382.200195312 155.400390625 393.149414062 159.599609375 406.049804688 159.599609375 c 0
EndSplineSet
Validated: 33
EndChar

StartChar: Ccedilla
Encoding: 199 199 72
Width: 601
GlyphClass: 2
Flags: HW
HStem: -165.062 33.9814<256.846 353.52> -14.3303 34.3303<389.787 422.101> 730 35<283.761 405.225>
VStem: 43 120<216.48 529.188> 366.333 55.8291<-116.407 -28.7381>
LayerCount: 2
Fore
SplineSet
389.786563892 -14.3302885476 m 1
 392.674110653 -16.7157977373 395.254185359 -19.0258682822 397.280273438 -21.1298828125 c 0
 414.799804688 -39.3232421875 422.162109375 -56.1728515625 422.162109375 -76.2060546875 c 0
 422.162109375 -93.5556640625 416.640625 -110.122070312 404.649414062 -125.49609375 c 0
 394.55078125 -138.442382812 381.240234375 -148.779296875 364.38671875 -155.826171875 c 0
 350.087890625 -161.805664062 334.086914062 -165.0625 316.809570312 -165.0625 c 0
 299.536132812 -165.0625 283.6796875 -161.807617188 267.727539062 -154.163085938 c 0
 256.493164062 -148.780273438 248.280273438 -142.69140625 246.086914062 -138.303710938 c 0
 244.032226562 -134.1953125 246.014648438 -129.09765625 250.743164062 -122.627929688 c 0
 256.776367188 -114.372070312 261.166015625 -112.248046875 267.283203125 -117.458007812 c 0
 268.8125 -118.760742188 272.069335938 -121.16796875 274.115234375 -122.318359375 c 0
 276.600585938 -123.716796875 281.131835938 -125.416992188 285.014648438 -126.684570312 c 0
 295.008789062 -129.947265625 302.938476562 -131.081054688 311.814453125 -131.081054688 c 0
 329.842773438 -131.081054688 343.436523438 -126.407226562 352.715820312 -116.837890625 c 0
 361.720095009 -107.552263413 366.334597492 -93.9949361771 366.334597492 -77.0119547199 c 0
 366.334597492 -46.0233929652 350.610764129 -25.5266526898 318.048828125 -14.978515625 c 0
 314.736073817 -13.90532713 311.749781432 -12.7786581314 309.205133959 -11.6096932029 c 0
 143.614263214 11.6608891538 43 153.501586608 43 376 c 1
 43 605 163 765 355 765 c 0
 416 765 466 748 506 726 c 0
 521 718 531 705 535 693 c 0
 545 664 555 588 556 554 c 0
 556 543.425772641 552.902651406 535.639159016 547.569850751 535.639159016 c 0
 543.320560062 535.639159016 537.651925769 540.583071898 531 553 c 0
 465 678 413 730 342 730 c 0
 234 730 163 595 163 389 c 0
 163 151 238 20 366 20 c 0
 433 20 501 88 540 198 c 0
 545.174993385 212.113618323 551.013967511 217.816813932 555.538564108 217.816813932 c 0
 560.006251954 217.816813932 563.192417879 212.256181588 563.192417879 203.741271852 c 0
 563.192417879 202.234021782 559.583007406 124.178871596 546 54 c 0
 543 38 537 25 521 17 c 0
 481.56729005 -1.00188932492 447.278516914 -11.6552974873 389.786563892 -14.3302885476 c 1
EndSplineSet
Validated: 1
EndChar

StartChar: ccedilla
Encoding: 231 231 73
Width: 465
GlyphClass: 2
Flags: HW
HStem: -155.062 33.9814<136.846 233.52> 501 29<205.568 282.607>
VStem: 39 96<152.538 370.783> 246.333 55.8291<-106.407 -18.4132>
LayerCount: 2
Fore
SplineSet
215.434313615 -12.4270226947 m 1
 117.063915474 2.61872408271 39.000000024 84.4487085369 39 254 c 0
 39 417 147 530 274 530 c 0
 336 530 386 503 413 463 c 0
 418.157798255 456.048184961 420.449123312 448.392323872 420.449123312 440.697784193 c 0
 420.449123312 414.080316332 393.029916078 387 362 387 c 0
 305 387 313 501 250 501 c 0
 182 501 135 417 135 285 c 0
 135 124.155788163 202.033169972 54.9892940815 281.289574013 54.9892940815 c 0
 281.859091639 54.9892940815 282.429240413 54.9928655052 283 55 c 0
 333 56 379 80 420 131 c 0
 427.071428571 139.642857143 433.371173469 143.964285714 437.32279519 143.964285714 c 0
 440.026766862 143.964285714 441.63129122 141.940889718 441.63129122 137.894097727 c 0
 441.63129122 132.801012861 439.089813092 124.502980285 433 113 c 0
 396.235190176 45.5978486564 344.145536346 -1.88200547861 278.743234899 -12.6712598609 c 1
 295.210584976 -30.2794091348 302.162109326 -46.7397493124 302.162109375 -66.2060546875 c 0
 302.162109375 -83.5556640625 296.640625 -100.122070312 284.649414062 -115.49609375 c 0
 274.55078125 -128.442382812 261.240234375 -138.779296875 244.38671875 -145.826171875 c 0
 230.087890625 -151.805664062 214.086914062 -155.0625 196.809570312 -155.0625 c 0
 179.536132812 -155.0625 163.6796875 -151.807617188 147.727539062 -144.163085938 c 0
 136.493164062 -138.780273438 128.280273438 -132.69140625 126.086914062 -128.303710938 c 0
 124.032226562 -124.1953125 126.014648438 -119.09765625 130.743164062 -112.627929688 c 0
 136.776367188 -104.372070312 141.166015625 -102.248046875 147.283203125 -107.458007812 c 0
 148.8125 -108.760742188 152.069335938 -111.16796875 154.115234375 -112.318359375 c 0
 156.600585938 -113.716796875 161.131835938 -115.416992188 165.014648438 -116.684570312 c 0
 175.008789062 -119.947265625 182.938476562 -121.081054688 191.814453125 -121.081054688 c 0
 209.842773438 -121.081054688 223.436523438 -116.407226562 232.715820312 -106.837890625 c 0
 241.720095009 -97.5522634125 246.334597492 -83.994936177 246.334597492 -67.0119547189 c 0
 246.334597492 -42.1652655217 236.225959422 -24.0636252946 215.434313615 -12.4270226947 c 1
EndSplineSet
Validated: 1
EndChar

StartChar: Idieresis
Encoding: 207 207 74
Width: 361
GlyphClass: 2
Flags: H
LayerCount: 2
Fore
SplineSet
49 0 m 0
 34.2587890625 0 26.494140625 5.16796875 26.494140625 10.775390625 c 0
 26.494140625 16.1982421875 33.7578125 22.033203125 49 24 c 0
 107 31 122 54 125 110 c 0
 127 151 128 236 128 366 c 0
 128 476 127 612 125 640 c 0
 122 697 107 719 49 726 c 0
 33.7578125 727.966796875 26.494140625 733.801757812 26.494140625 739.224609375 c 0
 26.494140625 744.83203125 34.2587890625 750 49 750 c 0
 90 750 121 743 178 743 c 0
 246 743 277 747 314 750 c 0
 315.168945312 750.086914062 316.290039062 750.127929688 317.361328125 750.127929688 c 0
 328.7734375 750.127929688 334.626953125 745.409179688 334.626953125 740.092773438 c 0
 334.626953125 734.381835938 327.873046875 727.981445312 314 726 c 0
 252 718 237 686 236 641 c 0
 234 552 232 461 232 366 c 0
 232 242 234 159 236 109 c 0
 238 64 254 31 314 24 c 0
 327.873046875 22.0185546875 334.626953125 15.6181640625 334.626953125 9.9072265625 c 0
 334.626953125 4.5908203125 328.7734375 -0.1279296875 317.361328125 -0.1279296875 c 0
 316.290039062 -0.1279296875 315.168945312 -0.0869140625 314 0 c 0
 277 3 246 7 183 7 c 0
 121 7 90 0 49 0 c 0
85.8505859375 918.899414062 m 0
 98.4501953125 918.899414062 109.25 914.700195312 118.25 906.299804688 c 0
 127.25 897.899414062 131.75 887.399414062 131.75 874.799804688 c 0
 131.75 862.200195312 127.25 851.700195312 118.25 843.299804688 c 0
 109.25 834.899414062 98.4501953125 830.700195312 85.8505859375 830.700195312 c 0
 73.849609375 830.700195312 63.3505859375 834.899414062 54.3505859375 843.299804688 c 0
 45.3505859375 851.700195312 40.8505859375 862.200195312 40.8505859375 874.799804688 c 0
 40.8505859375 887.399414062 45.3505859375 897.899414062 54.3505859375 906.299804688 c 0
 63.3505859375 914.700195312 73.849609375 918.899414062 85.8505859375 918.899414062 c 0
252.799804688 918.899414062 m 0
 265.099609375 918.899414062 275.75 914.700195312 284.75 906.299804688 c 0
 293.75 897.899414062 298.100585938 887.399414062 297.799804688 874.799804688 c 0
 298.100585938 862.200195312 293.75 851.700195312 284.75 843.299804688 c 0
 275.75 834.899414062 265.099609375 830.700195312 252.799804688 830.700195312 c 0
 239.899414062 830.700195312 228.950195312 834.899414062 219.950195312 843.299804688 c 0
 210.950195312 851.700195312 206.450195312 862.200195312 206.450195312 874.799804688 c 0
 206.450195312 887.399414062 210.950195312 897.899414062 219.950195312 906.299804688 c 0
 228.950195312 914.700195312 239.899414062 918.899414062 252.799804688 918.899414062 c 0
EndSplineSet
Validated: 33
EndChar

StartChar: Adieresis
Encoding: 196 196 79
Width: 627
Flags: H
LayerCount: 2
Fore
SplineSet
23 0 m 0x9c
 20.75 -0.25 18.6669921875 -0.3681640625 16.75390625 -0.3681640625 c 0
 6.5517578125 -0.3681640625 1.1875 2.98828125 1.1875 7.5966796875 c 0
 1.1875 12.494140625 7.248046875 18.8046875 20 24 c 0x9c
 72 44 107 132 124 186 c 0
 148 261 206 478 247 632 c 0
 248.780273438 637.637695312 249.592773438 643.364257812 249.592773438 649.361328125 c 0
 249.592773438 663.57421875 245.032226562 679.30859375 238 699 c 0
 237.48046875 700.706054688 237.231445312 702.374023438 237.231445312 704.014648438 c 0
 237.231445312 724.495117188 276.115234375 740.818359375 315 776 c 0
 318.629882812 779.629882812 323.907226562 781.819335938 328.963867188 781.819335938 c 0
 335.049804688 781.819335938 340.815429688 778.647460938 343 771 c 2
 461 348 l 2
 475 297 516 166 535 109 c 0
 550 64 572 31 608 24 c 0x3c
 622.366210938 21.126953125 629.165039062 15.04296875 629.165039062 9.8125 c 0
 629.165039062 4.8740234375 623.10546875 0.6953125 611.633789062 0.6953125 c 0
 609.880859375 0.6953125 608.002929688 0.79296875 606 1 c 0
 581 3 564 7 507 7 c 0
 457 7 401 0 343 0 c 0
 328.7421875 0 321.494140625 4.8349609375 321.494140625 10.2255859375 c 0
 321.494140625 15.798828125 329.241210938 21.966796875 345 24 c 0x5c
 401.278320312 28.689453125 422.731445312 44.376953125 422.731445312 77.7470703125 c 0
 422.731445312 87.0693359375 421.056640625 97.771484375 418 110 c 0
 410 141 394 199 378 253 c 0
 374 265 366 269 353 269 c 2
 202 269 l 2
 189 269 183 265 178 251 c 0
 171 231 164 208 160 189 c 0
 155.173828125 168.661132812 151.060546875 144.044921875 151.060546875 119.983398438 c 0
 151.060546875 74.2470703125 165.922851562 30.5185546875 219 22 c 0
 233.748046875 19.8935546875 241.560546875 13.90234375 241.560546875 8.703125 c 0
 241.560546875 4.0322265625 235.251953125 -0 222 0 c 0
 157 0 127 7 98 7 c 0
 74 7 41 2 23 0 c 0x9c
216 299 m 2
 339 299 l 2
 351.575195312 299 358.590820312 303.94140625 358.590820312 313.825195312 c 0
 358.590820312 316.516601562 358.0703125 319.575195312 357 323 c 0
 354 337 309 503 285 582 c 0
 282.9375 589.217773438 279.546875 593.51171875 275.922851562 593.51171875 c 0
 272.517578125 593.51171875 268.90625 589.719726562 266 581 c 0
 247 514 221 409 197 323 c 0
 196.30859375 320.233398438 195.975585938 317.706054688 195.975585938 315.418945312 c 0
 195.975585938 304.47265625 203.59375 299 216 299 c 2
227.850585938 903.899414062 m 0
 240.450195312 903.899414062 251.25 899.700195312 260.25 891.299804688 c 0
 269.25 882.899414062 273.75 872.399414062 273.75 859.799804688 c 0
 273.75 847.200195312 269.25 836.700195312 260.25 828.299804688 c 0
 251.25 819.899414062 240.450195312 815.700195312 227.850585938 815.700195312 c 0
 215.849609375 815.700195312 205.350585938 819.899414062 196.350585938 828.299804688 c 0
 187.350585938 836.700195312 182.850585938 847.200195312 182.850585938 859.799804688 c 0
 182.850585938 872.399414062 187.350585938 882.899414062 196.350585938 891.299804688 c 0
 205.350585938 899.700195312 215.849609375 903.899414062 227.850585938 903.899414062 c 0
394.799804688 903.899414062 m 0
 407.099609375 903.899414062 417.75 899.700195312 426.75 891.299804688 c 0
 435.75 882.899414062 440.100585938 872.399414062 439.799804688 859.799804688 c 0
 440.100585938 847.200195312 435.75 836.700195312 426.75 828.299804688 c 0
 417.75 819.899414062 407.099609375 815.700195312 394.799804688 815.700195312 c 0
 381.899414062 815.700195312 370.950195312 819.899414062 361.950195312 828.299804688 c 0
 352.950195312 836.700195312 348.450195312 847.200195312 348.450195312 859.799804688 c 0
 348.450195312 872.399414062 352.950195312 882.899414062 361.950195312 891.299804688 c 0
 370.950195312 899.700195312 381.899414062 903.899414062 394.799804688 903.899414062 c 0
EndSplineSet
Validated: 33
EndChar

StartChar: Odieresis
Encoding: 214 214 86
Width: 676
Flags: HW
LayerCount: 2
Fore
SplineSet
338 -15 m 0
 159 -15 43 136 43 376 c 0
 43 619 159 765 338 765 c 0
 517 765 632 619 632 378 c 0
 632 136 517 -15 338 -15 c 0
345 19 m 0
 452 19 512 150 512 376 c 0
 512 604 437 731 330 731 c 0
 223 731 163 606 163 379 c 0
 163 150 238 19 345 19 c 0
210.11328125 968.94921875 m 4
 229.012695312 968.94921875 245.211914062 962.650390625 258.711914062 950.049804688 c 4
 272.211914062 937.44921875 278.961914062 921.69921875 278.961914062 902.799804688 c 4
 278.961914062 883.900390625 272.211914062 868.150390625 258.711914062 855.549804688 c 4
 245.211914062 842.94921875 229.012695312 836.650390625 210.11328125 836.650390625 c 4
 192.111328125 836.650390625 176.36328125 842.94921875 162.86328125 855.549804688 c 4
 149.36328125 868.150390625 142.61328125 883.900390625 142.61328125 902.799804688 c 4
 142.61328125 921.69921875 149.36328125 937.44921875 162.86328125 950.049804688 c 4
 176.36328125 962.650390625 192.111328125 968.94921875 210.11328125 968.94921875 c 4
460.537109375 968.94921875 m 4
 478.986328125 968.94921875 494.961914062 962.650390625 508.461914062 950.049804688 c 4
 521.961914062 937.44921875 528.48828125 921.69921875 528.037109375 902.799804688 c 4
 528.48828125 883.900390625 521.961914062 868.150390625 508.461914062 855.549804688 c 4
 494.961914062 842.94921875 478.986328125 836.650390625 460.537109375 836.650390625 c 4
 441.186523438 836.650390625 424.762695312 842.94921875 411.262695312 855.549804688 c 4
 397.762695312 868.150390625 391.012695312 883.900390625 391.012695312 902.799804688 c 4
 391.012695312 921.69921875 376.950195312 885.899414062 385.950195312 894.299804688 c 0
 394.950195312 902.700195312 441.186523438 968.94921875 460.537109375 968.94921875 c 4
EndSplineSet
Validated: 524325
EndChar

StartChar: adieresis
Encoding: 228 228 93
Width: 488
Flags: HW
LayerCount: 2
Fore
SplineSet
153 -15 m 0xb8
 91 -15 47 20 47 76 c 0xb8
 47 160 158 208 230 248 c 0
 288 280 296 294 296 326 c 2
 296 422 l 2
 296 476 275 499 238 499 c 0
 193 499 168 461 158 408 c 0
 145 336 111 319 76 319 c 0
 57.224609375 319 39.578125 329.15234375 39.578125 350.302734375 c 0
 39.578125 357.31640625 41.517578125 365.538085938 46 375 c 0
 83 453 189 530 279 530 c 0
 354 530 391 485 391 408 c 2
 391 93 l 2
 391 54 406 29 432 28 c 0
 433.282226562 27.8935546875 434.49609375 27.84375 435.657226562 27.84375 c 0
 445.362304688 27.84375 451.388671875 31.3203125 463 34 c 0
 464.813476562 34.5439453125 466.725585938 34.8251953125 468.52734375 34.8251953125 c 0
 472.95703125 34.8251953125 476.720703125 33.1279296875 476.720703125 29.466796875 c 0
 476.720703125 26.404296875 474.0859375 21.966796875 467 16 c 0
 445 -2 422 -14 390 -14 c 0
 358 -14 337 -4 315 30 c 0
 306 44 303 52 295 52 c 0x78
 289 52 284 47 280 43 c 0
 244 10 212 -15 153 -15 c 0xb8
208 40 m 0
 260 40 296 79 296 126 c 2
 296 220 l 2
 296 236 292 244 281 244 c 0
 272 244 251 232 236 222 c 0
 186 191 148 147 148 105 c 0
 148 67 169 40 208 40 c 0
153.850585938 680.899414062 m 0
 166.450195312 680.899414062 177.25 676.700195312 186.25 668.299804688 c 0
 195.25 659.899414062 199.75 649.399414062 199.75 636.799804688 c 0
 199.75 624.200195312 195.25 613.700195312 186.25 605.299804688 c 0
 177.25 596.899414062 166.450195312 592.700195312 153.850585938 592.700195312 c 0
 141.849609375 592.700195312 131.350585938 596.899414062 122.350585938 605.299804688 c 0
 113.350585938 613.700195312 108.850585938 624.200195312 108.850585938 636.799804688 c 0
 108.850585938 649.399414062 113.350585938 659.899414062 122.350585938 668.299804688 c 0
 131.350585938 676.700195312 141.849609375 680.899414062 153.850585938 680.899414062 c 0
320.799804688 680.899414062 m 0
 333.099609375 680.899414062 343.75 676.700195312 352.75 668.299804688 c 0
 361.75 659.899414062 366.100585938 649.399414062 365.799804688 636.799804688 c 0
 366.100585938 624.200195312 361.75 613.700195312 352.75 605.299804688 c 0
 343.75 596.899414062 333.099609375 592.700195312 320.799804688 592.700195312 c 0
 307.899414062 592.700195312 296.950195312 596.899414062 287.950195312 605.299804688 c 0
 278.950195312 613.700195312 274.450195312 624.200195312 274.450195312 636.799804688 c 0
 274.450195312 649.399414062 278.950195312 659.899414062 287.950195312 668.299804688 c 0
 296.950195312 676.700195312 307.899414062 680.899414062 320.799804688 680.899414062 c 0
EndSplineSet
Validated: 33
EndChar

StartChar: edieresis
Encoding: 235 235 97
Width: 480
Flags: HW
LayerCount: 2
Fore
SplineSet
240 -15 m 0xf4
 125 -15 39 74 39 244 c 0
 39 427 143 530 262 530 c 0
 377.120117188 530 442.01171875 440.375 442.01171875 369.618164062 c 0
 442.01171875 335.709960938 427.625976562 310 384 310 c 2
 173 310 l 2
 149 310 137 301 137 272 c 0
 137 129.94140625 197.200195312 54.990234375 286.2265625 54.990234375 c 0
 286.81640625 54.990234375 287.407226562 54.9931640625 288 55 c 0
 347 56 392 82 423 120 c 0
 431.475585938 130.787109375 438.318359375 135.637695312 442.442382812 135.637695312 c 0
 445.201171875 135.637695312 446.743164062 133.466796875 446.743164062 129.451171875 c 0
 446.743164062 123.887695312 443.783203125 114.782226562 437 103 c 0
 388 18 312 -15 240 -15 c 0xf4
179 336 m 0xec
 184.565429688 336 189.953125 335.998046875 195.16796875 335.998046875 c 0
 309.892578125 335.998046875 341 336.913085938 341 379 c 0
 341 450 303 503 249 503 c 0
 196 503 157 456 147 376 c 0
 146.3671875 371.409179688 146.034179688 367.268554688 146.034179688 363.552734375 c 0
 146.034179688 343.79296875 155.432617188 336 179 336 c 0xec
158.850585938 678.899414062 m 0
 171.450195312 678.899414062 182.25 674.700195312 191.25 666.299804688 c 0
 200.25 657.899414062 204.75 647.399414062 204.75 634.799804688 c 0
 204.75 622.200195312 200.25 611.700195312 191.25 603.299804688 c 0
 182.25 594.899414062 171.450195312 590.700195312 158.850585938 590.700195312 c 0
 146.849609375 590.700195312 136.350585938 594.899414062 127.350585938 603.299804688 c 0
 118.350585938 611.700195312 113.850585938 622.200195312 113.850585938 634.799804688 c 0
 113.850585938 647.399414062 118.350585938 657.899414062 127.350585938 666.299804688 c 0
 136.350585938 674.700195312 146.849609375 678.899414062 158.850585938 678.899414062 c 0
325.799804688 678.899414062 m 0
 338.099609375 678.899414062 348.75 674.700195312 357.75 666.299804688 c 0
 366.75 657.899414062 371.100585938 647.399414062 370.799804688 634.799804688 c 0
 371.100585938 622.200195312 366.75 611.700195312 357.75 603.299804688 c 0
 348.75 594.899414062 338.099609375 590.700195312 325.799804688 590.700195312 c 0
 312.899414062 590.700195312 301.950195312 594.899414062 292.950195312 603.299804688 c 0
 283.950195312 611.700195312 279.450195312 622.200195312 279.450195312 634.799804688 c 0
 279.450195312 647.399414062 283.950195312 657.899414062 292.950195312 666.299804688 c 0
 301.950195312 674.700195312 312.899414062 678.899414062 325.799804688 678.899414062 c 0
EndSplineSet
Validated: 33
EndChar

StartChar: icircumflex
Encoding: 238 238 98
Width: 361
Flags: HW
HStem: 0 22<5.97925 68.0691 243.261 301.047> 465 24<26.7691 75.625>
VStem: 106 92<50.1885 446.375>
LayerCount: 2
Fore
SplineSet
257.0078125 571.5 m 5
 240.5546875 580.359375 l 6
 231.2734375 585.703125 214.5390625 595.125 190.3515625 608.625 c 4
 166.1640625 622.125 147.4609375 632.25 134.243164062 639 c 5
 122.1484375 632.8125 104.5703125 623.109375 81.5078125 609.890625 c 4
 58.4453125 596.671875 40.8671875 586.828125 28.7734375 580.359375 c 6
 12.3203125 571.5 l 5
 5.2890625 571.5 -0.1953125 575.015625 -4.1328125 582.046875 c 4
 -4.4140625 582.609375 -4.5546875 583.03125 -4.5546875 583.3125 c 4
 -4.5546875 585 -3.2890625 587.109375 -0.7578125 589.640625 c 4
 44.5234375 636.609375 78.5546875 670.359375 101.3359375 690.890625 c 4
 109.4921875 697.921875 115.2578125 702.28125 118.6328125 703.96875 c 4
 122.0078125 705.65625 128.0546875 706.5 136.7734375 706.5 c 4
 143.2421875 706.5 148.1640625 705.65625 151.5390625 703.96875 c 4
 154.9140625 702.28125 160.3984375 697.921875 167.9921875 690.890625 c 4
 188.5234375 672.328125 222.4140625 638.578125 269.6640625 589.640625 c 4
 272.1953125 587.109375 273.4609375 585 273.4609375 583.3125 c 4
 273.4609375 582.75 273.3203125 582.328125 273.0390625 582.046875 c 4
 269.1015625 575.015625 263.7578125 571.5 257.0078125 571.5 c 5
26 0 m 0
 11.1440870921 0 3.11118471516 4.72362267523 3.11118471516 9.86903035073 c 0
 3.11118471516 14.7678941727 10.3927314845 20.0490914356 26 22 c 0
 82 28 100 50 103 103 c 0
 106 155 106 201 106 255 c 0
 106 314 103 369 99 411 c 0
 96 442 76 461 44 465 c 0
 31.4376909373 466.570288633 24.0809731432 471.702297607 24.0809731432 476.954224483 c 0
 24.0809731432 481.735982051 30.1794567841 486.617147721 44 489 c 0
 83 496 137 508 178 527 c 0
 181.543601071 529.067100625 185.087202143 530.087775537 188.296042807 530.087775537 c 0
 195.527274803 530.087775537 201.058454148 524.904363597 201.058454148 514.83224177 c 0
 201.058454148 512.233739355 198 549.712027993 198 255 c 0
 198 207 201 155 202 102 c 0
 203 60 223 29 283 22 c 0
 297 20.5 304 14.5 304 9.25 c 0
 304 4.6966991411 298.734590803 0.707549267553 288.20377241 0.707549267553 c 0
 286.59245518 0.707549267553 284.857864376 0.800943102543 283 1 c 0
 254 3 212 7 157 7 c 0
 102 7 67 0 26 0 c 0
EndSplineSet
Validated: 524321
EndChar

StartChar: idieresis
Encoding: 239 239 99
Width: 312
Flags: W
HStem: 0 22<5.97925 68.0691 243.261 301.047> 465 24<26.7691 75.625> 589.801 88.1992<44.9738 108.027 210.574 274.527>
VStem: 31.0508 90.8994<602.796 665.005> 106 92<50.1885 446.375> 196.65 91.3496<602.796 665.005>
LayerCount: 2
Fore
SplineSet
76.05078125 678 m 4xf0
 88.650390625 678 99.4501953125 673.80078125 108.450195312 665.400390625 c 4
 117.450195312 657 121.950195312 646.5 121.950195312 633.900390625 c 4
 121.950195312 621.30078125 117.450195312 610.80078125 108.450195312 602.400390625 c 4
 99.4501953125 594 88.650390625 589.80078125 76.05078125 589.80078125 c 4
 64.0498046875 589.80078125 53.55078125 594 44.55078125 602.400390625 c 4
 35.55078125 610.80078125 31.05078125 621.30078125 31.05078125 633.900390625 c 4
 31.05078125 646.5 35.55078125 657 44.55078125 665.400390625 c 4
 53.55078125 673.80078125 64.0498046875 678 76.05078125 678 c 4xf0
243 678 m 4
 255.299804688 678 265.950195312 673.80078125 274.950195312 665.400390625 c 4
 283.950195312 657 288.30078125 646.5 288 633.900390625 c 4
 288.30078125 621.30078125 283.950195312 610.80078125 274.950195312 602.400390625 c 4
 265.950195312 594 255.299804688 589.80078125 243 589.80078125 c 4
 230.099609375 589.80078125 219.150390625 594 210.150390625 602.400390625 c 4
 201.150390625 610.80078125 196.650390625 621.30078125 196.650390625 633.900390625 c 4xe4
 196.650390625 646.5 201.150390625 657 210.150390625 665.400390625 c 4
 219.150390625 673.80078125 230.099609375 678 243 678 c 4
26 0 m 0
 11.1440870921 0 3.11118471516 4.72362267523 3.11118471516 9.86903035073 c 0
 3.11118471516 14.7678941727 10.3927314845 20.0490914356 26 22 c 0
 82 28 100 50 103 103 c 0
 106 155 106 201 106 255 c 0
 106 314 103 369 99 411 c 0
 96 442 76 461 44 465 c 0
 31.4376909373 466.570288633 24.0809731432 471.702297607 24.0809731432 476.954224483 c 0
 24.0809731432 481.735982051 30.1794567841 486.617147721 44 489 c 0
 83 496 137 508 178 527 c 0
 181.543601071 529.067100625 185.087202143 530.087775537 188.296042807 530.087775537 c 0
 195.527274803 530.087775537 201.058454148 524.904363597 201.058454148 514.83224177 c 0
 201.058454148 512.233739355 198 549.712027993 198 255 c 0xe8
 198 207 201 155 202 102 c 0
 203 60 223 29 283 22 c 0
 297 20.5 304 14.5 304 9.25 c 0
 304 4.6966991411 298.734590803 0.707549267553 288.20377241 0.707549267553 c 0
 286.59245518 0.707549267553 284.857864376 0.800943102543 283 1 c 0
 254 3 212 7 157 7 c 0
 102 7 67 0 26 0 c 0
EndSplineSet
Validated: 33
EndChar

StartChar: udieresis
Encoding: 252 252 104
Width: 579
Flags: HW
LayerCount: 2
Fore
SplineSet
217 -15 m 0x9e
 156 -15 88 14 88 138 c 2
 88 404 l 2
 88 453 66 466 39 469 c 0
 24.4287109375 470.561523438 16.0869140625 476.184570312 16.0869140625 481.923828125 c 0
 16.0869140625 487.213867188 23.1728515625 492.6015625 39 495 c 0
 79 501 128 509 161 525 c 0
 167.584960938 528.465820312 173.330078125 530.490234375 177.900390625 530.490234375 c 0
 185.16015625 530.490234375 189.458007812 525.381835938 189.458007812 512.827148438 c 0
 189.458007812 510.483398438 189.30859375 507.87890625 189 505 c 0
 181.799804688 427.599609375 180.360351562 375.759765625 180.360351562 335.0078125 c 0
 180.360351562 307.83984375 181 285.599609375 181 264 c 2
 183 151 l 2
 185 92 205 55 260 55 c 0x9e
 322 55 382 118 389 234 c 0
 390.799804688 267.599609375 391.16015625 301.200195312 391.16015625 337.391601562 c 0
 391.16015625 361.51953125 391 386.799804688 391 414 c 0
 391 453 365 467 334 470 c 0
 321.4375 471.046875 314.081054688 476.203125 314.081054688 481.59765625 c 0
 314.081054688 486.508789062 320.1796875 491.6171875 334 494 c 0
 375 501 433 511 466 527 c 0
 469.689453125 529.15234375 473.47265625 530.169921875 476.915039062 530.169921875 c 0
 484.26171875 530.169921875 490.0546875 525.532226562 490.0546875 517.388671875 c 0
 490.0546875 514.853515625 484 470.170898438 484 264 c 0
 484 208 487 128 491 97 c 0
 495 66 515 50 546 49 c 0
 557.836914062 47.970703125 564.641601562 42.96875 564.641601562 37.673828125 c 0
 564.641601562 32.6806640625 558.58984375 27.4267578125 545 25 c 0
 505 18 449 6 416 -8 c 0x7e
 412.071289062 -9.9638671875 408.036132812 -10.9638671875 404.418945312 -10.9638671875 c 0
 397.390625 -10.9638671875 391.9453125 -7.1884765625 391.9453125 0.619140625 c 0
 391.9453125 1.7744140625 397 79.2783203125 397 116 c 0
 397 123 395 129 390 129 c 0
 385 129 381 123 378 116 c 0x9d
 338 22 290 -15 217 -15 c 0x9e
149.11328125 814.94921875 m 4
 168.012695312 814.94921875 184.211914062 808.650390625 197.711914062 796.049804688 c 4
 211.211914062 783.44921875 217.961914062 767.69921875 217.961914062 748.799804688 c 4
 217.961914062 729.900390625 211.211914062 714.150390625 197.711914062 701.549804688 c 4
 184.211914062 688.94921875 168.012695312 682.650390625 149.11328125 682.650390625 c 4
 131.111328125 682.650390625 115.36328125 688.94921875 101.86328125 701.549804688 c 4
 88.36328125 714.150390625 81.61328125 729.900390625 81.61328125 748.799804688 c 4
 81.61328125 767.69921875 88.36328125 783.44921875 101.86328125 796.049804688 c 4
 115.36328125 808.650390625 131.111328125 814.94921875 149.11328125 814.94921875 c 4
399.537109375 814.94921875 m 4
 417.986328125 814.94921875 433.961914062 808.650390625 447.461914062 796.049804688 c 4
 460.961914062 783.44921875 467.48828125 767.69921875 467.037109375 748.799804688 c 4
 467.48828125 729.900390625 460.961914062 714.150390625 447.461914062 701.549804688 c 4
 433.961914062 688.94921875 417.986328125 682.650390625 399.537109375 682.650390625 c 4
 380.186523438 682.650390625 363.762695312 688.94921875 350.262695312 701.549804688 c 4
 336.762695312 714.150390625 330.012695312 729.900390625 330.012695312 748.799804688 c 4
 330.012695312 767.69921875 336.762695312 783.44921875 350.262695312 796.049804688 c 4
 363.762695312 808.650390625 380.186523438 814.94921875 399.537109375 814.94921875 c 4
EndSplineSet
Validated: 524321
EndChar

StartChar: ydieresis
Encoding: 255 255 105
Width: 501
Flags: HW
LayerCount: 2
Fore
SplineSet
50 -208 m 0xd8
 2.712890625 -208 -40.740234375 -161.223632812 -40.740234375 -132.805664062 c 0
 -40.740234375 -128.771484375 -39.8642578125 -125.107421875 -38 -122 c 0
 -31.51171875 -113.1953125 -15.5751953125 -110.833007812 3.83984375 -110.833007812 c 0
 26.3203125 -110.833007812 53.4638671875 -114 76 -114 c 0
 142 -114 177 -93 216 -1 c 0
 218.481445312 4.7080078125 219.546875 11.3408203125 219.546875 18.65234375 c 0
 219.546875 40.80078125 209.7734375 69.1826171875 200 97 c 0
 163 207 108 374 81 449 c 0
 72 473 52 487 15 493 c 0
 2.8818359375 495.423828125 -2.892578125 500.666992188 -2.892578125 505.3125 c 0
 -2.892578125 509.978515625 2.9326171875 514.041992188 14.0048828125 514.041992188 c 0
 14.65234375 514.041992188 15.3173828125 514.028320312 16 514 c 0
 40.1171875 512.529296875 65.1865234375 512.010742188 90.724609375 512.010742188 c 0
 152.013671875 512.010742188 216 515 276 515 c 0
 342 515 377.333007812 511.444335938 418.741210938 511.444335938 c 0
 439.444335938 511.444335938 461.666992188 512.333007812 490 515 c 0xd8
 491.224609375 515.116210938 492.379882812 515.171875 493.46875 515.171875 c 0
 502.181640625 515.171875 506.537109375 511.619140625 506.537109375 507.462890625 c 0
 506.537109375 503.231445312 502.025390625 498.375 493 496 c 0xb8
 450 484 426 455 400 384 c 0
 304 114 197 -208 50 -208 c 0xd8
294 169 m 0
 330 262 360 365 376 413 c 0
 379.556640625 422.546875 381.361328125 431.393554688 381.361328125 439.466796875 c 0
 381.361328125 474.51953125 347.33984375 495 275 495 c 0
 222.161132812 495 188.932617188 480.473632812 188.932617188 448.326171875 c 0
 188.932617188 442.751953125 189.931640625 436.649414062 192 430 c 0
 210 365 238 275 273 171 c 0
 276.045898438 161.86328125 280.12109375 157.622070312 284.05078125 157.622070312 c 0
 287.86328125 157.622070312 291.538085938 161.61328125 294 169 c 0
127.11328125 788.94921875 m 4
 146.012695312 788.94921875 162.211914062 782.650390625 175.711914062 770.049804688 c 4
 189.211914062 757.44921875 195.961914062 741.69921875 195.961914062 722.799804688 c 4
 195.961914062 703.900390625 189.211914062 688.150390625 175.711914062 675.549804688 c 4
 162.211914062 662.94921875 146.012695312 656.650390625 127.11328125 656.650390625 c 4
 109.111328125 656.650390625 93.36328125 662.94921875 79.86328125 675.549804688 c 4
 66.36328125 688.150390625 59.61328125 703.900390625 59.61328125 722.799804688 c 4
 59.61328125 741.69921875 66.36328125 757.44921875 79.86328125 770.049804688 c 4
 93.36328125 782.650390625 109.111328125 788.94921875 127.11328125 788.94921875 c 4
377.537109375 788.94921875 m 4
 395.986328125 788.94921875 411.961914062 782.650390625 425.461914062 770.049804688 c 4
 438.961914062 757.44921875 445.48828125 741.69921875 445.037109375 722.799804688 c 4
 445.48828125 703.900390625 438.961914062 688.150390625 425.461914062 675.549804688 c 4
 411.961914062 662.94921875 395.986328125 656.650390625 377.537109375 656.650390625 c 4
 358.186523438 656.650390625 341.762695312 662.94921875 328.262695312 675.549804688 c 4
 314.762695312 688.150390625 308.012695312 703.900390625 308.012695312 722.799804688 c 4
 308.012695312 741.69921875 314.762695312 757.44921875 328.262695312 770.049804688 c 4
 341.762695312 782.650390625 358.186523438 788.94921875 377.537109375 788.94921875 c 4
EndSplineSet
Validated: 524321
EndChar

StartChar: Edieresis
Encoding: 203 203 107
Width: 591
Flags: HW
LayerCount: 2
Fore
SplineSet
48 0 m 0xf4
 33.64453125 0 25.8603515625 5.2568359375 25.8603515625 10.919921875 c 0
 25.8603515625 16.3017578125 32.8935546875 22.05078125 48 24 c 0
 105 30 122 53 125 108 c 0
 127 150 128 236 128 366 c 0
 128 476 127 612 125 643 c 0
 123 699 102 719 49 725 c 0
 34.126953125 726.983398438 26.873046875 732.8984375 26.873046875 738.360351562 c 0
 26.873046875 743.915039062 34.376953125 749 49 749 c 0
 85 749 121 742 174 742 c 0
 280 742 333 750 381 750 c 0
 421 750 452 746 478 740 c 0
 497 736 505 723 508 698 c 0
 508.161132812 696.51953125 521.044921875 570.564453125 521.044921875 549.625976562 c 0
 521.044921875 536.216796875 516.590820312 529.153320312 511.271484375 529.153320312 c 0
 506.735351562 529.153320312 501.571289062 534.287109375 498 545 c 0
 467.166992188 631.53125 420.506835938 723.0078125 322.596679688 723.0078125 c 0
 322.06640625 723.0078125 321.534179688 723.005859375 321 723 c 0
 255 722 236 691 235 642 c 2
 232 440 l 2
 231.03515625 407.204101562 241.236328125 393.946289062 272.474609375 393.946289062 c 0
 273.62109375 393.946289062 274.795898438 393.96484375 276 394 c 0
 309 395 315 395 332 397 c 0xf6
 380 403 407 433 417 494 c 0
 419.438476562 509.607421875 424.731445312 516.888671875 429.514648438 516.888671875 c 0
 434.5390625 516.888671875 439 508.85546875 439 494 c 0
 439 450 432 398 432 380 c 0
 432 345.033203125 439.140625 266.659179688 439.140625 259.458984375 c 0
 439.140625 248.36328125 434.75 242.359375 429.8203125 242.359375 c 0
 424.676757812 242.359375 418.9453125 248.89453125 417 263 c 0
 406 336 372 362 333 365 c 0
 304 367 296 367 275 367 c 0
 243 367 231 355 231 322 c 0
 231 243 232 167 235 109 c 0
 237 64 256 26 322 26 c 0xfa
 323.462890625 25.97265625 324.919921875 25.958984375 326.37109375 25.958984375 c 0
 430.064453125 25.958984375 503.62109375 95.8974609375 548 160 c 0
 558.32421875 173.915039062 566.6328125 180.375 571.841796875 180.375 c 0
 575.71484375 180.375 577.874023438 176.8046875 577.874023438 170.073242188 c 0
 577.874023438 165.686523438 576.95703125 159.958007812 575 153 c 0
 544 38 527 0 446 0 c 0
 265 0 283 7 178 7 c 0
 123 7 89 0 48 0 c 0xf4
179.850585938 928.899414062 m 0
 192.450195312 928.899414062 203.25 924.700195312 212.25 916.299804688 c 0
 221.25 907.899414062 225.75 897.399414062 225.75 884.799804688 c 0
 225.75 872.200195312 221.25 861.700195312 212.25 853.299804688 c 0
 203.25 844.899414062 192.450195312 840.700195312 179.850585938 840.700195312 c 0
 167.849609375 840.700195312 157.350585938 844.899414062 148.350585938 853.299804688 c 0
 139.350585938 861.700195312 134.850585938 872.200195312 134.850585938 884.799804688 c 0
 134.850585938 897.399414062 139.350585938 907.899414062 148.350585938 916.299804688 c 0
 157.350585938 924.700195312 167.849609375 928.899414062 179.850585938 928.899414062 c 0
346.799804688 928.899414062 m 0
 359.099609375 928.899414062 369.75 924.700195312 378.75 916.299804688 c 0
 387.75 907.899414062 392.100585938 897.399414062 391.799804688 884.799804688 c 0
 392.100585938 872.200195312 387.75 861.700195312 378.75 853.299804688 c 0
 369.75 844.899414062 359.099609375 840.700195312 346.799804688 840.700195312 c 0
 333.899414062 840.700195312 322.950195312 844.899414062 313.950195312 853.299804688 c 0
 304.950195312 861.700195312 300.450195312 872.200195312 300.450195312 884.799804688 c 0
 300.450195312 897.399414062 304.950195312 907.899414062 313.950195312 916.299804688 c 0
 322.950195312 924.700195312 333.899414062 928.899414062 346.799804688 928.899414062 c 0
EndSplineSet
Validated: 33
EndChar

StartChar: Cacute
Encoding: 262 262 112
Width: 601
Flags: H
LayerCount: 2
Fore
SplineSet
359 -15 m 4
 164 -15 43 132 43 376 c 4
 43 605 163 765 355 765 c 4
 416 765 466 748 506 726 c 4
 521 718 531 705 535 693 c 4
 545 664 555 588 556 554 c 4
 556 543.42578125 552.90234375 535.638671875 547.5703125 535.638671875 c 0
 543.3203125 535.638671875 537.65234375 540.583007812 531 553 c 4
 465 678 413 730 342 730 c 4
 234 730 163 595 163 389 c 4
 163 151 238 20 366 20 c 4
 433 20 501 88 540 198 c 4
 545.174804688 212.11328125 551.013671875 217.81640625 555.538085938 217.81640625 c 0
 560.005859375 217.81640625 563.192382812 212.255859375 563.192382812 203.741210938 c 0
 563.192382812 202.234375 559.583007812 124.178710938 546 54 c 4
 543 38 537 25 521 17 c 4
 475 -4 436 -15 359 -15 c 4
355 825.067382812 m 1024
477.911132812 871.419921875 m 0
 452.297851562 860.00390625 409.416015625 842.87890625 379.883789062 832.155273438 c 0
 360.94140625 825.27734375 357.73828125 824.755859375 355 825.067382812 c 0
 350.249023438 825.607421875 347.005859375 828.645507812 345.609375 833.232421875 c 0
 344.96875 835.327148438 345.083007812 836.537109375 345.737304688 837.794921875 c 0
 346.393554688 839.055664062 347.646484375 840.469726562 352.95703125 844.48828125 c 0
 355.049804688 846.073242188 367.34765625 855.456054688 399.953125 880.665039062 c 0
 405.447265625 884.913085938 420.740234375 896.735351562 426.920898438 901.32421875 c 0
 440.986328125 911.770507812 451.317382812 917.041992188 461.928710938 920.963867188 c 0
 472.583984375 924.901367188 481.568359375 926.7578125 489.83203125 926.7578125 c 0
 491.8828125 926.7578125 493.889648438 926.643554688 495.866210938 926.41796875 c 0
 504.8046875 925.399414062 511.956054688 922.249023438 516.814453125 917.015625 c 0
 522.119140625 911.306640625 523.072265625 904.861328125 519.920898438 898.505859375 c 0
 516.291015625 891.180664062 507.529296875 884.620117188 477.911132812 871.419921875 c 0
EndSplineSet
Validated: 1
EndChar

StartChar: cacute
Encoding: 263 263 113
Width: 465
Flags: H
LayerCount: 2
Fore
SplineSet
250 -15 m 0
 136 -15 39 65 39 254 c 0
 39 417 147 530 274 530 c 0
 336 530 386 503 413 463 c 0
 418.158203125 456.047851562 420.44921875 448.392578125 420.44921875 440.698242188 c 0
 420.44921875 414.080078125 393.030273438 387 362 387 c 0
 305 387 313 501 250 501 c 0
 182 501 135 417 135 285 c 0
 135 124.15625 202.033203125 54.9892578125 281.290039062 54.9892578125 c 0
 281.859375 54.9892578125 282.4296875 54.9931640625 283 55 c 0
 333 56 379 80 420 131 c 0
 427.071289062 139.642578125 433.37109375 143.963867188 437.323242188 143.963867188 c 0
 440.026367188 143.963867188 441.630859375 141.940429688 441.630859375 137.89453125 c 0
 441.630859375 132.80078125 439.08984375 124.502929688 433 113 c 0
 391 36 329 -15 250 -15 c 0
195.1171875 644.64453125 m 1028
379.484375 714.173828125 m 4
 341.064453125 697.049804688 276.741210938 671.362304688 232.443359375 655.276367188 c 4
 204.029296875 644.959960938 199.224609375 644.177734375 195.1171875 644.64453125 c 4
 187.991210938 645.455078125 183.125976562 650.01171875 181.03125 656.892578125 c 4
 180.0703125 660.034179688 180.2421875 661.849609375 181.223632812 663.736328125 c 4
 182.208007812 665.626953125 184.086914062 667.748046875 192.052734375 673.776367188 c 4
 195.192382812 676.153320312 213.638671875 690.227539062 262.546875 728.041015625 c 4
 270.788085938 734.413085938 293.727539062 752.146484375 302.999023438 759.030273438 c 4
 324.096679688 774.69921875 339.59375 782.606445312 355.510742188 788.489257812 c 4
 371.493164062 794.395507812 384.969726562 797.180664062 397.365234375 797.180664062 c 4
 400.44140625 797.180664062 403.452148438 797.008789062 406.416992188 796.670898438 c 4
 419.82421875 795.142578125 430.551757812 790.416992188 437.838867188 782.567382812 c 4
 445.795898438 774.00390625 447.225585938 764.3359375 442.499023438 754.802734375 c 4
 437.053710938 743.814453125 423.911132812 733.973632812 379.484375 714.173828125 c 4
EndSplineSet
Validated: 524321
EndChar

StartChar: Ccircumflex
Encoding: 264 264 114
Width: 601
Flags: H
LayerCount: 2
Fore
SplineSet
359 -15 m 4
 164 -15 43 132 43 376 c 4
 43 605 163 765 355 765 c 4
 416 765 466 748 506 726 c 4
 521 718 531 705 535 693 c 4
 545 664 555 588 556 554 c 4
 556 543.42578125 552.90234375 535.638671875 547.5703125 535.638671875 c 0
 543.3203125 535.638671875 537.65234375 540.583007812 531 553 c 4
 465 678 413 730 342 730 c 4
 234 730 163 595 163 389 c 4
 163 151 238 20 366 20 c 4
 433 20 501 88 540 198 c 4
 545.174804688 212.11328125 551.013671875 217.81640625 555.538085938 217.81640625 c 0
 560.005859375 217.81640625 563.192382812 212.255859375 563.192382812 203.741210938 c 0
 563.192382812 202.234375 559.583007812 124.178710938 546 54 c 4
 543 38 537 25 521 17 c 4
 475 -4 436 -15 359 -15 c 4
436.703125 825 m 5
 425.734375 830.90625 l 6
 419.546875 834.46875 408.390625 840.75 392.265625 849.75 c 4
 376.140625 858.75 363.671875 865.5 354.860351562 870 c 5
 346.796875 865.875 335.078125 859.40625 319.703125 850.59375 c 4
 304.328125 841.78125 292.609375 835.21875 284.546875 830.90625 c 6
 273.578125 825 l 5
 268.890625 825 265.234375 827.34375 262.609375 832.03125 c 4
 262.421875 832.40625 262.328125 832.6875 262.328125 832.875 c 4
 262.328125 834 263.171875 835.40625 264.859375 837.09375 c 4
 295.046875 868.40625 317.734375 890.90625 332.921875 904.59375 c 4
 338.359375 909.28125 342.203125 912.1875 344.453125 913.3125 c 4
 346.703125 914.4375 350.734375 915 356.546875 915 c 4
 360.859375 915 364.140625 914.4375 366.390625 913.3125 c 4
 368.640625 912.1875 372.296875 909.28125 377.359375 904.59375 c 4
 391.046875 892.21875 413.640625 869.71875 445.140625 837.09375 c 4
 446.828125 835.40625 447.671875 834 447.671875 832.875 c 4
 447.671875 832.5 447.578125 832.21875 447.390625 832.03125 c 4
 444.765625 827.34375 441.203125 825 436.703125 825 c 5
EndSplineSet
Validated: 1
EndChar

